<?xml version="1.0" encoding="UTF-8"?>
<svg width="218px" height="78px" viewBox="0 0 218 78" version="1.1" xmlns="http://www.w3.org/2000/svg" xmlns:xlink="http://www.w3.org/1999/xlink">
    <!-- Generator: Sketch 46.2 (44496) - http://www.bohemiancoding.com/sketch -->
    <title>undp-sdg-logo</title>
    <desc>Created with Sketch.</desc>
    <defs>
        <polygon id="path-1" points="18.4016 19 0 19 0 0.5992 18.4016 0.5992 18.4016 19"></polygon>
        <polygon id="path-3" points="37.9742 0.933 0.0192 0.933 0.0192 38.8955 37.9742 38.8955"></polygon>
    </defs>
    <g id="Page-1" stroke="none" stroke-width="1" fill="none" fill-rule="evenodd">
        <g id="Artboard" transform="translate(-88.000000, -78.000000)">
            <g id="undp-sdg-logo" transform="translate(88.000000, 77.000000)">
                <g id="Page-1" transform="translate(54.000000, 0.000000)">
                    <g id="Group-111" transform="translate(0.000000, 0.150900)">
                        <path d="M21.5545,26.9435 L21.5545,36.9825 L23.3875,36.9825 C25.9085,36.9825 27.6275,35.2175 27.6275,32.0315 L27.6275,31.9165 C27.6275,28.7315 25.9085,26.9435 23.3875,26.9435 L21.5545,26.9435 Z M18.2315,23.9415 L23.4105,23.9415 C28.0635,23.9415 31.0655,27.1505 31.0655,31.8485 L31.0655,32.0545 C31.0655,36.7525 28.0635,39.9845 23.4105,39.9845 L18.2315,39.9845 L18.2315,23.9415 Z" id="Fill-67" fill="#FFFFFF"></path>
                        <polygon id="Fill-68" fill="#FFFFFF" points="32.8284 23.9416 43.1634 23.9416 43.1634 26.9436 36.1284 26.9436 36.1284 30.4046 42.3164 30.4046 42.3164 33.4066 36.1284 33.4066 36.1284 36.9826 43.2554 36.9826 43.2554 39.9836 32.8284 39.9836"></polygon>
                        <polygon id="Fill-69" fill="#FFFFFF" points="43.805 23.9416 47.403 23.9416 50.794 34.9876 54.186 23.9416 57.693 23.9416 52.284 40.0756 49.214 40.0756"></polygon>
                        <polygon id="Fill-70" fill="#FFFFFF" points="58.8372 23.9416 69.1732 23.9416 69.1732 26.9436 62.1372 26.9436 62.1372 30.4046 68.3252 30.4046 68.3252 33.4066 62.1372 33.4066 62.1372 36.9826 69.2652 36.9826 69.2652 39.9836 58.8372 39.9836"></polygon>
                        <polygon id="Fill-71" fill="#FFFFFF" points="71.0277 23.9416 74.3507 23.9416 74.3507 36.9356 80.8367 36.9356 80.8367 39.9836 71.0277 39.9836"></polygon>
                        <path d="M91.8822,32.0544 L91.8822,31.8944 C91.8822,28.7314 90.2782,26.7374 88.0552,26.7374 C85.8092,26.7374 84.2282,28.7084 84.2282,31.8714 L84.2282,32.0314 C84.2282,35.1944 85.8552,37.1884 88.0782,37.1884 C90.3012,37.1884 91.8822,35.2174 91.8822,32.0544 M80.8132,32.1234 L80.8132,31.8484 C80.8132,27.0354 83.8382,23.6664 88.0782,23.6664 C92.3412,23.6664 95.3202,27.0124 95.3202,31.8024 L95.3202,32.0774 C95.3202,36.8674 92.2942,40.2594 88.0552,40.2594 C83.7922,40.2594 80.8132,36.9124 80.8132,32.1234" id="Fill-72" fill="#FFFFFF"></path>
                        <path d="M102.2845,32.1232 C104.0045,32.1232 104.9665,31.0462 104.9665,29.5562 L104.9665,29.5332 C104.9665,27.8602 104.0045,26.9432 102.2395,26.9432 L100.4295,26.9432 L100.4295,32.1232 L102.2845,32.1232 Z M97.1055,23.9412 L102.4455,23.9412 C106.0435,23.9412 108.3115,26.0272 108.3115,29.4412 L108.3115,29.4872 C108.3115,33.1772 105.6765,35.0332 102.3075,35.1022 L100.4295,35.1022 L100.4295,39.9842 L97.1055,39.9842 L97.1055,23.9412 Z" id="Fill-73" fill="#FFFFFF"></path>
                        <polygon id="Fill-74" fill="#FFFFFF" points="109.6409 23.9416 113.1239 23.9416 116.6999 30.4506 120.2289 23.9416 123.7349 23.9416 123.7349 39.9836 120.4809 39.9836 120.4809 29.7396 116.6999 36.3626 116.6309 36.3626 112.8719 29.7856 112.8719 39.9836 109.6409 39.9836"></polygon>
                        <polygon id="Fill-75" fill="#FFFFFF" points="126.0931 23.9416 136.4291 23.9416 136.4291 26.9436 129.3941 26.9436 129.3941 30.4046 135.5811 30.4046 135.5811 33.4066 129.3941 33.4066 129.3941 36.9826 136.5211 36.9826 136.5211 39.9836 126.0931 39.9836"></polygon>
                        <polygon id="Fill-76" fill="#FFFFFF" points="138.2845 23.9416 141.3325 23.9416 147.4735 33.2916 147.4735 23.9416 150.7285 23.9416 150.7285 39.9836 147.8865 39.9836 141.5385 30.2896 141.5385 39.9836 138.2845 39.9836"></polygon>
                        <polygon id="Fill-77" fill="#FFFFFF" points="156.1585 27.0128 152.1255 27.0128 152.1255 23.9418 163.4925 23.9418 163.4925 27.0128 159.4595 27.0128 159.4595 39.9838 156.1585 39.9838"></polygon>
                        <path d="M17.0628,16.3761 L19.2238,13.6871 C20.4058,14.7171 21.8378,15.6721 23.5978,15.6721 C25.0048,15.6721 25.8598,14.9681 25.8598,13.9381 L25.8598,13.9131 C25.8598,13.0331 25.3568,12.4801 22.8438,11.5251 C19.7268,10.3191 17.7918,9.1381 17.7918,6.1221 L17.7918,6.0711 C17.7918,3.0051 20.1538,0.9191 23.5468,0.9191 C25.6078,0.9191 27.6188,1.6231 29.2278,3.0801 L27.1918,5.8451 C26.0858,4.9401 24.8038,4.2111 23.4468,4.2111 C22.1898,4.2111 21.4108,4.8401 21.4108,5.7441 L21.4108,5.7701 C21.4108,6.7751 22.0138,7.2521 24.7538,8.3831 C27.8198,9.5901 29.4788,10.8971 29.4788,13.6371 L29.4788,13.6871 C29.4788,16.9541 26.9908,18.9641 23.5718,18.9641 C21.3358,18.9641 18.9978,18.1861 17.0628,16.3761" id="Fill-78" fill="#FFFFFF"></path>
                        <path d="M31.0106,11.9025 L31.0106,1.1455 L34.6546,1.1455 L34.6546,11.9275 C34.6546,14.4155 35.8366,15.6475 37.7206,15.6475 C39.6056,15.6475 40.7866,14.4415 40.7866,12.0025 L40.7866,1.1455 L44.4066,1.1455 L44.4066,11.8265 C44.4066,16.6775 41.7416,19.0155 37.6706,19.0155 C33.6246,19.0155 31.0106,16.6525 31.0106,11.9025" id="Fill-79" fill="#FFFFFF"></path>
                        <path d="M45.4862,16.3761 L47.6472,13.6871 C48.8292,14.7171 50.2622,15.6721 52.0212,15.6721 C53.4282,15.6721 54.2832,14.9681 54.2832,13.9381 L54.2832,13.9131 C54.2832,13.0331 53.7802,12.4801 51.2672,11.5251 C48.1512,10.3191 46.2152,9.1381 46.2152,6.1221 L46.2152,6.0711 C46.2152,3.0051 48.5772,0.9191 51.9702,0.9191 C54.0312,0.9191 56.0432,1.6231 57.6512,3.0801 L55.6152,5.8451 C54.5092,4.9401 53.2272,4.2111 51.8702,4.2111 C50.6132,4.2111 49.8342,4.8401 49.8342,5.7441 L49.8342,5.7701 C49.8342,6.7751 50.4382,7.2521 53.1772,8.3831 C56.2432,9.5901 57.9022,10.8971 57.9022,13.6371 L57.9022,13.6871 C57.9022,16.9541 55.4142,18.9641 51.9952,18.9641 C49.7592,18.9641 47.4222,18.1861 45.4862,16.3761" id="Fill-80" fill="#FFFFFF"></path>
                        <polygon id="Fill-81" fill="#FFFFFF" points="62.6507 4.5128 58.2267 4.5128 58.2267 1.1448 70.6937 1.1448 70.6937 4.5128 66.2697 4.5128 66.2697 18.7388 62.6507 18.7388"></polygon>
                        <path d="M78.9866,11.7013 L77.0766,5.9713 L75.1406,11.7013 L78.9866,11.7013 Z M75.3926,1.0443 L78.8606,1.0443 L85.1696,18.7393 L81.3996,18.7393 L80.0916,14.9183 L74.0356,14.9183 L72.7536,18.7393 L69.0846,18.7393 L75.3926,1.0443 Z" id="Fill-82" fill="#FFFFFF"></path>
                        <polygon id="Fill-83" fill="#FFFFFF" points="86.55 18.739 90.195 18.739 90.195 1.145 86.55 1.145"></polygon>
                        <polygon id="Fill-84" fill="#FFFFFF" points="92.9085 1.1452 96.2515 1.1452 102.9865 11.3992 102.9865 1.1452 106.5555 1.1452 106.5555 18.7392 103.4385 18.7392 96.4765 8.1072 96.4765 18.7392 92.9085 18.7392"></polygon>
                        <path d="M117.7142,11.7013 L115.8042,5.9713 L113.8682,11.7013 L117.7142,11.7013 Z M114.1202,1.0443 L117.5882,1.0443 L123.8972,18.7393 L120.1262,18.7393 L118.8192,14.9183 L112.7632,14.9183 L111.4812,18.7393 L107.8122,18.7393 L114.1202,1.0443 Z" id="Fill-85" fill="#FFFFFF"></path>
                        <path d="M131.888,11.3996 L128.696,11.3996 L128.696,15.5216 L131.963,15.5216 C133.596,15.5216 134.627,14.8176 134.627,13.4606 L134.627,13.4356 C134.627,12.1786 133.698,11.3996 131.888,11.3996 L131.888,11.3996 Z M133.873,6.3226 C133.873,5.0416 132.968,4.3626 131.41,4.3626 L128.696,4.3626 L128.696,8.3336 L131.234,8.3336 C132.843,8.3336 133.873,7.6796 133.873,6.3476 L133.873,6.3226 Z M125.152,1.1456 L131.687,1.1456 C133.647,1.1456 135.281,1.6726 136.285,2.6786 C137.065,3.4826 137.467,4.4376 137.467,5.6696 L137.467,5.7446 C137.467,7.8056 136.336,8.9116 135.079,9.5896 C136.964,10.3186 138.221,11.4756 138.221,13.7876 L138.221,13.9136 C138.221,17.0806 135.683,18.7386 131.863,18.7386 L125.152,18.7386 L125.152,1.1456 Z" id="Fill-86" fill="#FFFFFF"></path>
                        <polygon id="Fill-87" fill="#FFFFFF" points="139.929 1.1452 143.574 1.1452 143.574 15.3952 150.686 15.3952 150.686 18.7392 139.929 18.7392"></polygon>
                        <polygon id="Fill-88" fill="#FFFFFF" points="152.1937 1.1452 163.5287 1.1452 163.5287 4.4372 155.8127 4.4372 155.8127 8.2322 162.5987 8.2322 162.5987 11.5252 155.8127 11.5252 155.8127 15.4462 163.6297 15.4462 163.6297 18.7392 152.1937 18.7392"></polygon>
                        <path d="M35.723,59.2467 L51.254,59.2467 C50.985,71.7337 44.093,77.9997 34.828,77.9997 C24.847,77.9997 18.447,69.5857 18.447,60.5447 C18.447,51.5047 24.847,43.0897 34.828,43.0897 C45.884,43.0897 48.927,49.9817 50.18,53.5627 L43.153,54.0107 C41.945,51.0567 39.527,49.0867 34.828,49.0867 C29.547,49.0867 25.429,53.3837 25.429,60.5447 C25.429,66.5867 29.233,72.0027 35.276,72.0027 C40.691,72.0027 43.198,68.1537 43.779,64.9757 L35.723,64.9757 L35.723,59.2467 Z" id="Fill-89" fill="#FFFFFF"></path>
                        <polygon id="Fill-90" fill="#FFFFFF" points="117.6126 43.8092 124.3076 43.8092 124.3076 71.1252 137.2096 71.1252 137.2096 77.3752 117.6126 77.3752"></polygon>
                        <path d="M155.9984,52.6462 C155.9984,50.3252 153.7674,48.8972 151.0884,48.8972 C147.7404,48.8972 145.7314,50.3702 145.7314,52.6012 C145.7314,54.9222 147.9644,56.0392 149.6154,56.5742 L155.7744,58.5392 C160.2394,59.9662 163.4084,62.5552 163.4084,67.7332 C163.4084,71.8402 160.4614,78.0002 151.1784,78.0002 C139.5274,78.0002 138.4554,70.4572 138.4554,67.4652 L145.1514,67.3322 C145.1514,70.9032 147.9644,72.2872 151.2224,72.2872 C153.4984,72.2872 156.7124,71.1702 156.7124,68.5822 C156.7124,66.7962 155.9544,65.8592 152.6504,64.6532 L145.3294,62.0202 C141.6254,60.6812 139.0364,57.4222 139.0364,53.6282 C139.0364,49.3432 141.9824,43.1832 150.6864,43.1832 C161.0434,43.1832 162.6934,50.0572 162.6934,52.5122 L155.9984,52.6462 Z" id="Fill-91" fill="#FFFFFF"></path>
                        <path d="M61.9564,56.4186 C62.3684,55.7186 62.8684,55.0766 63.4414,54.5086 L58.5724,49.1696 C57.3484,50.3406 56.3034,51.6976 55.4814,53.1926 L61.9564,56.4186 Z" id="Fill-92" fill="#FFFFFF"></path>
                        <path d="M73.8919,52.6471 C74.6289,52.9851 75.3149,53.4161 75.9339,53.9261 L80.8159,48.5951 C79.5299,47.4871 78.0719,46.5721 76.4889,45.8961 L73.8919,52.6471 Z" id="Fill-93" fill="#FFFFFF"></path>
                        <path d="M85.0726,54.2526 L78.6016,57.4786 C78.9116,58.1986 79.1316,58.9656 79.2506,59.7646 L86.4486,59.0846 C86.2356,57.3806 85.7636,55.7556 85.0726,54.2526" id="Fill-94" fill="#FFFFFF"></path>
                        <path d="M78.138,56.5426 L84.608,53.3166 C83.806,51.8276 82.784,50.4756 81.584,49.3036 L76.702,54.6326 C77.258,55.2036 77.742,55.8456 78.138,56.5426" id="Fill-95" fill="#FFFFFF"></path>
                        <path d="M60.6702,61.1413 C60.6702,60.9953 60.6752,60.8503 60.6822,60.7053 L53.4822,60.0613 C53.4592,60.4173 53.4452,60.7783 53.4452,61.1413 C53.4452,62.5223 53.6172,63.8643 53.9362,65.1463 L60.8902,63.1513 C60.7472,62.5033 60.6702,61.8313 60.6702,61.1413" id="Fill-96" fill="#FFFFFF"></path>
                        <path d="M77.2318,67.0592 C76.7198,67.6812 76.1288,68.2372 75.4758,68.7102 L79.2778,74.8662 C80.6878,73.9102 81.9438,72.7422 83.0008,71.4092 L77.2318,67.0592 Z" id="Fill-97" fill="#FFFFFF"></path>
                        <path d="M79.3509,61.1413 C79.3509,61.8233 79.2779,62.4883 79.1359,63.1273 L86.0889,65.1253 C86.4069,63.8483 86.5759,62.5143 86.5759,61.1413 C86.5759,60.7993 86.5639,60.4613 86.5429,60.1243 L79.3439,60.8043 C79.3479,60.9163 79.3509,61.0293 79.3509,61.1413" id="Fill-98" fill="#FFFFFF"></path>
                        <path d="M62.9066,67.1969 L57.1516,71.5699 C58.2216,72.8879 59.4896,74.0369 60.9096,74.9739 L64.7106,68.8269 C64.0416,68.3629 63.4336,67.8139 62.9066,67.1969" id="Fill-99" fill="#FFFFFF"></path>
                        <path d="M60.7874,59.6667 C60.9164,58.8537 61.1514,58.0757 61.4764,57.3477 L55.0084,54.1247 C54.2934,55.6457 53.8044,57.2917 53.5804,59.0207 L60.7874,59.6667 Z" id="Fill-100" fill="#FFFFFF"></path>
                        <path d="M78.3929,75.4225 L74.5969,69.2755 C73.9079,69.6645 73.1639,69.9705 72.3809,70.1755 L73.7209,77.2865 C75.3879,76.9025 76.9589,76.2675 78.3929,75.4225" id="Fill-101" fill="#FFFFFF"></path>
                        <path d="M78.8597,64.1344 C78.6077,64.8734 78.2667,65.5714 77.8487,66.2154 L83.6227,70.5704 C84.5597,69.2224 85.3007,67.7294 85.8067,66.1304 L78.8597,64.1344 Z" id="Fill-102" fill="#FFFFFF"></path>
                        <path d="M71.3577,70.3835 C70.9187,70.4465 70.4677,70.4815 70.0107,70.4815 C69.6427,70.4815 69.2797,70.4585 68.9227,70.4165 L67.5847,77.5285 C68.3777,77.6445 69.1867,77.7055 70.0107,77.7055 C70.9247,77.7055 71.8217,77.6305 72.6957,77.4875 L71.3577,70.3835 Z" id="Fill-103" fill="#FFFFFF"></path>
                        <path d="M70.6077,51.82 C71.4107,51.872 72.1847,52.024 72.9197,52.266 L75.5157,45.517 C73.9707,44.971 72.3227,44.648 70.6077,44.588 L70.6077,51.82 Z" id="Fill-104" fill="#FFFFFF"></path>
                        <path d="M67.8939,70.2389 C67.0839,70.0509 66.3149,69.7569 65.6009,69.3719 L61.7979,75.5229 C63.2609,76.3609 64.8609,76.9809 66.5569,77.3429 L67.8939,70.2389 Z" id="Fill-105" fill="#FFFFFF"></path>
                        <path d="M67.2034,52.2331 C67.9534,51.9961 68.7444,51.8511 69.5624,51.8131 L69.5624,44.5831 C67.8244,44.6281 66.1544,44.9451 64.5894,45.4891 L67.2034,52.2331 Z" id="Fill-106" fill="#FFFFFF"></path>
                        <path d="M62.2728,66.3659 C61.8138,65.6879 61.4398,64.9459 61.1708,64.1569 L54.2228,66.1509 C54.7488,67.8079 55.5288,69.3529 56.5178,70.7389 L62.2728,66.3659 Z" id="Fill-107" fill="#FFFFFF"></path>
                        <path d="M64.224,53.8151 C64.834,53.3321 65.506,52.9231 66.227,52.6031 L63.614,45.8621 C62.057,46.5151 60.623,47.4011 59.352,48.4721 L64.224,53.8151 Z" id="Fill-108" fill="#FFFFFF"></path>
                        <path d="M100.4798,51.5309 L100.3898,51.5309 L96.0908,64.7429 L104.8238,64.7429 L100.4798,51.5309 Z M106.6338,70.2629 L94.1918,70.2629 L91.9738,77.3669 L84.6448,77.3669 L97.0418,43.3419 L104.1908,43.3419 L116.4078,77.3669 L108.9408,77.3669 L106.6338,70.2629 Z" id="Fill-109" fill="#FFFFFF"></path>
                        <path d="M0.283,0.8493 L0.283,77.9163" id="Stroke-110" stroke="#FFFFFF" stroke-width="0.5"></path>
                    </g>
                </g>
                <g id="Page-1">
                    <path d="M33.3706,55.4654 L31.7666,55.4654 L27.8666,49.2284 C27.0106,47.8614 26.1916,46.4584 25.5866,45.1284 L25.5296,45.1474 C25.6236,46.6954 25.6416,48.1704 25.6416,50.2154 L25.6416,55.4654 L24.1466,55.4654 L24.1466,43.1764 L25.8966,43.1764 L29.8156,49.3944 C30.7116,50.8334 31.4366,52.1114 32.0026,53.3864 L32.0586,53.3694 C31.9136,51.7274 31.8786,50.2364 31.8786,48.3354 L31.8786,43.1764 L33.3706,43.1764 L33.3706,55.4654 Z M19.5546,58.5194 L37.9546,58.5194 L37.9546,40.1174 L19.5546,40.1174 L19.5546,58.5194 Z" id="Fill-1" fill="#FEFEFE"></path>
                    <path d="M13.7475,50.3152 C13.7475,54.0862 11.7585,55.6212 9.0995,55.6212 C6.5815,55.6212 4.6865,54.2002 4.6865,50.3702 L4.6865,43.1322 L6.2925,43.1322 L6.2925,50.4242 C6.2925,53.1592 7.5115,54.3282 9.1535,54.3282 C10.9575,54.3282 12.1425,53.1272 12.1425,50.4242 L12.1425,43.1322 L13.7475,43.1322 L13.7475,50.3152 Z M0.0195,58.5202 L18.4205,58.5202 L18.4205,40.1182 L0.0195,40.1182 L0.0195,58.5202 Z" id="Fill-3" fill="#FEFEFE"></path>
                    <path d="M31.989,68.7966 C31.152,69.6836 29.786,70.1446 28.237,70.1446 C27.762,70.1446 27.327,70.1266 26.96,70.0366 L26.96,74.9586 L25.374,74.9586 L25.374,62.8356 C26.139,62.6896 27.142,62.5786 28.417,62.5786 C29.987,62.5786 31.133,62.9446 31.865,63.6016 C32.537,64.1826 32.956,65.0736 32.956,66.1696 C32.956,67.2796 32.629,68.1546 31.989,68.7966 L31.989,68.7966 Z M19.555,78.0496 L37.955,78.0496 L37.955,59.6476 L19.555,59.6476 L19.555,78.0496 Z" id="Fill-5" fill="#FEFEFE"></path>
                    <path d="M28.4537,63.9113 C27.7627,63.9113 27.2337,63.9853 26.9597,64.0393 L26.9597,68.8153 C27.3057,68.9053 27.7627,68.9413 28.2727,68.9413 C30.2037,68.9413 31.3547,67.9943 31.3547,66.3363 C31.3547,64.6923 30.2037,63.9113 28.4537,63.9113" id="Fill-7" fill="#FEFEFE"></path>
                    <g id="Group-11" transform="translate(0.000000, 59.067600)">
                        <mask id="mask-2" fill="white">
                            <use xlink:href="#path-1"></use>
                        </mask>
                        <g id="Clip-10"></g>
                        <path d="M12.9236,14.2152 C11.7536,15.3652 9.8576,15.9792 7.4716,15.9792 C6.3226,15.9792 5.3916,15.9462 4.5716,15.8382 L4.5716,3.7512 C5.5586,3.6032 6.7036,3.4932 7.9636,3.4932 C10.2426,3.4932 11.8636,4.0062 12.9396,5.0082 C14.0506,6.0122 14.6866,7.4502 14.6866,9.4392 C14.6866,11.4422 14.0506,13.0872 12.9236,14.2152 L12.9236,14.2152 Z M-0.0004,19.0002 L18.4016,19.0002 L18.4016,0.5992 L-0.0004,0.5992 L-0.0004,19.0002 Z" id="Fill-9" fill="#FEFEFE" mask="url(#mask-2)"></path>
                    </g>
                    <path d="M8.0354,63.8232 C7.2174,63.8232 6.5964,63.8952 6.1774,63.9852 L6.1774,73.7002 C6.5774,73.7762 7.1584,73.7762 7.7814,73.7762 C11.1694,73.7922 13.0124,71.8782 13.0124,68.5612 C13.0324,65.6272 11.3894,63.8232 8.0354,63.8232" id="Fill-12" fill="#FEFEFE"></path>
                    <g id="Group-16" transform="translate(0.000000, 0.067600)">
                        <mask id="mask-4" fill="white">
                            <use xlink:href="#path-3"></use>
                        </mask>
                        <g id="Clip-15"></g>
                        <path d="M30.8182,24.9115 C30.1452,25.3505 29.4632,25.7595 28.8162,26.2605 L28.8162,26.2015 C29.8092,24.5525 29.3212,22.2905 29.9322,20.4805 L30.1602,19.8745 C30.0342,21.0005 30.5242,21.9575 30.4912,23.0905 C30.4542,23.7745 30.2312,24.3805 29.8722,24.9255 L29.9322,24.9255 C30.4192,24.2895 30.7982,23.6125 31.3652,23.0035 C32.2452,22.1555 33.1402,21.2855 33.2572,20.1065 C33.5542,22.0735 32.4522,23.7975 30.8182,24.9115 L30.8182,24.9115 Z M28.6672,27.9715 C27.7992,28.2045 26.8692,28.2805 26.0222,28.5675 C27.4542,27.3395 27.3742,25.4375 28.3292,23.9915 C28.6322,23.5805 28.8852,23.1495 29.2392,22.7625 C28.6602,23.9295 28.9112,25.4425 28.2432,26.5745 C27.9862,27.0225 27.6162,27.4595 27.2102,27.8155 C27.3442,27.8095 27.4612,27.6945 27.5762,27.6175 C28.6632,26.5345 30.0812,26.2315 31.2542,25.3505 C31.7232,24.9755 32.1552,24.4865 32.3612,23.9565 C32.1392,25.7505 30.3532,27.4345 28.6672,27.9715 L28.6672,27.9715 Z M27.7222,29.7065 C26.0162,30.3495 24.3032,29.5605 22.6692,29.2975 L22.3562,29.2565 L22.3562,29.2465 C23.1352,29.0695 23.8932,28.8365 24.5162,28.2735 C25.4312,27.3945 26.2452,26.4905 27.2622,25.7965 C26.5082,26.7625 26.4292,28.1375 25.1852,28.7605 C24.8742,28.9615 24.4872,28.9965 24.1672,29.1515 C24.6222,29.1605 25.0362,28.9965 25.4872,28.9525 C27.1562,28.6915 29.0672,28.9585 30.2362,27.5365 C29.8012,28.5265 28.7152,29.3575 27.7222,29.7065 L27.7222,29.7065 Z M26.0942,31.2735 C24.5772,31.8405 22.9932,31.2475 21.8082,30.3495 C21.3302,30.0435 20.9052,29.6045 20.2822,29.6465 C20.0592,29.6405 19.8412,29.6505 19.6502,29.7065 C20.8022,30.2425 21.8722,30.9805 22.8512,31.9275 C22.6852,32.1145 22.4732,32.2905 22.2722,32.4525 C21.3302,31.4375 20.2822,30.4595 19.1142,29.8885 C18.8882,29.9185 18.6682,30.0545 18.4632,30.1645 C17.5102,30.7675 16.5692,31.5425 15.8622,32.4875 L15.2542,31.9875 C16.2252,31.0065 17.2992,30.2425 18.4712,29.6955 C17.3192,29.3325 16.5652,30.2975 15.6912,30.7885 C14.6692,31.5005 13.2032,31.8355 11.9672,31.3445 C11.3032,31.0925 10.6632,30.7225 10.1822,30.1205 C11.1542,30.7885 12.5992,30.8605 13.7022,30.4255 C15.1842,29.7825 16.7202,28.9685 18.5052,29.3575 C18.7852,29.3625 19.0582,29.6405 19.3222,29.4035 C20.6462,29.0585 22.1482,29.2975 23.2902,29.9035 L24.4702,30.3735 C25.5632,30.7775 26.9792,30.6685 27.9152,29.9985 C27.4342,30.5995 26.7772,31.0315 26.0942,31.2735 L26.0942,31.2735 Z M7.8142,27.7035 C9.1582,29.2365 11.3612,28.7245 13.1562,29.1245 C13.4072,29.1605 13.6412,29.2605 13.9112,29.2205 C13.6972,29.0845 13.3992,29.0995 13.1662,28.9775 C11.7602,28.4815 11.5532,26.9595 10.7882,25.9345 C11.7652,26.5805 12.5842,27.4555 13.4852,28.3005 C14.1332,28.8655 14.9102,29.1285 15.7292,29.2975 C15.5332,29.3675 15.2742,29.3465 15.0622,29.4035 C13.5912,29.7685 11.9512,30.3585 10.3882,29.8265 C9.3732,29.5075 8.3242,28.7055 7.8142,27.7035 L7.8142,27.7035 Z M5.6552,24.1575 C6.4952,26.0585 8.5982,26.2155 10.0102,27.3745 C10.2672,27.6015 10.5432,27.7985 10.8342,27.9365 L10.8492,27.9205 C10.5242,27.6265 10.1512,27.2935 9.9232,26.9155 C9.0992,25.7665 9.3882,24.1575 8.7712,22.9245 C9.3332,23.5965 9.8432,24.2925 10.1822,25.0565 C10.6892,26.3025 10.8802,27.7075 12.0502,28.6495 C10.7822,28.2345 9.3022,28.3515 8.1892,27.5715 C6.9712,26.8235 5.8822,25.5535 5.6552,24.1575 L5.6552,24.1575 Z M4.7542,20.3135 C4.8762,21.9885 6.6772,22.8735 7.5122,24.2595 C7.7092,24.5425 7.8812,24.8555 8.1442,25.0925 C8.1012,24.9165 7.9372,24.7645 7.8762,24.5825 C7.5822,24.0015 7.4762,23.3085 7.5472,22.6045 C7.6282,21.7505 7.9872,20.9555 7.8512,20.0555 C8.5832,21.6385 8.3612,23.6125 8.7712,25.3265 C8.8772,25.7005 9.0952,26.0345 9.2362,26.3935 C7.7292,25.3655 5.6752,24.3895 5.0062,22.5085 C4.7242,21.8605 4.6942,21.0575 4.7542,20.3135 L4.7542,20.3135 Z M4.8042,17.2285 C4.8902,16.8545 4.9582,16.4685 5.1192,16.1265 C4.8102,17.7045 5.8722,18.8425 6.2212,20.2135 C6.3672,20.7225 6.4042,21.2745 6.6122,21.7555 C6.6312,21.7665 6.6482,21.7455 6.6612,21.7295 C6.1412,20.2735 6.8892,18.9225 7.6422,17.7845 C7.8232,17.4755 7.9322,17.1315 8.0212,16.7785 C8.1012,17.4365 7.9372,18.1955 7.8392,18.8775 C7.6582,19.7475 7.3842,20.5715 7.1472,21.4165 C6.9892,21.9415 7.0312,22.5395 7.1112,23.0905 L7.0362,23.0305 C6.4822,22.0135 5.3912,21.2185 5.0702,20.1065 C4.8002,19.2205 4.6232,18.1955 4.8042,17.2285 L4.8042,17.2285 Z M5.3882,15.5295 C5.3572,14.3355 5.8522,13.3595 6.5522,12.4695 C6.5702,12.4585 6.5872,12.4395 6.6112,12.4435 C5.8432,13.6125 6.4782,15.0835 6.4442,16.4135 L6.3422,17.7745 C6.3552,17.7845 6.3552,17.8245 6.3932,17.8095 C6.4382,17.6595 6.4492,17.4965 6.4782,17.3395 C6.6612,16.2415 7.6132,15.4625 8.4472,14.7035 C8.6252,14.5085 8.7782,14.3045 8.8722,14.0735 C8.8062,14.6185 8.6332,15.1695 8.4072,15.6765 C7.7592,16.9405 6.5592,17.9765 6.3422,19.4225 C6.2372,18.0385 5.2902,17.0015 5.3882,15.5295 L5.3882,15.5295 Z M7.4152,11.4975 C7.7742,11.0475 8.2352,10.7335 8.7512,10.6025 C7.7512,11.2905 7.8142,12.5245 7.4962,13.5515 C7.3952,13.9315 7.2182,14.2805 7.1322,14.6685 L7.1582,14.6895 C7.3262,14.2485 7.6182,13.8355 7.9802,13.4755 C8.6952,12.8185 9.7472,12.4085 10.0962,11.4365 C10.0812,12.7875 8.9532,13.8485 7.8762,14.6095 C7.4292,14.9975 7.0002,15.4435 6.7562,15.9425 C6.7322,15.6045 6.8092,15.2605 6.7842,14.8965 C6.6662,13.7175 6.5812,12.3725 7.4152,11.4975 L7.4152,11.4975 Z M11.4812,9.2275 C10.7372,9.8795 10.2212,10.7045 9.6712,11.4745 C9.1752,12.0845 8.5442,12.4895 7.9802,13.0155 C8.2842,12.3885 8.2952,11.6395 8.7262,11.0635 C9.3382,9.9945 10.4722,9.6215 11.4812,9.2275 L11.4812,9.2275 Z M14.4062,9.3275 C15.8072,8.6365 17.3402,8.2665 19.0082,8.2365 C22.8212,8.2425 26.4632,10.4805 28.1222,14.0105 C29.1742,16.0395 29.4732,18.8325 28.7912,21.1235 C28.0972,23.8285 25.8212,26.5655 23.1712,27.6785 C20.1872,29.1405 15.9472,28.7755 13.2872,26.8685 C9.5892,24.3355 8.0772,19.9695 9.1952,15.6595 C9.8732,13.1005 11.9122,10.5165 14.4062,9.3275 L14.4062,9.3275 Z M28.4762,10.1525 C29.2192,10.8145 29.5532,11.6755 29.7722,12.5655 L29.8922,12.8475 C28.8162,12.0755 27.8392,11.0325 27.1512,9.9345 L26.3112,9.0855 C27.0502,9.3985 27.8452,9.5845 28.4762,10.1525 L28.4762,10.1525 Z M31.1082,12.5905 C31.3432,13.6535 31.0012,14.6895 31.2172,15.7625 L31.2072,15.7705 C30.6302,14.6335 29.4012,14.0985 28.5562,13.1875 C28.0652,12.6465 27.8542,11.9875 27.7332,11.2905 C28.2192,12.4585 29.5222,12.7165 30.2732,13.6975 C30.5242,13.9245 30.6062,14.2395 30.7672,14.4985 L30.7922,14.4715 C30.3622,13.5515 30.2162,12.5145 29.9202,11.5345 C29.7652,11.1075 29.4682,10.6885 29.0672,10.4205 C30.0502,10.6225 30.9042,11.6495 31.1082,12.5905 L31.1082,12.5905 Z M31.7372,12.8225 C32.6352,14.0375 32.8322,15.9695 32.1782,17.3605 C31.9372,17.9515 31.7642,18.5795 31.6682,19.2315 C31.6212,19.1205 31.6122,18.9685 31.5722,18.8425 C31.2172,17.4815 29.9282,16.5105 29.3962,15.2255 C29.2302,14.8055 29.0882,14.3715 29.0082,13.9155 C29.5732,14.9615 30.9692,15.5035 31.3492,16.6565 C31.5052,16.9505 31.4972,17.3135 31.5912,17.6285 C31.6122,17.6285 31.6322,17.6135 31.6322,17.5925 C31.4662,16.4035 31.5162,15.1595 31.6782,13.9865 C31.6682,13.3495 31.6072,12.7325 31.2542,12.2405 C31.4802,12.3725 31.5832,12.6265 31.7372,12.8225 L31.7372,12.8225 Z M32.5792,20.6985 C32.0482,21.4505 31.4052,22.1555 30.9132,22.9235 C30.9692,22.3165 31.0402,21.5675 30.8022,20.9915 C30.3932,19.7515 30.0332,18.4935 29.9202,17.1315 L29.9322,16.6115 C30.2412,18.0015 31.6072,18.9595 31.5202,20.5175 C31.5512,20.8955 31.4332,21.2145 31.3652,21.5475 L31.3892,21.5735 L31.4502,21.5025 C31.6522,20.7395 31.7532,19.9345 32.0682,19.2205 C32.5172,18.1955 33.0732,17.1585 32.8472,15.9195 C33.5272,17.3815 33.3242,19.3325 32.5792,20.6985 L32.5792,20.6985 Z M0.0192,38.8955 L37.9742,38.8955 L37.9742,0.9325 L0.0192,0.9325 L0.0192,38.8955 Z" id="Fill-14" fill="#FEFEFE" mask="url(#mask-4)"></path>
                    </g>
                    <path d="M23.2054,24.8483 L23.2764,24.7513 C23.5804,24.5133 23.9084,24.2893 24.1774,23.9973 L24.2134,23.9973 C24.1514,23.9773 24.0744,24.0373 24.0054,24.0083 C23.8614,23.9423 23.8384,23.8153 23.8384,23.6693 L23.2154,23.0263 L23.1824,22.9303 C23.1354,23.0523 23.0434,23.1273 22.9534,23.2173 C22.9584,23.2993 22.9294,23.4213 23.0254,23.4753 C23.2274,23.5423 23.4904,23.6753 23.5354,23.9113 C23.4544,24.1343 23.0284,24.3363 23.2904,24.5793 C23.3764,24.6993 23.1714,24.7453 23.2054,24.8483" id="Fill-17" fill="#FEFEFE"></path>
                    <path d="M19.5896,16.6383 C19.7066,16.7043 19.7706,16.5833 19.8696,16.5573 C20.0096,16.5733 20.1196,16.6943 20.2056,16.7843 C20.2966,16.8253 20.3836,16.7703 20.4646,16.7403 C20.5206,16.3203 21.0456,16.3803 21.2026,15.9873 L21.1066,16.0223 C21.0666,15.9663 20.9656,15.9913 20.9716,15.9013 C21.0566,15.8183 21.1686,15.6923 21.2736,15.6573 C20.8206,15.3743 20.3486,15.1303 19.8316,15.0003 C19.6306,14.9533 19.4176,14.9483 19.2246,14.8783 C19.3216,15.1673 19.2366,15.5913 19.2976,15.9263 L19.6586,16.0453 C19.7676,15.8703 19.9986,15.8353 20.0996,15.6683 C20.1656,15.6123 20.2406,15.6683 20.2936,15.7283 C20.3096,15.8643 20.2736,16.0003 20.2326,16.1323 C20.0946,16.4063 19.7706,16.4393 19.5896,16.6383" id="Fill-19" fill="#FEFEFE"></path>
                    <path d="M24.9783,20.0366 C24.7643,20.7156 24.5163,21.3766 24.0913,21.9686 C23.9253,22.1816 23.7613,22.4766 23.5463,22.5856 L24.0063,22.9916 C24.0293,22.9666 24.0163,22.9256 24.0223,22.8906 C24.0223,22.8296 24.0503,22.7586 24.1273,22.7686 C24.3483,22.7626 24.3533,23.0006 24.4803,23.1226 C24.4543,23.3156 24.6223,23.4666 24.5653,23.6436 C25.8413,22.2986 26.4793,20.6496 26.5963,18.8236 L26.6643,18.7426 C26.2103,18.7876 25.7293,18.7556 25.2603,18.7626 L25.1473,18.7286 C25.1803,19.0356 25.0983,19.3346 25.0793,19.6386 L25.2433,19.8196 C25.2923,19.8906 25.2743,19.9966 25.2093,20.0516 C25.1373,20.0986 25.0473,20.0946 24.9783,20.0366" id="Fill-21" fill="#FEFEFE"></path>
                    <path d="M23.0836,14.6607 L23.0596,14.7227 C22.5936,15.2067 22.0816,15.7077 21.6386,16.2047 C21.6676,16.2637 21.7176,16.3207 21.7766,16.3497 C21.7946,16.2287 21.8616,16.1217 21.8726,15.9967 C21.9916,15.8297 22.1756,15.9357 22.3306,15.9707 C22.5736,15.9147 22.8016,16.0267 23.0486,16.0227 C23.2326,16.1127 23.2486,16.3457 23.4146,16.4367 C23.4596,16.5007 23.4246,16.5787 23.3626,16.6287 C23.4146,17.0087 23.5956,16.5277 23.7886,16.6187 C23.8686,16.6487 23.9696,16.6387 24.0296,16.7247 C24.0606,16.8817 24.2526,16.8527 24.2636,17.0027 C24.2476,17.0777 24.1676,17.0977 24.1146,17.1397 C24.1616,17.2907 23.9606,17.3867 24.0296,17.5487 C24.3226,17.6047 24.3336,17.2647 24.4696,17.1137 C24.3946,16.8527 24.3386,16.5837 24.1886,16.3497 C24.0216,16.3147 23.9206,16.1167 23.7526,16.0827 C23.4296,15.9547 23.8026,15.7527 23.7606,15.5607 C23.5906,15.2377 23.3186,14.9487 23.0836,14.6607" id="Fill-23" fill="#FEFEFE"></path>
                    <path d="M19.2496,26.1222 C19.6246,25.9962 20.0596,26.0162 20.4646,25.9502 C20.3846,25.9192 20.3016,25.9002 20.2406,25.8182 C20.0036,25.8032 19.8926,25.5562 19.8176,25.3682 C19.7806,25.2332 19.8736,25.1212 19.9296,25.0042 C19.8286,24.7972 19.5146,24.9472 19.3316,24.8732 C19.2816,24.8322 19.2446,24.7702 19.1756,24.7602 L19.2496,24.8732 C19.2496,25.2882 19.3006,25.7132 19.2496,26.1222" id="Fill-25" fill="#FEFEFE"></path>
                    <path d="M19.5751,22.1763 C19.7071,22.2013 19.6131,22.3443 19.7101,22.3943 C19.9171,22.3283 20.0761,22.5703 20.2401,22.4193 C20.2321,22.1813 20.5011,22.2013 20.6471,22.1413 C20.8761,22.0043 21.1321,21.8233 21.1071,21.5183 L21.0691,21.4743 C20.9131,21.4743 20.8341,21.5943 20.7191,21.6903 C20.5751,21.7723 20.5031,21.5383 20.3881,21.5943 C20.3941,21.6203 20.4191,21.6313 20.4401,21.6403 C20.4691,21.6773 20.4791,21.7523 20.4401,21.7873 C20.2671,21.9443 20.1871,21.7103 20.0241,21.7263 L20.0241,21.7873 C20.0311,21.8233 20.0141,21.8783 19.9651,21.8573 C19.8621,21.6903 19.6551,21.7523 19.5531,21.6063 C19.4891,21.5703 19.4271,21.6153 19.3831,21.6563 C19.3461,21.7323 19.1851,21.6463 19.2251,21.7783 C19.0991,21.8233 19.0851,21.9583 18.9931,22.0403 C18.8351,22.0133 18.7661,22.1913 18.6181,22.1873 C18.6331,22.2173 18.6181,22.2683 18.6621,22.2723 C18.7551,22.3123 18.8451,22.3223 18.9571,22.3073 C19.1091,22.0653 19.3621,22.2683 19.5751,22.1763" id="Fill-27" fill="#FEFEFE"></path>
                    <path d="M21.0692,20.2 C21.0772,20.275 21.0882,20.376 21.1522,20.441 C21.3492,20.412 21.2652,20.684 21.4462,20.66 C21.5482,20.63 21.4522,20.544 21.4802,20.478 C21.4522,20.326 21.3042,20.31 21.2022,20.22 C21.1912,20.189 21.2132,20.164 21.2272,20.139 C21.1522,20.099 21.1172,20.144 21.0692,20.2" id="Fill-29" fill="#FEFEFE"></path>
                    <path d="M20.8397,13.2195 C20.3267,13.0365 19.7677,12.9615 19.2097,12.8765 L19.2607,12.9875 L19.2497,14.3575 L19.3837,14.3315 C20.2207,14.4475 20.9897,14.7165 21.6537,15.2575 L21.6887,15.3635 C21.9147,15.0445 22.2597,14.7715 22.5267,14.4695 L22.7807,14.3215 L22.6587,14.2715 C22.1027,13.8065 21.4977,13.4535 20.8397,13.2195" id="Fill-31" fill="#FEFEFE"></path>
                    <path d="M11.4325,18.8642 L11.5425,19.7952 C11.5875,20.1542 11.7445,20.4982 11.7335,20.8522 C11.7885,20.7762 11.7545,20.6242 11.8915,20.6092 C11.8345,20.4982 11.9975,20.4022 11.9065,20.3062 C11.9515,20.0642 11.9805,19.8152 12.1955,19.6382 C12.4535,19.6272 12.4725,19.2882 12.7315,19.2732 C12.8625,19.2672 12.9435,19.4452 13.0015,19.5052 C12.8385,19.3102 12.8465,18.9852 12.8875,18.7632 L12.7755,18.8142 C12.3065,18.8042 11.8165,18.8422 11.3705,18.7782 L11.4325,18.8642 Z" id="Fill-33" fill="#FEFEFE"></path>
                    <path d="M20.5008,21.2309 C20.6208,21.1049 20.8768,21.1099 20.8888,20.9289 C20.7108,20.9009 20.6208,20.9979 20.5008,21.0949 C20.4838,21.1329 20.4298,21.2039 20.5008,21.2309" id="Fill-35" fill="#FEFEFE"></path>
                    <path d="M23.718,18.693 L23.873,18.848 C24.029,18.955 23.925,19.181 24.091,19.273 C24.286,19.374 24.358,19.602 24.447,19.774 C24.475,19.729 24.475,19.673 24.492,19.628 C24.561,19.349 24.55,19.036 24.637,18.763 C24.333,18.778 23.983,18.808 23.718,18.693" id="Fill-37" fill="#FEFEFE"></path>
                    <path d="M21.0825,22.056 C21.2655,22.151 21.4865,22.157 21.6785,22.237 C21.8505,22.282 21.9675,22.496 22.1835,22.429 C22.3665,22.328 22.6695,22.49 22.7915,22.298 C22.7715,22.111 22.9335,21.974 23.0145,21.813 L23.0745,21.798 C23.1755,21.903 23.1705,22.061 23.2155,22.176 C23.3575,22.025 23.4685,21.858 23.5955,21.702 C23.9285,21.216 24.2135,20.695 24.3335,20.139 C24.1985,20.144 24.0605,20.168 23.9355,20.209 C23.7885,20.2 23.6105,20.285 23.4845,20.184 C23.4405,20.144 23.4075,20.204 23.4155,20.245 C23.3625,20.321 23.3125,20.416 23.1955,20.382 C23.1045,20.341 23.1045,20.245 23.0745,20.174 C23.0795,20.23 23.0605,20.281 23.0495,20.331 C22.9435,20.441 22.9065,20.548 22.8325,20.669 C22.7255,20.786 22.5535,20.745 22.4415,20.841 C22.4215,21.084 22.1535,21.033 22.0025,21.11 C21.9915,21.14 22.0275,21.145 22.0415,21.171 C22.1145,21.19 22.2095,21.19 22.2595,21.119 C22.4735,21.176 22.4265,20.908 22.5505,20.816 C22.6565,20.801 22.7575,20.71 22.8655,20.782 C22.9785,20.917 23.0035,21.114 22.9885,21.292 C22.8655,21.412 22.9285,21.61 22.8425,21.752 C22.8615,21.919 22.6585,21.994 22.6855,22.162 C22.6205,22.237 22.5075,22.248 22.4065,22.248 C22.0085,22.096 21.5875,22 21.1415,21.959 C21.1015,21.974 21.0765,22.009 21.0825,22.056" id="Fill-39" fill="#FEFEFE"></path>
                    <path d="M18.6625,26.6683 L18.7145,26.5913 L18.5575,26.6333 C16.5855,26.4963 14.8395,25.7993 13.3995,24.4063 L13.3835,24.4673 L12.3415,25.5143 C13.9185,26.8813 15.7005,27.7613 17.7325,28.0393 C18.0575,28.0943 18.4275,28.0643 18.7395,28.1603 L18.6625,28.0393 L18.6625,26.6683 Z" id="Fill-41" fill="#FEFEFE"></path>
                    <path d="M18.4473,22.056 C18.4813,21.919 18.4273,21.748 18.4973,21.631 C18.5473,21.518 18.6833,21.524 18.7853,21.544 C18.8453,21.539 18.8823,21.464 18.8453,21.411 C18.6993,21.384 18.7663,21.221 18.7143,21.13 C18.7213,21.079 18.8063,21.089 18.7853,21.023 C18.6833,20.942 18.8353,20.852 18.7503,20.766 C18.7743,20.749 18.7933,20.719 18.8183,20.701 C18.5133,20.83 18.1863,20.643 17.9163,20.523 C17.7823,20.445 17.5923,20.371 17.5623,20.209 C17.3453,20.563 16.9273,20.886 16.6243,21.216 C17.1663,21.662 17.7733,21.939 18.4473,22.056" id="Fill-43" fill="#FEFEFE"></path>
                    <path d="M16.1043,19.6385 C16.0553,19.6125 16.0493,19.6185 16.0083,19.6625 C15.9833,19.6625 15.9523,19.6675 15.9323,19.6525 C15.9323,19.3645 15.6103,19.5375 15.4883,19.3865 C15.6303,19.6475 15.7053,19.9455 15.8513,20.2085 C15.9433,20.4415 16.1443,20.6245 16.2363,20.8515 C16.3333,20.6695 16.5253,20.5225 16.6623,20.3555 C16.6723,20.2805 16.6563,20.2145 16.6143,20.1585 C16.5693,20.0515 16.6103,19.9015 16.5283,19.8105 C16.3993,19.8565 16.5753,19.9865 16.5183,20.0645 C16.4643,20.0985 16.4023,20.0515 16.3993,20.0015 C16.2823,19.9825 16.1903,19.8805 16.1543,19.7735 C16.2503,19.7135 16.1303,19.6875 16.1043,19.6385" id="Fill-45" fill="#FEFEFE"></path>
                    <path d="M17.2478,19.8709 L17.0758,19.7849 C17.0438,19.9109 16.9598,20.0209 16.8668,20.1129 L16.8838,20.1229 C17.0048,20.0369 17.0928,19.8809 17.2478,19.8709" id="Fill-47" fill="#FEFEFE"></path>
                    <path d="M18.543,24.7011 C17.313,24.6391 16.237,24.1901 15.28,23.4761 C15.31,23.5971 15.471,23.6751 15.427,23.8251 C15.34,23.9641 15.163,23.9661 15.023,23.9641 C14.733,23.9161 14.521,24.1351 14.25,24.1641 C14.001,24.2411 13.914,23.9361 13.687,23.9641 C15.093,25.1901 16.7,25.9591 18.583,26.0611 L18.725,26.1571 L18.663,25.9851 L18.663,24.6491 L18.543,24.7011 Z" id="Fill-49" fill="#FEFEFE"></path>
                    <path d="M13.0802,24.043 C12.9082,23.921 12.7552,23.725 12.6102,23.556 C12.4422,23.512 12.2702,23.395 12.1842,23.235 C12.1342,23.177 12.1812,23.078 12.1252,23.037 L12.0622,23.113 C11.8852,23.198 11.8222,23.016 11.7002,22.941 C11.5422,22.856 11.6192,22.557 11.4052,22.612 C11.3252,22.607 11.3002,22.516 11.2482,22.466 C11.0532,22.485 11.0012,22.268 10.8952,22.162 C10.8752,22.208 10.8952,22.268 10.8342,22.298 C10.6322,22.344 10.5622,22.096 10.4232,21.994 C10.3882,22.009 10.3632,22.052 10.3122,22.041 C10.1932,21.934 10.1112,21.782 10.1042,21.615 C9.9382,21.427 10.0142,21.13 10.0452,20.901 C10.0752,20.841 10.1632,20.807 10.1452,20.73 C10.1932,20.624 10.3042,20.614 10.4102,20.609 C10.4512,20.63 10.4912,20.669 10.5102,20.706 C10.5762,20.664 10.7242,20.71 10.6682,20.563 C10.7532,20.488 10.8802,20.461 10.9972,20.441 C11.0772,20.544 11.1172,20.66 11.2252,20.755 L11.1542,20.645 C11.0322,20.149 10.9372,19.643 10.9102,19.106 C10.9152,19.077 10.8472,19.061 10.8852,19.032 L10.8952,19.046 C10.9012,18.935 10.8912,18.839 10.9102,18.763 L10.7742,18.814 L9.3672,18.804 C9.4482,20.421 9.8782,21.893 10.6072,23.246 C10.9662,23.911 11.4922,24.513 11.9512,25.136 L12.9572,24.094 L13.0802,24.043 Z" id="Fill-51" fill="#FEFEFE"></path>
                    <path d="M18.6517,10.9123 C17.1867,10.9993 15.8737,11.4443 14.6977,12.2333 C14.3847,12.4513 14.0967,12.7343 13.7727,12.9263 C14.1487,13.1633 14.4567,13.5593 14.7947,13.8713 L14.8297,13.9683 C15.6907,13.1443 16.7367,12.6643 17.8657,12.4313 C18.1327,12.4043 18.4027,12.3143 18.6627,12.3703 C18.6437,11.8893 18.6017,11.3883 18.6517,10.9123" id="Fill-53" fill="#FEFEFE"></path>
                    <path d="M14.8557,14.711 C14.1587,15.546 13.6817,16.466 13.4947,17.514 C13.4387,17.756 13.4697,18.038 13.3727,18.268 C13.5517,18.185 13.8087,18.217 14.0047,18.241 C13.8907,18.181 13.9867,18.034 13.9187,17.953 C13.9037,17.828 13.8827,17.671 14.0047,17.589 C13.9917,17.381 14.2117,17.275 14.2337,17.088 C14.2887,16.876 14.5317,17.019 14.6477,16.907 C14.7237,16.866 14.6587,16.795 14.6587,16.74 C14.7587,16.602 14.9167,16.609 15.0367,16.532 C15.1237,16.4 15.2347,16.259 15.3757,16.179 C15.6807,16.19 15.6857,15.763 15.9737,15.753 C15.5787,15.455 15.2037,15.056 14.8557,14.711" id="Fill-55" fill="#FEFEFE"></path>
                    <path d="M13.6874,19.566 C13.7014,19.475 13.5664,19.451 13.5804,19.36 C13.6774,19.172 13.5854,18.869 13.8334,18.788 C13.6574,18.818 13.5004,18.853 13.3484,18.743 L13.4224,18.864 C13.4334,19.198 13.5664,19.517 13.4944,19.856 C13.5514,19.759 13.5664,19.628 13.6874,19.566" id="Fill-57" fill="#FEFEFE"></path>
                    <polygon id="Fill-59" fill="#FEFEFE" points="15.0819 23.2173 15.0619 23.1823 15.0819 23.2453"></polygon>
                    <path d="M13.4074,13.2548 L13.3994,13.3498 L12.8514,14.0448 C11.9574,15.2728 11.5314,16.6948 11.4054,18.2418 L12.7924,18.2168 L12.9234,18.2678 C12.8684,18.2308 12.8814,18.1708 12.8624,18.1208 C12.9744,16.6788 13.4804,15.3948 14.4754,14.3218 C14.0914,13.9888 13.7314,13.6358 13.4074,13.2548" id="Fill-61" fill="#FEFEFE"></path>
                    <path d="M17.6711,22.8092 C17.7831,22.6902 17.9131,22.6112 18.0511,22.5612 C17.6021,22.6522 17.2061,22.3292 16.8221,22.1512 C16.6051,21.9892 16.3211,21.8572 16.1911,21.6152 C15.8911,21.9792 15.5381,22.3582 15.1841,22.6472 C15.3401,22.6572 15.4261,22.8292 15.5591,22.9062 C16.3181,23.5372 17.2631,23.8412 18.1411,24.0592 L17.9011,23.9462 C17.7181,23.7402 17.4591,23.4962 17.4501,23.2092 C17.6311,23.1472 17.6121,22.9472 17.6711,22.8092" id="Fill-63" fill="#FEFEFE"></path>
                    <path d="M14.2117,18.7876 L14.1717,19.0546 C14.1117,19.2136 13.9137,19.0956 13.8247,19.2036 C13.7587,19.3036 13.8277,19.4096 13.8827,19.4896 C13.7417,19.8146 14.2027,19.9176 14.1977,20.2086 C14.3387,20.3906 14.1777,20.6536 14.3807,20.8156 C14.4247,21.1446 14.3347,21.5906 14.6237,21.8476 L14.6747,22.1626 C14.7337,22.3796 14.4157,22.3226 14.4567,22.5166 C14.5187,22.4856 14.5317,22.5666 14.5367,22.5856 L14.5367,22.5766 C14.9267,22.1266 15.3757,21.6506 15.8357,21.2526 L15.6437,21.0586 C15.2847,20.5226 15.0017,19.9506 14.8657,19.3236 L14.7187,19.2496 C14.7137,19.4096 14.6377,19.5366 14.6477,19.6986 L14.5967,19.7596 C14.4917,19.7546 14.4247,19.6676 14.3347,19.6126 C14.3137,19.5566 14.2577,19.4666 14.3457,19.4206 C14.3957,19.4166 14.4297,19.4316 14.4677,19.4546 C14.5127,19.4006 14.4917,19.3196 14.5187,19.2496 C14.5317,19.1266 14.4247,19.0156 14.5007,18.9096 C14.5967,18.8996 14.6687,19.0156 14.7077,19.0806 C14.8047,19.1116 14.8807,19.0316 14.9617,18.9956 C14.9617,18.9096 15.0817,18.7926 14.9517,18.7426 C15.0227,18.5456 14.9717,18.3376 14.9397,18.1466 C14.8857,17.9796 14.6987,18.0096 14.5617,18.0236 C14.1527,18.1546 14.6287,18.4646 14.5277,18.7166 C14.4697,18.8646 14.3187,18.7276 14.2117,18.7876" id="Fill-65" fill="#FEFEFE"></path>
                    <path d="M27.1747,18.7627 L27.0897,18.7017 L27.1397,18.8387 C27.0607,20.5227 26.4987,22.0087 25.5347,23.3317 C25.3507,23.5527 25.1747,23.8257 24.9407,23.9827 C25.3257,24.2857 25.7517,24.7407 26.0677,25.0907 L26.1077,25.0157 C27.6567,23.2497 28.5357,21.2047 28.6317,18.8387 L28.6937,18.7167 L28.6187,18.7547 L27.1747,18.7627 Z" id="Fill-67" fill="#FEFEFE"></path>
                    <path d="M13.4697,12.5708 L13.4947,12.5008 C14.9717,11.1558 16.6917,10.4168 18.6627,10.3258 L18.6187,10.2058 L18.6017,8.9898 L18.6437,8.8488 C16.6107,8.9298 14.8047,9.6228 13.2027,10.7758 C12.8937,10.9888 12.6207,11.3118 12.3057,11.4948 L12.3507,11.4948 C12.7507,11.7868 13.1317,12.2078 13.4697,12.5708" id="Fill-69" fill="#FEFEFE"></path>
                    <path d="M18.5935,12.9153 C17.3085,13.0073 16.1935,13.5433 15.2195,14.3483 C15.6045,14.6143 15.9465,15.0443 16.2965,15.3523 C16.3215,15.3183 16.3475,15.2833 16.3725,15.2413 C16.8535,14.8993 17.3505,14.5853 17.9165,14.4433 C18.1665,14.4173 18.4165,14.2983 18.6785,14.3573 C18.6245,13.8813 18.6245,13.3563 18.6785,12.8653 L18.5935,12.9153 Z" id="Fill-71" fill="#FEFEFE"></path>
                    <path d="M18.6625,14.9179 C17.8495,15.0259 17.1005,15.3029 16.5055,15.9359 L16.6135,15.9359 C16.7375,16.0569 16.9325,16.0309 17.0245,16.1939 C17.0705,16.2849 16.9385,16.2749 16.9435,16.3499 C16.9705,16.3719 17.0055,16.3749 17.0245,16.4119 C17.1205,16.4449 17.1005,16.3559 17.1375,16.3149 C17.2625,16.1899 17.2835,16.4369 17.4045,16.4369 C17.4905,16.3809 17.6115,16.3749 17.6705,16.4719 C17.7535,16.3999 17.9255,16.4659 17.9505,16.3359 C18.1095,16.1689 18.0225,15.9109 18.2545,15.8049 C18.3355,15.8499 18.2495,15.9259 18.2795,15.9959 C18.4355,16.0619 18.6135,15.8649 18.7395,16.0229 C18.6245,15.6919 18.6515,15.2829 18.6625,14.9179" id="Fill-73" fill="#FEFEFE"></path>
                    <path d="M18.7143,17.185 C18.5633,17.437 18.3103,17.493 18.0723,17.564 C18.0063,17.644 18.0223,17.822 17.8653,17.806 C17.8153,17.919 17.6423,17.984 17.7093,18.146 C17.6263,18.318 17.6663,18.54 17.6233,18.728 C17.3233,18.915 17.4083,18.479 17.2593,18.388 L17.2063,18.475 C17.1483,18.489 17.1073,18.454 17.0653,18.415 C17.0203,18.397 16.9443,18.382 16.9033,18.424 C16.8373,18.536 16.7373,18.626 16.7613,18.778 C16.7323,18.868 16.5813,18.839 16.6003,18.935 C16.7683,18.93 16.9483,18.9 17.1113,18.864 C17.2283,18.894 17.3233,18.808 17.4403,18.804 C17.4783,18.824 17.5283,18.864 17.5103,18.925 L17.5523,18.925 C17.6313,18.864 17.6663,18.771 17.6313,18.683 C17.6423,18.576 17.7593,18.576 17.8283,18.545 C17.8943,18.576 17.8543,18.641 17.8653,18.693 C18.0923,18.778 17.8103,18.945 17.7783,19.066 C17.7183,19.163 17.7783,19.38 17.5863,19.349 C17.5523,19.34 17.5283,19.304 17.5373,19.262 L17.5103,19.262 C17.5073,19.345 17.5673,19.455 17.6483,19.49 C17.7883,19.374 17.7933,19.177 17.9983,19.151 C18.1023,19.04 17.9513,18.868 18.1093,18.778 C18.3713,18.771 18.6513,18.661 18.8613,18.873 C18.8453,18.964 18.8123,19.007 18.8873,19.081 C18.8353,19.198 18.8023,19.324 18.7053,19.42 C18.7303,19.486 18.7103,19.566 18.6513,19.612 C18.5833,19.921 18.2283,19.774 18.0223,19.88 C18.3413,20.123 18.7243,20.214 19.1393,20.184 C19.3563,20.174 19.2603,19.906 19.3723,19.785 C19.4423,19.431 19.7673,19.673 19.9643,19.577 C20.0393,19.426 20.1163,19.278 20.1353,19.106 C20.0093,19.026 19.9593,18.873 19.9993,18.728 C19.9143,18.611 19.9223,18.398 19.7353,18.378 C19.7063,18.338 19.7303,18.285 19.7563,18.258 C19.7523,18.146 19.8623,18.11 19.8923,18.024 C19.7773,17.948 19.8073,17.782 19.8173,17.684 C19.6193,17.741 19.5993,17.483 19.4533,17.428 C19.4173,17.311 19.2903,17.29 19.1903,17.271 C18.9463,17.387 18.9073,17.088 18.7243,17.019 C18.7053,16.962 18.6623,16.881 18.7243,16.836 C18.8173,16.76 18.9373,16.825 19.0423,16.819 L18.9573,16.775 C18.8773,16.684 18.7003,16.74 18.5933,16.775 C18.6943,16.876 18.6513,17.058 18.7143,17.185" id="Fill-75" fill="#FEFEFE"></path>
                    <path d="M10.9198,18.2579 L10.8858,18.0599 C10.9818,16.4449 11.4968,15.0099 12.4028,13.7249 C12.6288,13.4669 12.7958,13.1449 13.0798,12.9509 C12.7508,12.6429 12.4088,12.2829 12.0628,11.9449 L12.0278,11.8069 C10.5858,13.4109 9.6978,15.2419 9.4378,17.3319 C9.3808,17.6359 9.4198,17.9479 9.3578,18.2579 C9.8648,18.2169 10.4128,18.2169 10.9198,18.2579" id="Fill-77" fill="#FEFEFE"></path>
                    <path d="M24.6032,24.3018 C24.4592,24.5788 24.1462,24.7548 23.9082,24.9688 C23.5802,25.2988 23.0432,25.3678 22.8762,25.8448 C22.7012,26.0048 22.6402,26.2578 22.3932,26.3498 C22.3002,26.5918 22.0412,26.5778 21.8962,26.7528 C21.4712,27.1328 21.1972,26.5118 20.8132,26.4358 L20.0392,26.5728 C19.7702,26.5728 19.5032,26.6688 19.2492,26.5818 C19.2872,27.0968 19.2872,27.6538 19.2492,28.1698 L19.3462,28.1088 C21.7842,28.0038 23.8882,27.0778 25.6932,25.4388 L24.6272,24.4218 L24.6032,24.3018 Z" id="Fill-79" fill="#FEFEFE"></path>
                    <path d="M19.4302,9.9529 C19.4742,9.8719 19.5902,9.9019 19.6502,9.9269 L20.3792,9.6139 C20.6712,9.6379 20.9942,9.6739 21.1682,9.9179 L21.1682,9.9529 C20.9852,10.1029 20.7532,10.2249 20.5112,10.1229 C20.1762,10.1899 19.7102,10.3819 19.4422,10.0379 C19.4302,10.0129 19.4012,9.9769 19.4302,9.9529 M23.7762,10.8719 C23.8772,10.9039 23.9702,10.9479 24.0062,11.0559 C23.9782,11.1689 24.1122,11.2659 24.0292,11.3579 C23.7562,11.4289 23.7322,11.1209 23.5192,11.0449 C23.4902,11.0029 23.4802,10.9529 23.4842,10.8979 C23.5802,10.7819 23.6702,10.9739 23.7762,10.8719 M19.2242,10.1939 C19.2242,10.1489 19.2452,10.1089 19.2722,10.0749 C19.3422,10.0319 19.4012,10.0949 19.4302,10.1439 C19.4372,10.2149 19.4672,10.3369 19.4072,10.3769 C19.4672,10.3879 19.4992,10.3419 19.5532,10.3419 C20.7112,10.4279 21.7842,10.7659 22.7462,11.3129 L22.7462,11.2879 C22.9432,11.1909 23.1962,11.0649 23.3982,11.2369 C23.6412,11.1459 23.6862,11.4439 23.8832,11.4789 C24.1222,11.6209 24.3902,11.8849 24.4202,12.1629 C24.4632,12.2539 24.6082,12.3189 24.6272,12.4149 C24.7892,12.0719 25.1122,11.8279 25.3922,11.5299 L25.5622,11.4589 C24.0362,10.0029 22.2202,9.1979 20.1952,8.9199 C19.8742,8.8639 19.5172,8.8949 19.2102,8.7989 C19.2722,9.1979 19.2552,9.7439 19.2242,10.1939" id="Fill-81" fill="#FEFEFE"></path>
                    <path d="M19.2246,12.37 C19.4166,12.303 19.6136,12.385 19.8066,12.39 C20.7986,12.553 21.7356,12.87 22.5266,13.482 C22.4326,13.38 22.3156,13.265 22.2946,13.118 C22.3116,13.098 22.3306,13.093 22.3556,13.098 C22.3666,12.94 22.1986,12.86 22.1756,12.718 C22.1986,12.689 22.2356,12.658 22.2866,12.673 C22.4566,12.835 22.6016,13.012 22.7306,13.193 C22.8426,13.149 22.9326,13.219 23.0146,13.279 C23.1606,13.365 23.0706,13.553 23.1816,13.654 C23.2016,13.953 23.5656,14.12 23.5456,14.418 C23.5486,14.489 23.6366,14.433 23.6666,14.469 L23.9696,14.842 C23.9136,14.914 23.9606,15 24.0216,15.049 C24.1576,15.111 24.2336,14.938 24.3686,14.964 C24.5656,15.075 24.3386,15.206 24.3586,15.329 C24.4346,15.332 24.5316,15.268 24.5926,15.344 C24.6176,15.455 24.5006,15.526 24.4536,15.597 C24.4536,15.707 24.5456,15.683 24.6276,15.707 C24.7176,15.703 24.7736,15.815 24.7496,15.891 C25.0016,16.154 24.6726,16.436 24.7946,16.715 C24.8736,16.896 24.7736,17.073 24.6616,17.209 C24.6676,17.433 24.4636,17.569 24.3856,17.756 L24.1266,17.806 C23.9886,17.943 24.2446,18.11 24.1056,18.197 L24.6726,18.207 L24.6116,18.147 C24.5316,17.925 24.5506,17.625 24.6886,17.427 C24.7736,17.246 24.7946,17.027 24.9566,16.871 C24.9906,16.862 25.0556,16.795 25.0876,16.871 C25.0976,17.043 25.0836,17.24 25.0016,17.393 C25.1646,17.625 25.1426,17.928 25.1576,18.216 C25.6576,18.185 26.1496,18.176 26.6416,18.181 L26.5966,18.084 C26.5196,17.149 26.3276,16.264 25.9376,15.465 C25.8316,15.471 25.7556,15.556 25.6346,15.526 C25.5936,15.511 25.5676,15.471 25.5736,15.426 C25.3716,15.233 25.2426,14.98 25.0176,14.807 C24.7576,14.833 24.6416,14.533 24.4096,14.504 C24.2026,14.418 24.3446,14.084 24.0456,14.176 C23.8986,14.115 23.7556,14.004 23.7266,13.837 C23.7266,13.573 23.6766,13.29 23.4406,13.118 C23.2566,13.052 23.1816,13.294 22.9986,13.255 C22.8976,13.204 22.9426,13.072 22.9106,12.987 C22.8766,12.91 22.7906,12.855 22.8056,12.754 C23.0436,12.441 22.5176,12.447 22.6336,12.137 C22.6016,11.914 22.3766,11.828 22.2596,11.651 C21.4756,11.297 20.6916,11.056 19.8066,10.948 C19.5896,10.917 19.3876,10.964 19.2006,10.863 L19.2496,10.958 C19.2386,11.429 19.2716,11.929 19.2246,12.37" id="Fill-83" fill="#FEFEFE"></path>
                    <path d="M24.757,12.8904 C24.864,12.9154 24.895,13.0424 24.967,13.1184 C25.335,13.3144 25.431,13.7104 25.755,13.9324 C25.937,14.3134 26.357,14.6054 26.372,15.0404 C26.811,16.0124 27.11,17.0384 27.14,18.1814 L27.101,18.2414 C27.145,18.2414 27.186,18.2214 27.22,18.1974 L28.679,18.1704 C28.583,18.0294 28.623,17.8224 28.598,17.6504 C28.404,15.3994 27.444,13.4724 25.937,11.7734 C25.658,12.1474 25.28,12.4964 24.93,12.8554 L24.757,12.8904 Z" id="Fill-85" fill="#FEFEFE"></path>
                </g>
            </g>
        </g>
    </g>
</svg>