<?xml version="1.0" encoding="UTF-8"?>
<svg width="1035px" height="265px" viewBox="0 0 1035 265" version="1.1" xmlns="http://www.w3.org/2000/svg" xmlns:xlink="http://www.w3.org/1999/xlink">
    <!-- Generator: Sketch 46.2 (44496) - http://www.bohemiancoding.com/sketch -->
    <title>WITH UNDP LOGO</title>
    <desc>Created with Sketch.</desc>
    <defs></defs>
    <g id="Page-1" stroke="none" stroke-width="1" fill="none" fill-rule="evenodd">
        <g id="LOGO-Copy" transform="translate(-242.000000, -451.000000)">
            <g id="WITH-UNDP-LOGO" transform="translate(242.000000, 451.000000)">
                <path d="M197,1.325 L197,263.675" id="Line-2" stroke="#E6E6E6" stroke-linecap="square"></path>
                <g id="Page-1" transform="translate(266.000000, 2.000000)">
                    <path d="M122.411703,145.987889 C111.105254,135.907505 96.5665007,130.871283 78.7927952,130.871283 C62.6524493,130.871283 48.9634664,136.182737 37.7258466,146.800354 C26.3532164,157.492071 20.6695486,170.801141 20.6695486,186.732859 C20.6695486,203.209747 26.5252884,217.167202 38.2394151,228.599929 C49.884713,239.971788 64.0131411,245.65904 80.6299938,245.65904 C92.6856171,245.65904 104.704179,242.591788 116.690973,236.465222 C120.23036,234.697384 123.295888,232.754879 125.884908,230.643 L133.238997,244.738071 C123.229706,253.312616 110.321665,258.864899 94.5228158,261.384333 C89.4162507,262.202091 84.1720281,262.607 78.7927952,262.607 C68.0978637,262.607 58.0197438,260.823283 48.5557884,257.247909 C39.0891856,253.672535 30.7979664,248.668071 23.6821308,242.231869 C16.5636479,235.803606 10.9488089,228.126212 6.82702466,219.207626 C2.70524041,210.28904 0.645671918,201.301646 0.645671918,192.248091 C0.645671918,183.191889 1.58015479,175.345121 3.45441507,168.707788 C5.32867534,162.067808 7.99976096,155.941242 11.4729664,150.325444 C14.9461719,144.707 19.1023705,139.654899 23.9362678,135.161202 C28.7701651,130.667505 34.1520452,126.853949 40.0766137,123.723182 C52.4710863,117.186414 65.9879973,113.920677 80.6299938,113.920677 C100.450032,113.920677 117.540744,119.570879 131.910073,130.871283 L122.411703,145.987889 Z" id="Fill-1" fill="#E6E6E6"></path>
                    <path d="M332.063598,230.491093 C328.248896,230.491093 325.183368,229.334588 322.869663,227.018931 C320.55331,224.705921 319.396458,221.641315 319.396458,217.82776 C319.396458,214.016851 320.55331,210.973416 322.869663,208.689517 C325.183368,206.408265 328.248896,205.270285 332.063598,205.270285 C335.875653,205.270285 338.94118,206.408265 341.257533,208.689517 C343.571238,210.973416 344.730738,214.016851 344.730738,217.82776 C344.730738,221.641315 343.571238,224.705921 341.257533,227.018931 C338.94118,229.334588 335.875653,230.491093 332.063598,230.491093 M344.730738,158.597234 C344.730738,162.413436 343.571238,165.475396 341.257533,167.791053 C338.94118,170.101416 335.875653,171.263214 332.063598,171.263214 C328.248896,171.263214 325.183368,170.101416 322.869663,167.791053 C320.55331,165.475396 319.396458,162.413436 319.396458,158.597234 C319.396458,154.788972 320.55331,151.740244 322.869663,149.456345 C325.183368,147.180386 328.248896,146.037113 332.063598,146.037113 C335.875653,146.037113 338.94118,147.180386 341.257533,149.456345 C343.571238,151.740244 344.730738,154.788972 344.730738,158.597234" id="Fill-4" fill="#E6E6E6"></path>
                    <polygon id="Fill-6" fill="#E6E6E6" points="375.886874 115.961895 394.783018 115.961895 394.783018 243.410339 473.644901 243.410339 473.644901 260.56737 375.886874 260.56737"></polygon>
                    <path d="M586.720241,211.753859 L573.642776,181.420081 C572.009416,177.609172 570.410471,173.660646 568.843293,169.577152 L564.755923,158.035919 C562.166902,150.546424 560.636786,145.44404 560.157632,142.715535 L558.934598,142.715535 C558.386615,145.44404 557.16358,149.323758 555.257553,154.35998 L550.047745,167.634646 C548.480567,171.448202 546.778378,175.327919 544.938533,179.279091 L529.716786,211.753859 L586.720241,211.753859 Z M555.051067,115.962424 L565.777765,115.962424 L628.39606,260.565253 L607.763313,260.565253 L594.07433,228.908242 L521.647937,228.908242 L506.836515,260.565253 L487.42945,260.565253 L555.051067,115.962424 Z" id="Fill-8" fill="#E6E6E6"></path>
                    <path d="M748.842961,216.754883 C748.842961,198.443994 733.825053,189.28458 703.791886,189.28458 L664.260348,189.28458 L664.260348,243.410075 L704.40605,243.410075 C725.038797,243.410075 738.592769,239.016943 745.062673,230.235974 C747.580218,226.763812 748.842961,222.267469 748.842961,216.754883 L748.842961,216.754883 Z M700.421923,172.130196 C715.813095,172.130196 726.43655,168.658034 732.29229,161.713711 C734.470985,159.128115 735.561656,155.756519 735.561656,151.604216 C735.561656,147.451913 734.285677,144.133246 731.731071,141.64557 C729.176464,139.163186 725.922982,137.270964 721.975916,135.976842 C715.982519,134.071388 707.19891,133.116014 695.619793,133.116014 L664.260348,133.116014 L664.260348,172.130196 L700.421923,172.130196 Z M645.364204,115.96163 L698.584725,115.96163 C715.813095,115.96163 728.988509,118.073509 738.116262,122.29462 C749.76156,127.809853 755.582886,137.305368 755.582886,150.786459 C755.582886,156.640438 753.507434,162.325044 749.351235,167.840277 C745.608009,172.879145 741.3168,176.144883 736.480255,177.642782 C746.219526,179.482075 754.015708,183.734943 759.874095,190.406681 C765.867492,197.287489 768.86419,205.660903 768.86419,215.52957 C768.86419,236.500156 757.454499,250.219428 734.643057,256.687388 C725.311464,259.272984 714.380927,260.567105 701.851444,260.567105 L645.364204,260.567105 L645.364204,115.96163 Z" id="Fill-10" fill="#E6E6E6"></path>
                    <g id="Group" transform="translate(140.000000, 114.000000)">
                        <path d="M54.0259171,18.6481192 C54.0259171,24.0072101 49.6791158,28.3527051 44.3184137,28.3527051 C38.9603589,28.3527051 34.6135575,24.0072101 34.6135575,18.6481192 C34.6135575,13.2890283 38.9603589,8.94353333 44.3184137,8.94353333 C49.6791158,8.94353333 54.0259171,13.2890283 54.0259171,18.6481192" id="Fill-13" fill="#03699C"></path>
                        <path d="M78.1914325,10.3702424 C78.1914325,15.7293333 73.8446312,20.0748283 68.4839291,20.0748283 C63.1258743,20.0748283 58.7790729,15.7293333 58.7790729,10.3702424 C58.7790729,5.01115152 63.1258743,0.665656566 68.4839291,0.665656566 C73.8446312,0.665656566 78.1914325,5.01115152 78.1914325,10.3702424" id="Fill-15" fill="#17486A"></path>
                        <path d="M102.819424,10.2876727 C102.819424,15.6467636 98.4726229,19.9922586 93.1119209,19.9922586 C87.7538661,19.9922586 83.4070647,15.6467636 83.4070647,10.2876727 C83.4070647,4.92858182 87.7538661,0.583086869 93.1119209,0.583086869 C98.4726229,0.583086869 102.819424,4.92858182 102.819424,10.2876727" id="Fill-17" fill="#E7223B"></path>
                        <path d="M126.252972,19.0797576 C126.252972,24.4388485 121.908818,28.7843434 116.548116,28.7843434 C111.187414,28.7843434 106.840613,24.4388485 106.840613,19.0797576 C106.840613,13.7206667 111.187414,9.37517172 116.548116,9.37517172 C121.908818,9.37517172 126.252972,13.7206667 126.252972,19.0797576" id="Fill-19" fill="#E4B633"></path>
                        <path d="M145.272478,35.0064465 C145.272478,40.3655374 140.928324,44.7110323 135.567622,44.7110323 C130.20692,44.7110323 125.860119,40.3655374 125.860119,35.0064465 C125.860119,29.6473556 130.20692,25.3045071 135.567622,25.3045071 C140.928324,25.3045071 145.272478,29.6473556 145.272478,35.0064465" id="Fill-21" fill="#4B9E46"></path>
                        <path d="M156.758676,56.4081414 C156.758676,61.7672323 152.411875,66.1127273 147.051173,66.1127273 C141.693118,66.1127273 137.346316,61.7672323 137.346316,56.4081414 C137.346316,51.0490505 141.693118,46.706202 147.051173,46.706202 C152.411875,46.706202 156.758676,51.0490505 156.758676,56.4081414" id="Fill-23" fill="#C4202E"></path>
                        <path d="M159.347697,80.050598 C159.347697,85.4096889 155.003542,89.7525374 149.64284,89.7525374 C144.282138,89.7525374 139.935337,85.4096889 139.935337,80.050598 C139.935337,74.6915071 144.282138,70.3460121 149.64284,70.3460121 C155.003542,70.3460121 159.347697,74.6915071 159.347697,80.050598" id="Fill-25" fill="#EE402B"></path>
                        <path d="M152.094998,103.244743 C152.094998,108.603834 147.748196,112.946683 142.387494,112.946683 C137.029439,112.946683 132.682638,108.603834 132.682638,103.244743 C132.682638,97.8856525 137.029439,93.5401576 142.387494,93.5401576 C147.748196,93.5401576 152.094998,97.8856525 152.094998,103.244743" id="Fill-27" fill="#27BCE1"></path>
                        <path d="M136.992113,121.974038 C136.992113,127.333129 132.645312,131.678624 127.28461,131.678624 C121.926555,131.678624 117.579753,127.333129 117.579753,121.974038 C117.579753,116.614947 121.926555,112.272099 127.28461,112.272099 C132.645312,112.272099 136.992113,116.614947 136.992113,121.974038" id="Fill-29" fill="#F9C213"></path>
                        <path d="M115.366644,134.467204 C115.366644,139.826295 111.019842,144.17179 105.65914,144.17179 C100.301086,144.17179 95.9542842,139.826295 95.9542842,134.467204 C95.9542842,129.108113 100.301086,124.765265 105.65914,124.765265 C111.019842,124.765265 115.366644,129.108113 115.366644,134.467204" id="Fill-31" fill="#A11C43"></path>
                        <path d="M90.5718747,139.028651 C90.5718747,144.387741 86.2250733,148.733236 80.8643712,148.733236 C75.5063164,148.733236 71.1595151,144.387741 71.1595151,139.028651 C71.1595151,133.66956 75.5063164,129.326711 80.8643712,129.326711 C86.2250733,129.326711 90.5718747,133.66956 90.5718747,139.028651" id="Fill-33" fill="#F16A2B"></path>
                        <path d="M65.1785599,134.915515 C65.1785599,140.274606 60.8317586,144.617455 55.4710565,144.617455 C50.1130017,144.617455 45.7662003,140.274606 45.7662003,134.915515 C45.7662003,129.556424 50.1130017,125.210929 55.4710565,125.210929 C60.8317586,125.210929 65.1785599,129.556424 65.1785599,134.915515" id="Fill-36" fill="#DC1768"></path>
                        <path d="M43.5377366,122.422349 C43.5377366,127.78144 39.1909353,132.124289 33.8302332,132.124289 C28.4721784,132.124289 24.1253771,127.78144 24.1253771,122.422349 C24.1253771,117.063259 28.4721784,112.717764 33.8302332,112.717764 C39.1909353,112.717764 43.5377366,117.063259 43.5377366,122.422349" id="Fill-38" fill="#F89D28"></path>
                        <path d="M27.6038771,103.376537 C27.6038771,108.735628 23.2570757,113.081123 17.8963736,113.081123 C12.5383188,113.081123 8.19151747,108.735628 8.19151747,103.376537 C8.19151747,98.0174465 12.5383188,93.6719515 17.8963736,93.6719515 C23.2570757,93.6719515 27.6038771,98.0174465 27.6038771,103.376537" id="Fill-40" fill="#C6972D"></path>
                        <path d="M20.2839377,80.050598 C20.2839377,85.4096889 15.9397836,89.7525374 10.5790815,89.7525374 C5.21837945,89.7525374 0.871578082,85.4096889 0.871578082,80.050598 C0.871578082,74.6915071 5.21837945,70.3460121 10.5790815,70.3460121 C15.9397836,70.3460121 20.2839377,74.6915071 20.2839377,80.050598" id="Fill-42" fill="#407F44"></path>
                        <path d="M22.9904966,55.7944263 C22.9904966,61.1535172 18.6436952,65.4990121 13.2829932,65.4990121 C7.92493836,65.4990121 3.57813699,61.1535172 3.57813699,55.7944263 C3.57813699,50.4353354 7.92493836,46.0898404 13.2829932,46.0898404 C18.6436952,46.0898404 22.9904966,50.4353354 22.9904966,55.7944263" id="Fill-44" fill="#1995D3"></path>
                        <path d="M34.8735185,34.3924667 C34.8735185,39.7515576 30.5267171,44.0970525 25.1660151,44.0970525 C19.8079603,44.0970525 15.4611589,39.7515576 15.4611589,34.3924667 C15.4611589,29.0333758 19.8079603,24.6878808 25.1660151,24.6878808 C30.5267171,24.6878808 34.8735185,29.0333758 34.8735185,34.3924667" id="Fill-46" fill="#5EBA47"></path>
                    </g>
                    <polygon id="Fill-48" fill="#E6E6E6" points="32.8882432 52.3702606 0.647260274 2.23563434 13.1846849 2.23563434 38.6936849 42.1813717 64.0147295 2.23563434 75.8109212 2.23563434 44.3138185 52.1850081 44.3138185 89.6642404 32.8882432 89.6642404"></polygon>
                    <path d="M96.0516086,20.8815657 C92.8590127,23.885303 90.3467627,27.4474444 88.5148586,31.562697 C86.6829545,35.680596 85.7670024,40.208697 85.7670024,45.147 C85.7670024,50.0879495 86.7147216,54.7166162 88.6075127,59.0382929 C90.502951,63.3626162 93.0972661,67.1285354 96.3904579,70.338697 C103.43217,77.2142121 111.974879,80.6493232 122.021232,80.6493232 C131.78168,80.6493232 140.057016,77.4391616 146.849886,71.0188384 C153.727468,64.5138283 157.163612,56.4685758 157.163612,46.8777879 C157.163612,40.3727778 155.517016,34.3414848 152.223824,28.7865556 C149.134472,23.5174444 144.790317,19.2778081 139.191362,16.065 C133.671824,12.8548384 128.03316,11.2510808 122.267427,11.2510808 C116.504341,11.2510808 111.493078,12.1058889 107.230989,13.8128586 C102.9689,15.5198283 99.2415572,17.8778283 96.0516086,20.8815657 M87.5909647,78.5824343 C83.2865195,74.6921313 79.8900846,70.0502323 77.3990127,64.6593838 C74.9079408,59.2658889 73.6610812,53.832697 73.6610812,48.3571616 C73.6610812,42.8842727 74.2275949,38.1391616 75.3606223,34.1244747 C76.4936497,30.1124343 78.1084784,26.4073838 80.2104031,23.0119697 C82.3096805,19.6165556 84.8192832,16.5598889 87.7445058,13.8419697 C90.6670812,11.126697 93.920564,8.82162626 97.5023072,6.92940404 C104.996701,2.97558586 113.168793,0.998676768 122.021232,0.998676768 C130.503054,0.998676768 138.407773,2.89354545 145.738037,6.68063636 C152.861814,10.3856869 158.542835,15.5304141 162.783746,22.1174646 C167.106722,28.9903333 169.269533,36.6253838 169.269533,45.0226162 C169.269533,58.3184545 164.575941,69.3303939 155.188756,78.0557879 C149.298602,83.5313232 142.196002,87.2972424 133.880958,89.3561919 C129.722112,90.3830202 124.904098,90.8990808 119.426917,90.8990808 C113.952383,90.8990808 108.35078,89.8193232 102.627403,87.6571616 C96.9040264,85.4976465 91.8927627,82.4700909 87.5909647,78.5824343" id="Fill-50" fill="#E6E6E6"></path>
                    <path d="M183.324632,2.2348404 L194.750208,2.2348404 L194.750208,47.4946788 C194.750208,63.3814061 200.039434,73.6523354 210.62318,78.3021737 C214.247279,79.8688808 218.527899,80.6495879 223.470334,80.6495879 C228.410122,80.6495879 232.621913,79.9297495 236.100413,78.4874263 C239.578913,77.0477495 242.45119,74.9676283 244.714598,72.2523556 C249.119639,67.0255879 251.324807,59.3905374 251.324807,49.3445576 L251.324807,2.2348404 L262.750382,2.2348404 L262.750382,47.4946788 C262.750382,68.4440929 255.195101,81.9251838 240.081892,87.9353051 C235.06004,89.9122141 229.254598,90.896699 222.665567,90.896699 C216.079184,90.896699 210.345218,89.9413253 205.466317,88.0279313 C200.587416,86.1145374 196.521225,83.3675071 193.267742,79.7841939 C186.639002,72.5408202 183.324632,62.3942747 183.324632,49.3445576 L183.324632,2.2348404 Z" id="Fill-53" fill="#E6E6E6"></path>
                    <polygon id="Fill-55" fill="#E6E6E6" points="309.66407 12.6087172 276.806275 12.6087172 276.806275 2.23457576 353.94744 2.23457576 353.94744 12.6087172 321.089645 12.6087172 321.089645 89.6631818 309.66407 89.6631818"></polygon>
                    <polygon id="Fill-57" fill="#E6E6E6" points="368.000686 2.2348404 379.426261 2.2348404 379.426261 49.7150626 433.096816 49.7150626 433.096816 2.2348404 444.522391 2.2348404 444.522391 89.6634465 433.096816 89.6634465 433.096816 60.089204 379.426261 60.089204 379.426261 89.6634465 368.000686 89.6634465"></polygon>
                </g>
                <g id="logo-white" fill="#FEFEFE">
                    <path d="M46.9983757,168.911927 C46.9983757,181.825018 40.1896288,187.075782 31.0868627,187.075782 C22.4651992,187.075782 15.97566,182.212945 15.97566,169.102836 L15.97566,144.324364 L21.4770297,144.324364 L21.4770297,169.287636 C21.4770297,178.648291 25.64964,182.651273 31.2716672,182.651273 C37.4465805,182.651273 41.5031152,178.541382 41.5031152,169.287636 L41.5031152,144.324364 L46.9983757,144.324364 L46.9983757,168.911927 Z M3.55271368e-15,197 L63,197 L63,134 L3.55271368e-15,134 L3.55271368e-15,197 Z" id="Fill-1"></path>
                    <path d="M114.302315,186.541236 L108.809577,186.541236 L95.4565402,165.191491 C92.526876,160.511927 89.7194084,155.708655 87.6512305,151.154327 L87.4541884,151.216945 C87.7749545,156.522691 87.8391078,161.5688 87.8391078,168.571345 L87.8391078,186.541236 L82.719069,186.541236 L82.719069,144.475564 L88.7128137,144.475564 L102.131531,165.759636 C105.197139,170.683564 107.679258,175.062255 109.61913,179.430255 L109.813117,179.370691 C109.313638,173.747273 109.194496,168.640073 109.194496,162.132364 L109.194496,144.475564 L114.302315,144.475564 L114.302315,186.541236 Z M67,197 L130,197 L130,134 L67,134 L67,197 Z" id="Fill-3"></path>
                    <path d="M109.571778,232.324364 C106.706267,235.354473 102.029191,236.938255 96.7243302,236.938255 C95.0975876,236.938255 93.6067887,236.878691 92.3512183,236.5656 L92.3512183,253.417527 L86.9195781,253.417527 L86.9195781,211.915418 C89.5422233,211.417527 92.9759486,211.035709 97.3429507,211.035709 C102.716547,211.035709 106.640587,212.288073 109.147145,214.537745 C111.447497,216.526255 112.884835,219.577745 112.884835,223.330255 C112.884835,227.128582 111.76368,230.126618 109.571778,232.324364 L109.571778,232.324364 Z M67,264 L130,264 L130,201 L67,201 L67,264 Z" id="Fill-5"></path>
                    <path d="M97.4838611,233 C95.7390378,233 94.181486,232.874867 93,232.568819 L93,216.432689 C93.9348356,216.250266 95.7390378,216 98.0989647,216 C104.073386,216 108,218.641362 108,224.192444 C108,229.796293 104.073386,233 97.4838611,233" id="Fill-7"></path>
                    <path d="M44.2435636,247.615357 C40.2375273,251.556102 33.7466182,253.653251 25.5787636,253.653251 C21.6445091,253.653251 18.4586182,253.543277 15.6499636,253.167531 L15.6499636,211.786646 C19.0313455,211.282597 22.9518545,210.906852 27.2633455,210.906852 C35.0677091,210.906852 40.6132364,212.660331 44.2985455,216.093973 C48.1014545,219.527615 50.2808727,224.453547 50.2808727,231.264317 C50.2808727,238.119381 48.1014545,243.752509 44.2435636,247.615357 L44.2435636,247.615357 Z M-7.10542736e-15,264 L63,264 L63,201 L-7.10542736e-15,201 L-7.10542736e-15,264 Z" id="Fill-9"></path>
                    <path d="M26.3948505,248.999638 C24.3008559,248.999638 22.3434589,248.999638 21,248.742112 L21,215.554673 C22.409506,215.24686 24.4974963,215 27.2504611,215 C38.5355156,215 44.0654625,221.162358 43.9994154,231.184572 C43.9994154,242.515753 37.7969885,249.05602 26.3948505,248.999638" id="Fill-11"></path>
                    <path d="M67.2454268,54.4129971 C67.6448171,54.6520817 67.8643293,54.2129467 68.2027439,54.1169876 C68.679878,54.1755389 69.0579268,54.6179267 69.3536585,54.9464647 C69.660061,55.0960959 69.9603659,54.8960455 70.2347561,54.7854486 C70.4268293,53.2549819 72.2240854,53.4761758 72.7560976,52.0384154 L72.4314024,52.1685294 C72.2926829,51.9603469 71.9496951,52.056306 71.9679878,51.7261416 C72.2591463,51.422 72.6417683,50.9633479 73,50.8381131 C71.4527439,49.8037063 69.839939,48.9173042 68.0731707,48.4423878 C67.3871951,48.2732395 66.6570122,48.2537224 66,48 C66.3307927,49.0474182 66.0396341,50.5974021 66.2484756,51.8172214 L67.4817073,52.2514771 C67.8521341,51.6122918 68.6417683,51.487057 68.9908537,50.8755209 C69.2134146,50.6705912 69.4695122,50.8755209 69.6509146,51.0934619 C69.7057927,51.5960275 69.5823171,52.0872081 69.4405488,52.5670037 C68.972561,53.5656292 67.8643293,53.6876111 67.2454268,54.4129971" id="Fill-13"></path>
                    <path d="M79.1032309,47 L79.0228526,47.2111747 C77.3727344,48.8851583 75.5650118,50.6161744 74,52.3317764 C74.0977147,52.5398683 74.2758077,52.7340874 74.4854216,52.8358212 C74.5500394,52.4165546 74.78487,52.0466134 74.8274232,51.6119326 C75.2466509,51.0369825 75.8959811,51.4007579 76.4444444,51.525613 C77.3018125,51.3329354 78.107171,51.7182907 78.9818755,51.7044179 C79.6296296,52.015785 79.6847912,52.8188655 80.2726556,53.1333155 C80.4334121,53.3568216 80.3073286,53.6234875 80.0914106,53.7976681 C80.2726556,55.1094176 80.9125296,53.4493069 81.5949567,53.7622154 C81.8770686,53.867032 82.2364066,53.8315794 82.4460205,54.1259908 C82.5531915,54.671654 83.2340426,54.5714616 83.2718676,55.0878377 C83.21513,55.3498794 82.9314421,55.4192433 82.7454689,55.5656784 C82.9141056,56.0851373 82.2033097,56.4150015 82.4460205,56.9791617 C83.4814815,57.170298 83.5208826,55.9972763 84,55.4747345 C83.7352246,54.5714616 83.5382191,53.6419845 83.0070922,52.8358212 C82.4192277,52.7140489 82.0630418,52.0296578 81.4704492,51.9109684 C80.3246651,51.467039 81.643814,50.771858 81.4956659,50.1090468 C80.8983452,48.9899749 79.9306541,47.9942168 79.1032309,47" id="Fill-15"></path>
                    <path d="M86.0515021,65.5268554 C85.297711,67.8743422 84.4211731,70.1616766 82.9214592,72.2084014 C82.3376252,72.941027 81.7569385,73.9605335 81,74.3399565 L82.6224607,75.7419706 C82.7058655,75.6525132 82.6602289,75.5152422 82.679113,75.393395 C82.679113,75.1836327 82.7798283,74.9368536 83.048927,74.9692433 C83.8310443,74.9522773 83.8483548,75.7759027 84.2984263,76.1985121 C84.202432,76.8648158 84.7957082,77.3876792 84.5958512,78 C89.0997139,73.3451279 91.3453505,67.6460715 91.7608011,61.3331519 L92,61.0524406 C90.3964235,61.2082199 88.7031474,61.100254 87.0460658,61.1218472 L86.6526466,61 C86.7643777,62.0673199 86.4748212,63.1007077 86.4103004,64.1495191 L86.9878398,64.7757213 C87.1593705,65.0225005 87.0979971,65.3880421 86.8682403,65.5777536 C86.611731,65.7427872 86.295422,65.7273635 86.0515021,65.5268554" id="Fill-17"></path>
                    <path d="M39.2312739,61.3422289 L39.6347731,64.4611443 C39.7987972,65.6626815 40.3778021,66.8149018 40.3400765,68 C40.5401859,67.7459436 40.4171679,67.2363365 40.9190815,67.1870196 C40.7074904,66.8149018 41.311099,66.4921008 40.9732094,66.1692997 C41.1355932,65.3608027 41.2454893,64.5269001 42.0344451,63.9350982 C42.9841443,63.8992314 43.0530344,62.76345 44.004374,62.7111443 C44.4849645,62.690222 44.7851285,63.2894962 45,63.4882579 C44.3980317,62.8366781 44.427556,61.7472246 44.5817387,61 L44.168398,61.1733561 C42.442865,61.1404782 40.6402406,61.2675064 39,61.0538002 L39.2312739,61.3422289 Z" id="Fill-19"></path>
                    <path d="M67.4571768,72.7236732 C67.9342511,72.8223696 67.597398,73.3747229 67.9455332,73.5703841 C68.6949912,73.3123884 69.2687697,74.252601 69.8602773,73.6621544 C69.8312661,72.7409884 70.801532,72.8223696 71.3285701,72.5868835 C72.1553914,72.0553084 73.0869757,71.3523133 72.9934949,70.167957 L72.858109,70 C72.2923891,70 72.0006646,70.4623145 71.5880599,70.8363218 C71.0690804,71.1549206 70.8112024,70.2458751 70.3921507,70.4623145 C70.414715,70.5644739 70.506584,70.6025672 70.580724,70.6423921 C70.6887104,70.7843763 70.7225569,71.0752709 70.580724,71.2137921 C69.9585933,71.8215539 69.6684806,70.9125084 69.0801964,70.9731115 L69.0801964,71.2137921 C69.1027607,71.3523133 69.0447382,71.5652896 68.8626119,71.4839084 C68.4951357,70.8363218 67.7472895,71.0752709 67.3749782,70.5107969 C67.1461115,70.3722757 66.9236917,70.5436957 66.762518,70.7029951 C66.6319672,70.9990842 66.0485183,70.6631703 66.1919629,71.1774303 C65.7406764,71.3523133 65.6858774,71.8752308 65.3554712,72.1938296 C64.7865279,72.0899387 64.5350968,72.7790817 64,72.7652296 C64.0547991,72.8829726 64,73.0803653 64.159562,73.0942175 C64.4964151,73.2535168 64.8203744,73.2846841 65.2249205,73.2327387 C65.7712994,72.2942575 66.6851546,73.0803653 67.4571768,72.7236732" id="Fill-21"></path>
                    <path d="M64.7361411,87.8290365 L64.9140925,87.5664726 L64.3756363,87.708566 C57.593543,87.2359511 51.5922878,84.821908 46.6387979,80 L46.5851056,80.2115956 L43,83.8365213 C48.4244474,88.5688488 54.5514957,91.6145895 61.5391535,92.5768088 C62.6544174,92.7667815 63.9276898,92.664845 65,93 L64.7361411,92.5768088 L64.7361411,87.8290365 Z" id="Fill-23"></path>
                    <path d="M70.1387023,69.1901519 C70.6046865,68.7035961 71.6007495,68.7191798 71.6440566,68.0196477 C70.9580723,67.9088307 70.6046865,68.286301 70.1387023,68.6620398 C70.0746078,68.8109501 69.8615369,69.0845294 70.1387023,69.1901519" id="Fill-25"></path>
                    <path d="M72,66.2965141 C72.0277165,66.5839456 72.0710236,66.9821941 72.3204724,67.2298008 C73.0861417,67.1155208 72.7570079,68.1769395 73.4620472,68.0834377 C73.8552756,67.9639632 73.4845669,67.6297808 73.5937008,67.375248 C73.4845669,66.7830699 72.9094488,66.7224669 72.5144882,66.3709693 C72.4729134,66.2566893 72.5577953,66.1579929 72.6080315,66.0592966 C72.3204724,65.9034602 72.1818898,66.0800748 72,66.2965141" id="Fill-27"></path>
                    <path d="M71.4767616,42.2384284 C69.7526237,41.5796555 67.8725637,41.3035522 66,41 L66.1709145,41.3988159 L66.1334333,46.3573735 L66.5802099,46.2653391 C69.3988006,46.681916 71.9790105,47.6571582 74.2098951,49.6141012 L74.3283358,50 C75.0884558,48.8455328 76.2488756,47.8557589 77.1424288,46.7642626 L78,46.2282024 L77.5892054,46.0441335 C75.7196402,44.3632939 73.6881559,43.0861141 71.4767616,42.2384284" id="Fill-29"></path>
                    <path d="M81,61 L81.6045669,61.5714286 C82.2056693,61.9677952 81.8037795,62.8067713 82.4464567,63.1453344 C83.2069291,63.5218827 83.4858268,64.3641618 83.8305512,65 C83.9414173,64.8331957 83.9414173,64.6284063 84.0037795,64.4582989 C84.2705512,63.4260941 84.2289764,62.2700248 84.5685039,61.2543353 C83.3905512,61.3137903 82.0289764,61.4260941 81,61" id="Fill-31"></path>
                    <path d="M72.0035622,72.6584131 C72.619254,72.9884671 73.3677422,73.0101608 74.0181422,73.2875301 C74.600635,73.4440346 74.9960057,74.1878182 75.7263853,73.9553858 C76.3466043,73.6036381 77.3712484,74.1661245 77.7802006,73.4998183 C77.7122934,72.8459086 78.260078,72.373296 78.537743,71.8139088 L78.7384465,71.7612241 C79.0825096,72.1284673 79.0674191,72.6770077 79.218324,73.078341 C79.6966924,72.5530438 80.0739546,71.9688637 80.5040335,71.4265215 C81.6297838,69.7406119 82.5910478,67.9307384 83,66 C82.5397401,66.0185946 82.0749531,66.1007207 81.6539286,66.2417297 C81.1559425,66.2122882 80.5538321,66.5082522 80.1297894,66.1565045 C79.9773755,66.0185946 79.870233,66.2277837 79.8913597,66.3672432 C79.71631,66.6322161 79.5457875,66.9622701 79.1504168,66.8414052 C78.8440799,66.7003963 78.8440799,66.3672432 78.7384465,66.1208648 C78.7595732,66.3145585 78.691666,66.4927567 78.6539398,66.6663062 C78.2962952,67.0490448 78.1725532,67.4224862 77.9220511,67.8424141 C77.5628975,68.2468464 76.9788957,68.1058374 76.5986154,68.437441 C76.5307082,69.2834949 75.6222609,69.1021976 75.1137115,69.3718192 C75.0774943,69.475639 75.1967092,69.4957831 75.2449988,69.5841074 C75.4909737,69.6538371 75.810892,69.6538371 75.9844326,69.4043597 C76.7072669,69.6011524 76.5488168,68.6729724 76.9698414,68.3506662 C77.3244679,68.2995311 77.668531,67.9818735 78.0337207,68.23445 C78.4170191,68.7024139 78.5000168,69.3873147 78.4487091,70.0040353 C78.0337207,70.4224135 78.2510238,71.1088639 77.9552502,71.6016205 C78.0186303,72.1827015 77.3335221,72.4430258 77.4240651,73.0272058 C77.205253,73.2875301 76.8189365,73.3278184 76.4809096,73.3278184 C75.1333291,72.7978725 73.7102962,72.4631699 72.2012475,72.3206114 C72.0684512,72.373296 71.9809264,72.4957104 72.0035622,72.6584131" id="Fill-33"></path>
                    <path d="M55.0937317,63.8599696 C54.9269609,63.7701674 54.9057355,63.7899543 54.7662544,63.9421613 C54.682869,63.9421613 54.5782583,63.9589041 54.5100338,63.9071537 C54.5100338,62.9254186 53.4154109,63.5129376 53,63 C53.4821192,63.891933 53.7368237,64.9086758 54.2356201,65.805175 C54.5479363,66.5981735 55.2271483,67.2222222 55.5440128,68 C55.8730062,67.3774734 56.5234123,66.8782344 56.9918867,66.3059361 C57.0222086,66.0517504 56.9676291,65.8249619 56.8266319,65.6362253 C56.673506,65.2694064 56.8145032,64.7579909 56.5355411,64.4459665 C56.0943565,64.6012177 56.6962475,65.0471842 56.5021869,65.3120244 C56.3172229,65.4307458 56.1095175,65.2694064 56.0943565,65.0974125 C55.6971388,65.0334855 55.3863386,64.6849315 55.2620186,64.3196347 C55.5910119,64.1156773 55.1831815,64.0273973 55.0937317,63.8599696" id="Fill-35"></path>
                    <path d="M63.5227375,72 C63.6440313,71.5551799 63.4493228,71.0002415 63.6998904,70.620623 C63.8802352,70.2540449 64.3654107,70.2728809 64.7308883,70.3380826 C64.9463445,70.3192466 65.0804061,70.0758271 64.9463445,69.9077518 C64.4228657,69.8150205 64.6622615,69.2890606 64.4755327,68.990582 C64.5010683,68.8283023 64.8058989,68.8616276 64.7308883,68.6457377 C64.3654107,68.3820333 64.9080411,68.0893504 64.6064024,67.8082589 C64.689393,67.7546486 64.7596157,67.6590196 64.8489902,67.5996136 C63.7557494,68.0169041 62.5859019,67.4112533 61.6203389,67.0214924 C61.1447392,66.7708283 60.4632592,66.5288578 60.357925,66 C59.5774947,67.1489978 58.0852609,68.2023666 57,69.2716735 C58.9407019,70.71915 61.1096278,71.6174837 63.5227375,72" id="Fill-37"></path>
                    <path d="M59.4811024,64.3341824 L58.8141732,64 C58.6894488,64.4882873 58.3620472,64.9159715 58,65.2743951 L58.0640945,65.3090254 C58.5370079,64.974843 58.8748031,64.3705442 59.4811024,64.3341824" id="Fill-39"></path>
                    <path d="M66.2298373,86 C67.3928695,85.5368249 68.7442021,85.6104746 70,85.3666121 C69.7521634,85.2520458 69.4946348,85.1849427 69.3049498,84.8837971 C68.5711319,84.8297872 68.2222222,83.9214403 67.9910003,83.2340426 C67.8774663,82.7364975 68.1654552,82.3273322 68.3385254,81.8968903 C68.0256144,81.1374795 67.0522672,81.6841244 66.4845967,81.4157119 C66.3295258,81.2651391 66.2146071,81.0409165 66,81 L66.2298373,81.4157119 C66.2298373,82.9378069 66.3876774,84.497545 66.2298373,86" id="Fill-41"></path>
                    <path d="M63.3887167,81.1129596 C59.2362058,80.9048411 55.6046409,79.3971053 52.3765831,77 C52.4759543,77.4072534 53.0209902,77.6677757 52.8704278,78.1723507 C52.5783367,78.637997 51.9821096,78.6484778 51.5093437,78.637997 C50.5291825,78.4777907 49.8109999,79.2114457 48.8985918,79.3102645 C48.0584536,79.5662951 47.7663626,78.5451672 47,78.637997 C51.7442211,82.7554483 57.1689841,85.3352188 63.5227172,85.6750957 L64,86 L63.7922239,85.4235568 L63.7922239,80.9407752 L63.3887167,81.1129596 Z" id="Fill-43"></path>
                    <path d="M45,79.2232487 C44.3941141,78.8060046 43.8584985,78.1285604 43.3525526,77.5450346 C42.7654054,77.3926097 42.1626426,76.9892225 41.8596997,76.43495 C41.6879279,76.2363356 41.8503303,75.8960739 41.6535736,75.7528868 L41.434955,76.0146266 C40.8134535,76.308699 40.5948348,75.6805235 40.166967,75.421863 C39.6157357,75.1247113 39.8843243,74.0931486 39.1332132,74.2856043 C38.8568168,74.2702079 38.7646847,73.9561201 38.5882282,73.7821401 C37.8995796,73.8483449 37.7215616,73.100077 37.3499099,72.7336413 C37.2780781,72.8906851 37.3499099,73.100077 37.1375375,73.200154 C36.4285886,73.3618168 36.1834234,72.5057737 35.6993393,72.1531948 C35.5775375,72.2040031 35.4885285,72.3518091 35.3073874,72.3133179 C34.8888889,71.9453426 34.6078078,71.4203233 34.5812613,70.8460354 C33.9987988,70.1963048 34.2658258,69.1709007 34.3751351,68.3795227 C34.4813213,68.1732102 34.7858258,68.0577367 34.7264865,67.7929176 C34.8888889,67.4249423 35.2808408,67.3895304 35.6524925,67.3741339 C35.793033,67.4449577 35.9351351,67.5804465 36.0007207,67.7066975 C36.2333934,67.5635104 36.7502703,67.7205543 36.5550751,67.2124711 C36.8517718,66.9553503 37.2968168,66.8614319 37.7059459,66.7936875 C37.987027,67.1462664 38.126006,67.5496536 38.5054655,67.8745189 L38.2587387,67.495766 C37.8308709,65.7836798 37.4982583,64.0408006 37.4014414,62.187067 C37.4201802,62.0854503 37.1812613,62.0315627 37.3155556,61.9299461 L37.3499099,61.9807544 C37.3702102,61.595843 37.3358559,61.2648191 37.4014414,61 L36.9267267,61.1770593 L32,61.1447267 C32.2826426,66.7228637 33.7895495,71.8052348 36.3411411,76.4719015 C37.5981982,78.7690531 39.4377177,80.8475751 41.0461261,83 L44.5705706,79.3987683 L45,79.2232487 Z" id="Fill-45"></path>
                    <path d="M50.2197792,38.3242849 C49.1263571,39.0364857 48.1259922,39.9603036 47,40.5907764 C48.3090047,41.3657326 49.3776115,42.6602452 50.5516832,43.6833041 L50.6742086,44 C53.6706505,41.3044367 57.3045343,39.7326328 61.2284463,38.969352 C62.1574674,38.8832458 63.0957942,38.5884413 64,38.7708698 C63.93486,37.199066 63.7875194,35.5572096 63.9627771,34 C58.8678953,34.2860479 54.3065414,35.7410975 50.2197792,38.3242849" id="Fill-47"></path>
                    <polygon id="Fill-49" points="52.0762205 76.1367897 52 76 52.0762205 76.2441436"></polygon>
                    <path d="M47.3165354,63.9579158 C47.3737008,63.6324649 46.8470866,63.5442886 46.9007874,63.2156313 C47.2766929,62.5422846 46.9198425,61.4537074 47.8847244,61.1619238 C47.1987402,61.2709419 46.5889764,61.3975952 46,61 L46.2875591,61.4376754 C46.3325984,62.6368737 46.8470866,63.7831663 46.568189,65 C46.7899213,64.6537074 46.8470866,64.1823647 47.3165354,63.9579158" id="Fill-51"></path>
                    <path d="M46.1479221,42.3237807 L44.1835222,44.6810253 C40.9803836,48.8432716 39.4539378,53.6651833 39,58.9122464 L43.9741354,58.8290317 L44.4424586,59 C44.2442604,58.8744215 44.2922116,58.6701673 44.2234815,58.502225 C44.6246731,53.6122286 46.4372276,49.259345 50,45.6175685 C48.6238012,44.488875 47.3339146,43.2920968 46.1766928,42 L46.1479221,42.3237807 Z" id="Fill-53"></path>
                    <path d="M51.1313894,47 C48.7200686,49.816004 47.0698113,52.9209833 46.4214408,56.4549103 C46.2284734,57.2721686 46.3349914,58.224884 46,59 C46.6174957,58.7185501 47.5066895,58.8269158 48.1859348,58.9081901 C47.793825,58.7065095 48.1226415,58.2098332 47.8895369,57.9374138 C47.8385935,57.5159915 47.7629503,56.9846984 48.1859348,56.7077637 C48.1411664,56.0079017 48.9037736,55.6481876 48.9778731,55.0190643 C49.1692967,54.3041515 50.0075472,54.785777 50.4120069,54.408002 C50.6744425,54.2680296 50.4506003,54.030227 50.4506003,53.8451022 C50.7963979,53.3800326 51.3428816,53.4011037 51.7581475,53.14223 C52.0607204,52.6997366 52.4451115,52.2226264 52.9313894,51.9532171 C53.9857633,51.9863289 54.0042882,50.5489778 55,50.514361 C53.6337907,49.5089678 52.3370497,48.1619215 51.1313894,47" id="Fill-55"></path>
                    <path d="M49.4223463,60.7132089 L49.286007,61.6495578 C49.0761365,62.2035642 48.4005679,61.7915707 48.0926557,62.1676709 C47.8659343,62.5172411 48.103379,62.8917807 48.2918029,63.1695642 C47.8092539,64.3072281 49.3917082,64.6630407 49.3717935,65.6852216 C49.8589382,66.3219389 49.3043899,67.2395608 50.002937,67.8091731 C50.1561271,68.9608822 49.8436192,70.5183426 50.8362915,71.4203587 L51.013992,72.5174475 C51.2116073,73.2774508 50.1193615,73.0776963 50.2633603,73.7565493 C50.4747627,73.6473086 50.5191878,73.932895 50.5391025,74 L50.5391025,73.9672278 C51.8779845,72.3894799 53.4190775,70.7305817 55,69.3354218 L54.3412823,68.6581294 C53.1081015,66.7823104 52.135344,64.7800843 51.6665821,62.5890279 L51.1656503,62.3284108 C51.1457356,62.8917807 50.8853123,63.3349858 50.920546,63.8999164 L50.7443774,64.1121554 C50.3828486,64.0965496 50.1561271,63.7922362 49.8436192,63.5987241 C49.7716198,63.405212 49.581664,63.0868534 49.8834487,62.9261135 C50.0534897,62.9136288 50.1714462,62.9635674 50.298594,63.0478388 C50.454848,62.8574479 50.3828486,62.5749826 50.4747627,62.3284108 C50.5191878,61.8992508 50.1561271,61.5122266 50.4150185,61.1408082 C50.7443774,61.108036 50.9925454,61.5122266 51.1273528,61.7385109 C51.4582435,61.8446305 51.7186668,61.566847 51.9974729,61.4420004 C51.9974729,61.1408082 52.4110863,60.7319358 51.9591753,60.5555901 C52.2088753,59.8658131 52.0311747,59.1401427 51.9208778,58.4706532 C51.7355177,57.8854351 51.0951828,57.9915547 50.6233571,58.0399327 C49.2186034,58.5003043 50.8531424,59.5817873 50.5069326,60.466637 C50.3077854,60.9816289 49.7884708,60.5025304 49.4223463,60.7132089" id="Fill-57"></path>
                    <path d="M60.4100166,74.9102026 C60.7871474,74.5188903 61.2291447,74.2633692 61.6952783,74.0954554 C60.1761955,74.3933199 58.8381355,73.339113 57.539297,72.7565249 C56.8016292,72.2250411 55.8452255,71.7928454 55.4032282,71 C54.3910092,72.1929184 53.1962589,73.4325607 52,74.3787187 C52.5249661,74.4108414 52.8191281,74.9744479 53.2671595,75.2255886 C55.8331573,77.2916591 59.0297179,78.2874612 62,79 L61.1884145,78.6291294 C60.566903,77.9560139 59.6919596,77.157328 59.6632976,76.2184705 C60.275758,76.0140537 60.2078745,75.3584596 60.4100166,74.9102026" id="Fill-59"></path>
                    <path d="M79.8012049,82 L80.0250355,81.6434884 C80.989774,80.775814 82.0338449,79.9618605 82.886668,78.8939535 L83,78.8939535 C82.8030857,78.8223256 82.5594219,79.042093 82.3440912,78.9346512 C81.8850967,78.6937209 81.8100142,78.2265116 81.8100142,77.694186 L79.8337878,75.3483721 L79.7261224,75 C79.5802075,75.4476744 79.2897943,75.7211628 79.0022144,76.0483721 C79.0177976,76.3462791 78.922882,76.7923256 79.2317117,76.9909302 C79.8720374,77.2334884 80.7064441,77.7169767 80.8495257,78.5781395 C80.5916954,79.3953488 79.2402116,80.1327907 80.071785,81.0167442 C80.3451984,81.4562791 79.6921229,81.6239535 79.8012049,82" id="Fill-61"></path>
                    <path d="M63.7044487,41.179225 C59.2464217,41.5118407 55.3810445,43.4526372 52,46.3670614 C53.3353965,47.3310011 54.5237911,48.8858988 55.7384913,50 C55.8235977,49.8772874 55.916441,49.7513455 56,49.5995694 C57.6696325,48.3627557 59.3918762,47.2244349 61.3539652,46.7109795 C62.2235977,46.6173305 63.0916828,46.1846071 64,46.3977395 C63.8096712,44.6765339 63.8096712,42.777718 64,41 L63.7044487,41.179225 Z" id="Fill-63"></path>
                    <path d="M64.7251847,48 C61.8140603,48.3446295 59.1330138,49.2377944 57,51.2739805 L57.3882564,51.2739805 C57.8308368,51.6659966 58.5306571,51.5812751 58.8581985,52.1053992 C59.0243659,52.3983343 58.551428,52.3667433 58.5690034,52.6079839 C58.6648692,52.6783458 58.7894947,52.6898334 58.8581985,52.8075818 C59.2017176,52.9138426 59.1330138,52.6280873 59.2640304,52.4959793 C59.7098063,52.0924756 59.7880967,52.8865594 60.2194927,52.8865594 C60.527861,52.7085009 60.9624526,52.6898334 61.1733573,53 C61.4705412,52.770247 62.0888756,52.9827685 62.1751548,52.5649052 C62.7455562,52.0249856 62.4339924,51.1978748 63.2648292,50.8518093 C63.5556221,50.9982769 63.2456561,51.2452613 63.3559017,51.4692705 C63.9119233,51.6803561 64.5494308,51.0485353 65,51.5554279 C64.5909726,50.4899483 64.6884362,49.1717404 64.7251847,48" id="Fill-65"></path>
                    <path d="M46.0254071,40 L46.1134194,39.756922 C51.2243122,35.0589716 57.1782706,32.4770466 64,32.1591754 L63.8455924,31.7384634 L63.7884615,27.493947 L63.9351488,27 C56.8972487,27.2820328 50.6452835,29.7050222 45.1020494,33.7313916 C44.0320045,34.4730912 43.0901179,35.604339 42,36.2416397 L42.1544076,36.2416397 C43.5394441,37.2606976 44.8549972,38.7316313 46.0254071,40" id="Fill-67"></path>
                    <path d="M105.488534,82.1108108 C103.182849,83.6185664 100.846605,85.0178613 98.6295413,86.7303173 L98.6295413,86.5317274 C102.029243,80.8856639 100.362243,73.1376028 102.452486,66.9400705 L103.231744,64.8640423 C102.80086,68.7182139 104.477028,71.9980024 104.367015,75.8766157 C104.238667,78.2169213 103.477745,80.2944771 102.246212,82.1596945 L102.452486,82.1596945 C104.119486,79.9843713 105.419776,77.6639248 107.361808,75.5787309 C110.373409,72.6747356 113.438488,69.6974148 113.838812,65.6568743 C114.859487,72.3951821 111.083908,78.2963572 105.488534,82.1108108 L105.488534,82.1108108 Z M98.120732,92.5902468 C95.1458022,93.3907168 91.9600146,93.6473561 89.0584267,94.6311398 C93.9631645,90.4240893 93.6896604,83.9149236 96.9625416,78.9608696 C98.0015515,77.5524089 98.8663744,76.0782609 100.079571,74.7507638 C98.0962847,78.7500588 98.9565238,83.9286722 96.6676461,87.8072855 C95.7860157,89.339483 94.5208683,90.8365452 93.1304287,92.0571093 C93.5888154,92.0326675 93.9906677,91.6385429 94.3802964,91.3757932 C98.1085084,87.6713278 102.961296,86.6310223 106.979819,83.6185664 C108.585701,82.3338425 110.06629,80.6565217 110.773733,78.8417156 C110.009755,84.9857814 103.896405,90.7525264 98.120732,92.5902468 L98.120732,92.5902468 Z M94.8860498,98.5311398 C89.0400912,100.729377 83.1742692,98.0300823 77.5773674,97.1303173 L76.5032146,96.9882491 L76.5032146,96.9561692 C79.1740812,96.3497062 81.7716059,95.5553467 83.9015761,93.6229142 C87.0354133,90.6150411 89.8254604,87.5216216 93.3091995,85.1400705 C90.7269543,88.4488837 90.4549782,93.1569918 86.1919818,95.2895417 C85.1285246,95.9784959 83.802259,96.1022327 82.7067148,96.6292597 C84.2652296,96.659812 85.6831725,96.1022327 87.2309916,95.9509988 C92.945546,95.0558167 99.4882524,95.9708578 103.494552,91.0992949 C102.006323,94.4905993 98.2842233,97.3319624 94.8860498,98.5311398 L94.8860498,98.5311398 Z M89.3059555,103.896122 C84.113962,105.83772 78.6851353,103.809048 74.626885,100.729377 C72.9873885,99.6860165 71.5343026,98.1828437 69.4012764,98.3249119 C68.6403545,98.3065805 67.8886003,98.340188 67.2376911,98.5311398 C71.1813448,100.367333 74.8469106,102.895535 78.2023013,106.137133 C77.6323739,106.775676 76.9065949,107.380611 76.2159589,107.935135 C72.9873885,104.459812 69.4012764,101.106698 65.3995604,99.1513514 C64.6233589,99.2552291 63.8716047,99.7242068 63.170273,100.1 C59.9080876,102.165335 56.6825731,104.815746 54.2638192,108.054289 L52.1781596,106.341833 C55.5091031,102.985664 59.1853645,100.367333 63.1962483,98.4960047 C59.2541225,97.2494712 56.6734053,100.553702 53.6770842,102.237133 C50.1780656,104.676733 45.1541472,105.820917 40.9201819,104.142068 C38.6465838,103.277438 36.4539674,102.007991 34.8083591,99.9487662 C38.1393025,102.237133 43.0883511,102.481551 46.8639297,100.992127 C51.9397985,98.7908343 57.2005501,96.0075206 63.3154288,97.3319624 C64.2734571,97.3518214 65.208566,98.3065805 66.1115878,97.4923619 C70.6496162,96.3115159 75.7927152,97.1287897 79.7058098,99.2048179 L83.7441967,100.810341 C87.4892162,102.197415 92.3420035,101.821622 95.5430707,99.5301998 C93.8974624,101.590952 91.6452557,103.072738 89.3059555,103.896122 L89.3059555,103.896122 Z M26.6994981,91.6706228 C31.3017007,96.9225617 38.846746,95.1703878 44.9952398,96.540658 C45.8554789,96.659812 46.6545997,97.0050529 47.5790129,96.8645123 C46.8455942,96.4001175 45.8279757,96.4551116 45.0273269,96.0365452 C40.2127384,94.3363102 39.502239,89.1256169 36.883323,85.6151586 C40.229546,87.8286722 43.0333447,90.8212691 46.1182873,93.7160987 C48.3414628,95.6546416 51.0001058,96.552879 53.8054325,97.1303173 C53.133132,97.3716804 52.2469176,97.2983549 51.5226666,97.4923619 C46.4849967,98.7434783 40.8651755,100.762985 35.5158026,98.9435958 C32.0351195,97.8513514 28.4459515,95.1031727 26.6994981,91.6706228 L26.6994981,91.6706228 Z M19.3011366,79.5321974 C22.1782772,86.0413631 29.3795324,86.5760282 34.2200961,90.5447709 C35.0986707,91.3253819 36.0444753,91.9990599 37.0422303,92.4695652 L37.0926529,92.4145711 C35.9787732,91.4124559 34.7044581,90.2698002 33.9221448,88.9713278 C31.0984826,85.0392479 32.0885979,79.5321974 29.9739072,75.3052879 C31.8991314,77.6089307 33.6440568,79.9904818 34.8083591,82.6103408 C36.5425888,86.873913 37.1996098,91.6874266 41.2043817,94.9122209 C36.8634595,93.4884841 31.7967584,93.8902468 27.9783971,91.2199765 C23.8101339,88.6581669 20.0819219,84.3105758 19.3011366,79.5321974 L19.3011366,79.5321974 Z M16.214666,66.367215 C16.6348538,72.1018801 22.8032111,75.1341951 25.6620162,79.8774383 C26.3358447,80.8474736 26.9271635,81.919859 27.8286574,82.7310223 C27.6804457,82.1276146 27.118158,81.6097532 26.9088281,80.9849589 C25.9019052,78.9929495 25.5397797,76.6236193 25.7811967,74.2130435 C26.0623406,71.2876616 27.289289,68.5639248 26.8232625,65.4811986 C29.3321658,70.9027027 28.5727718,77.6639248 29.9754352,83.5314924 C30.3390886,84.8146886 31.0877869,85.9558167 31.567565,87.1840188 C26.4046027,83.6674501 19.3683666,80.3250294 17.079489,73.8846063 C16.1153489,71.6634548 16.00992,68.9122209 16.214666,66.367215 L16.214666,66.367215 Z M16.387325,55.8007051 C16.6837484,54.5220917 16.9159977,53.2037603 17.4675897,52.0290247 C16.4087164,57.4352526 20.045251,61.3291422 21.2385844,66.0250294 C21.7412818,67.7680376 21.8681022,69.6592244 22.5786016,71.3059929 C22.6473596,71.3411281 22.7038939,71.2693302 22.7497326,71.2173913 C20.9681362,66.2297297 23.530518,61.6041128 26.1097072,57.7056404 C26.7300572,56.6485311 27.0998225,55.4707403 27.4069416,54.2639248 C27.6804457,56.5156287 27.118158,59.1141011 26.7835357,61.4482961 C26.1601298,64.4286722 25.2265488,67.2486486 24.4136764,70.1450059 C23.874308,71.9414806 24.0148799,73.9915394 24.2914399,75.8766157 L24.0316875,75.6703878 C22.1354944,72.1889542 18.4011706,69.466745 17.2979866,65.6568743 C16.3751014,62.626087 15.768503,59.1141011 16.387325,55.8007051 L16.387325,55.8007051 Z M22.3753835,39.5056404 C22.4380296,39.4705053 22.494564,39.4032902 22.5786016,39.4170388 C19.9474618,43.4209166 22.1186869,48.460517 22.0040902,53.0128085 L21.6572443,57.6735605 C21.701555,57.7041128 21.701555,57.8446533 21.8283753,57.7911868 C21.9826988,57.279436 22.0208977,56.7218566 22.1186869,56.1826087 C22.7497326,52.420094 26.0073342,49.7544066 28.8661393,47.1559342 C29.4773216,46.4898942 30.0014104,45.7902468 30.3207532,44.9989424 C30.0961437,46.8656874 29.5032969,48.7522914 28.7270954,50.4876616 C26.5100316,54.8169213 22.3998307,58.3640423 21.6572443,63.3150411 C21.2981747,58.5779083 18.0527967,55.0262045 18.390475,49.9850764 C18.2835181,45.8956522 19.9780209,42.5532315 22.3753835,39.5056404 L22.3753835,39.5056404 Z M25.3335057,36.1769683 C26.5619821,34.6371328 28.1388324,33.5632197 29.9051492,33.1156287 C26.4810005,35.4696827 26.7010261,39.693537 25.6100657,43.213161 C25.2616918,44.5116334 24.6566213,45.7092832 24.3601979,47.0367803 L24.4534032,47.1101058 C25.0233307,45.5992949 26.0256697,44.1847239 27.2678977,42.9504113 C29.7141547,40.7017626 33.3201302,39.3009401 34.5165196,35.9707403 C34.4630411,40.5948296 30.5973131,44.2290247 26.9088281,46.8336075 C25.3778164,48.1641598 23.909451,49.6917744 23.0751872,51.3996475 C22.9911496,50.2417156 23.2570139,49.0623972 23.1683925,47.8173913 C22.7665401,43.7814336 22.4747006,39.1772033 25.3335057,36.1769683 L25.3335057,36.1769683 Z M39.2547102,28.4059929 C36.709136,30.6378378 34.9428192,33.4639248 33.0573218,36.0960047 C31.3582351,38.1903643 29.1961778,39.5743831 27.2663697,41.3769683 C28.3084355,39.2291422 28.3466344,36.6627497 29.8195837,34.6905993 C31.9174669,31.0350176 35.8000024,29.7548766 39.2547102,28.4059929 L39.2547102,28.4059929 Z M49.2735158,28.7497062 C54.0712968,26.380376 59.3228805,25.1139835 65.0374349,25.0116334 C78.0953444,25.0314924 90.5711028,32.6955347 96.2520422,44.7835488 C99.8534338,51.7311398 100.88022,61.2970623 98.5439757,69.1398355 C96.1664767,78.4032902 88.3723746,87.7752056 79.2947897,91.5881316 C69.0758219,96.5910693 54.5526028,95.3430082 45.4429309,88.8109283 C32.777706,80.140188 27.5979361,65.1878966 31.4269931,50.4296122 C33.7494858,41.6687427 40.7322434,32.8192714 49.2735158,28.7497062 L49.2735158,28.7497062 Z M97.466767,31.5696827 C100.012341,33.839718 101.155252,36.7849589 101.90395,39.8371328 L102.318026,40.8010576 C98.6295413,38.1582844 95.2817903,34.5867215 92.9272105,30.8287897 L90.0500699,27.9171563 C92.5818925,28.9895417 95.3031817,29.6311398 97.466767,31.5696827 L97.466767,31.5696827 Z M106.477122,39.9226792 C107.28541,43.5614571 106.114996,47.1101058 106.856055,50.7824912 L106.819384,50.8130435 C104.843737,46.9191539 100.632691,45.0860165 97.7433269,41.9650999 C96.0579918,40.1121034 95.3337408,37.8588719 94.9242487,35.4696827 C96.5851365,39.4689777 101.051351,40.3519389 103.618317,43.7096357 C104.477028,44.4887192 104.7597,45.5656874 105.31282,46.4532315 L105.399913,46.3631022 C103.923908,43.2116334 103.425794,39.6584019 102.409704,36.3037603 C101.881031,34.8448884 100.863413,33.4089307 99.4882524,32.4908343 C102.855867,33.1843713 105.780374,36.6978848 106.477122,39.9226792 L106.477122,39.9226792 Z M108.634595,40.7170388 C111.71037,44.873678 112.385727,51.4913043 110.144216,56.252879 C109.320647,58.2769683 108.726273,60.4278496 108.39929,62.6642773 C108.237327,62.2808461 108.208296,61.7614571 108.072308,61.3291422 C106.856055,56.6699177 102.438735,53.3443008 100.617412,48.9447709 C100.047484,47.5057579 99.5615942,46.019389 99.2865622,44.4566392 C101.222482,48.0419506 106.004983,49.8964747 107.305274,53.8423032 C107.841586,54.8505288 107.812555,56.0940071 108.133426,57.1725029 C108.208296,57.1725029 108.275526,57.1220917 108.275526,57.0487662 C107.705598,52.9807286 107.875201,48.7171563 108.434433,44.7025852 C108.39929,42.519624 108.18996,40.406933 106.979819,38.7235018 C107.756021,39.1756757 108.108979,40.0433608 108.634595,40.7170388 L108.634595,40.7170388 Z M111.517848,67.6840188 C109.696524,70.2611046 107.496268,72.6747356 105.812461,75.3052879 C106.004983,73.2246769 106.249456,70.6613396 105.432,68.6876616 C104.032393,64.4439483 102.797804,60.1345476 102.409704,55.4722679 L102.452486,53.6895417 C103.509832,58.4495887 108.18996,61.7293772 107.890481,67.0638073 C107.998966,68.3607521 107.595585,69.4499412 107.361808,70.5925969 L107.439734,70.679671 L107.653648,70.4398355 C108.344284,67.826087 108.689602,65.067215 109.76681,62.6230317 C111.305462,59.1141011 113.212351,55.5623972 112.436149,51.3186839 C114.769337,56.3277321 114.068006,63.0095182 111.517848,67.6840188 L111.517848,67.6840188 Z M0,130 L130,130 L130,0 L0,0 L0,130 Z" id="Fill-69"></path>
                    <path d="M37.4539245,59 L37.3339724,58.3214385 C37.6720192,52.8153527 39.4681845,47.9239281 42.6336729,43.5406639 C43.4219293,42.659751 44.0061114,41.559751 45,40.8994467 C43.8472139,39.8496542 42.6554823,38.6218534 41.4450569,37.4701245 L41.3219892,37 C36.2855602,42.4710927 33.1855003,48.7135546 32.2772918,55.8399723 C32.0794488,56.8760719 32.2165368,57.9441217 32,59 C33.7681246,58.8585062 35.6842421,58.8585062 37.4539245,59" id="Fill-71"></path>
                    <path d="M64.1774443,55.5922655 C63.6673372,56.4624644 62.8090858,56.6587615 62.0022991,56.9060649 C61.7767622,57.1827356 61.832768,57.7994486 61.2984421,57.7422596 C61.128911,58.1348538 60.5431203,58.3605182 60.7686573,58.9215879 C60.4871145,59.5166617 60.6233449,60.2863937 60.4765188,60.9371108 C59.4593319,61.5847367 59.7484431,60.0761857 59.242877,59.7608739 L59.0627501,60.0607293 C58.8644592,60.1117356 58.7252015,59.9880839 58.5829164,59.852067 C58.4300356,59.7917868 58.1727116,59.7376892 58.0364812,59.8845256 C57.8094306,60.2709372 57.4688546,60.5831578 57.5521065,61.1117688 C57.4552315,61.4239894 56.9405834,61.3219768 57.0056713,61.6542907 C57.5763252,61.6388343 58.1878483,61.5337303 58.7373109,61.4100786 C59.13692,61.5105456 59.4593319,61.2168728 59.8559137,61.2014163 C59.9860894,61.2709704 60.1556205,61.4100786 60.0950737,61.6202865 L60.2358451,61.6202865 C60.5052785,61.4100786 60.6233449,61.0885841 60.5052785,60.7810005 C60.5431203,60.4100454 60.9366748,60.4100454 61.1743211,60.3049414 C61.3983444,60.4100454 61.257573,60.6341641 61.2984421,60.818096 C62.0689006,61.1117688 61.1122606,61.6867493 61.0017626,62.1071651 C60.8004444,62.4425704 61.0017626,63.1937546 60.3523978,63.0886506 C60.2358451,63.0577377 60.1556205,62.9309947 60.185894,62.7887952 L60.0950737,62.7887952 C60.0829643,63.0762854 60.2903373,63.4565145 60.5612844,63.5770749 C61.0350634,63.1782981 61.0532274,62.4920311 61.7495161,62.4023836 C62.1022014,62.0190633 61.5905806,61.4239894 62.1264201,61.1117688 C63.014945,61.0885841 63.967044,60.7068095 64.6784694,61.4379002 C64.6239772,61.7563034 64.5119656,61.9015942 64.7662623,62.1597171 C64.5906765,62.5677678 64.4771512,63.0020944 64.1471709,63.335954 C64.2319365,63.5616184 64.1668486,63.8398348 63.967044,64.000582 C63.7339387,65.0686237 62.5305703,64.5616517 61.832768,64.9295155 C62.9120154,65.7688015 64.2122587,66.085659 65.6199727,65.9805551 C66.3556168,65.9465509 66.0347186,65.0176174 66.4131363,64.5972015 C66.6477553,63.3730496 67.7512215,64.2107899 68.420264,63.8784759 C68.6745607,63.3560475 68.9349121,62.8428928 69,62.247819 C68.5731448,61.9711483 68.4036136,61.4379002 68.5383304,60.9371108 C68.2477055,60.5306058 68.2779789,59.7948781 67.6422371,59.7237784 C67.5483895,59.5862158 67.6255868,59.4022839 67.7133797,59.3095451 C67.7012703,58.9215879 68.0736334,58.7963905 68.1750493,58.4965351 C67.7860359,58.2368665 67.8874518,57.6587947 67.9207526,57.3187525 C67.2486827,57.5196866 67.1805675,56.6247573 66.6871108,56.4315515 C66.5645034,56.0235008 66.1346209,55.9554924 65.7940449,55.8874839 C64.9675805,56.2924433 64.8358912,55.2553145 64.2122587,55.0157394 C64.1471709,54.8194423 64.0033721,54.5381346 64.2122587,54.38357 C64.5271023,54.1192644 64.9342798,54.3449288 65.2915061,54.3248354 L65.0039087,54.1702708 C64.7329615,53.8565045 64.1290068,54.0497103 63.7672395,54.1702708 C64.1123565,54.5211325 63.967044,55.1517562 64.1774443,55.5922655" id="Fill-73"></path>
                    <path d="M84.2802742,80 C83.7882711,80.9296424 82.7204874,81.5234141 81.907083,82.2401384 C80.7844631,83.3467128 78.956588,83.5836217 78.3823305,85.1850058 C77.7837014,85.7232987 77.5780655,86.5749712 76.73115,86.8793541 C76.4158416,87.6965398 75.5323686,87.6470588 75.0373191,88.2348328 C73.5856816,89.5123414 72.6488957,87.4236448 71.3404417,87.1717416 L68.6961158,87.6320646 C67.7791318,87.6320646 66.8667174,87.95594 66,87.6605536 C66.126428,89.3908881 66.126428,91.2636678 66,93 L66.332064,92.794579 C74.6549886,92.4422145 81.8385377,89.3309112 88,83.8205306 L84.3610053,80.4018454 L84.2802742,80 Z" id="Fill-75"></path>
                    <path d="M93.7394199,61.2104308 L93.4442463,61 L93.6188778,61.4746212 C93.3437946,67.2729875 91.3981217,72.3878377 88.0600333,76.9420512 C87.420233,77.7039028 86.8128864,78.6423934 86,79.1861342 C87.3352354,80.2275361 88.8111032,81.795783 89.9067998,83 L90.042796,82.7388815 C95.4084641,76.6609649 98.4544698,69.6199818 98.7898241,61.4746212 L99,61.0537597 L98.7403709,61.179711 L93.7394199,61.2104308 Z" id="Fill-77"></path>
                    <path d="M85,40.8022069 C85.3548681,40.8886897 85.4583712,41.318069 85.6979072,41.5775172 C86.9148089,42.2451034 87.2327116,43.5908966 88.3076661,44.3449655 C88.9124204,45.6391724 90.3023203,46.6344828 90.3540719,48.1122759 C91.8075523,51.4198621 92.7982257,54.9110345 92.897293,58.7966897 L92.7701319,59 C92.916515,59 93.0495905,58.9317241 93.1649227,58.8497931 L98,58.7572414 C97.6820974,58.2808276 97.8151729,57.5753103 97.7308917,56.9896552 C97.089172,49.3366897 93.908667,42.7806897 88.9124204,37 C87.9868062,38.2714483 86.7358963,39.4594483 85.575182,40.6808276 L85,40.8022069 Z" id="Fill-79"></path>
                    <path d="M66.0824291,39.1231497 C66.731371,38.8941398 67.3908039,39.1747149 68.0412445,39.1898811 C71.3713806,39.7434482 74.5156765,40.8217666 77.1728913,42.9040888 C76.8596607,42.558299 76.4684971,42.1670104 76.396559,41.6680417 C76.45351,41.5982771 76.5179546,41.5831109 76.6033811,41.5982771 C76.6393502,41.0613929 76.0758348,40.7868843 75.9964031,40.306115 C76.0758348,40.2090512 76.1987291,40.1028876 76.3695822,40.1529362 C76.9420898,40.70347 77.4306696,41.305569 77.8607997,41.9213176 C78.2369762,41.7726887 78.5412146,42.0092817 78.8154787,42.2125091 C79.3070559,42.5067338 79.0028176,43.1452317 79.3774954,43.489505 C79.4449374,44.5041252 80.6678856,45.0728585 80.6019423,46.0844455 C80.6109346,46.3255884 80.9061807,46.1375273 81.0050956,46.2603737 L82.0272166,47.5252366 C81.838379,47.7709294 81.9942449,48.0651541 82.2010671,48.2304659 C82.6551765,48.4443096 82.9114561,47.8543436 83.3640669,47.9392744 C84.0264972,48.3199466 83.265152,48.7658335 83.3295965,49.181388 C83.5873749,49.193521 83.9110965,48.976644 84.1164199,49.2314365 C84.2003477,49.6105921 83.8076854,49.8502184 83.6518194,50.0928779 C83.6518194,50.4674836 83.9590552,50.3871026 84.2318206,50.4674836 C84.5375577,50.4553506 84.7248966,50.8345062 84.6454649,51.092332 C85.4922367,51.9856224 84.3861879,52.9471609 84.7938373,53.8935331 C85.0621066,54.5077651 84.7248966,55.1098641 84.3487201,55.5769837 C84.3682033,56.3352948 83.6832924,56.796348 83.4225166,57.4333293 L82.5517655,57.603191 C82.0886637,58.0672774 82.9489239,58.6390439 82.4798273,58.9332686 L84.3861879,58.9666343 L84.177867,58.7603737 C83.9110965,58.0096457 83.9740423,56.9859257 84.4386428,56.3170954 C84.7248966,55.7013468 84.7938373,54.953652 85.3408669,54.4273841 C85.4562676,54.3925018 85.672082,54.1665251 85.7829866,54.4273841 C85.8144596,55.0112837 85.7650021,55.680114 85.4922367,56.1987988 C86.0392662,56.9859257 85.9643307,58.0187455 86.0152869,59 C87.6968407,58.8938364 89.3469216,58.8619874 91,58.8786702 L90.8486302,58.5510798 C90.5923506,55.3722397 89.9449074,52.3617447 88.6365326,49.6454744 C88.2783406,49.6651905 88.0235597,49.9548653 87.617409,49.8502184 C87.4810263,49.8001699 87.3926024,49.6651905 87.4120856,49.5135283 C86.7301721,48.8553142 86.3030394,47.9984227 85.5446916,47.4069401 C84.6694443,47.4964208 84.2842755,46.4772507 83.5019483,46.3771536 C82.8065464,46.0844455 83.2831365,44.9484955 82.2790001,45.2639529 C81.7874228,45.0546591 81.3048378,44.6755035 81.2089203,44.1098034 C81.2089203,43.2134797 81.0380673,42.2504247 80.2452491,41.6680417 C79.6277801,41.4405484 79.3774954,42.2655909 78.7600264,42.1306115 C78.4228164,41.9562 78.5756849,41.5118297 78.4677777,41.2221548 C78.3508782,40.9612958 78.061627,40.771718 78.1125832,40.4259282 C78.9158923,39.362776 77.1474132,39.3855254 77.5370781,38.3314729 C77.4306696,37.5701286 76.6693244,37.2789372 76.2796595,36.681388 C73.6449254,35.47719 71.0116899,34.6551808 68.0412445,34.2896748 C67.3083748,34.1835113 66.6294587,34.34124 66,34 L66.1678556,34.3230405 C66.1318866,35.9245935 66.2412925,37.6232104 66.0824291,39.1231497" id="Fill-81"></path>
                    <path d="M66.7616038,30.8312361 C66.9160874,30.5618061 67.3146549,30.6580311 67.5247525,30.7438934 L70.0459237,29.7031828 C71.0593357,29.7875648 72.1777965,29.9030348 72.7802823,30.7128053 L72.7802823,30.8312361 C72.1499895,31.3286454 71.3451303,31.7298298 70.5062847,31.3952628 C69.3476582,31.6158401 67.7317604,32.2509252 66.8033144,31.1125093 C66.7616038,31.0281273 66.6611895,30.9096965 66.7616038,30.8312361 M81.8144793,33.8793486 C82.1636121,33.9859363 82.4849379,34.1324944 82.6085247,34.4892672 C82.5112001,34.8682457 82.9746507,35.1880089 82.690401,35.4914878 C81.7403272,35.7283494 81.658451,34.7054034 80.9246542,34.4507772 C80.822695,34.3131014 80.785619,34.1472983 80.8010673,33.965211 C81.1316621,33.5803109 81.4468085,34.2168764 81.8144793,33.8793486 M66.0494347,31.6291636 C66.0494347,31.4796447 66.1204972,31.3464101 66.2147321,31.2324204 C66.4572713,31.0932642 66.6611895,31.2990377 66.7616038,31.4633605 C66.7863212,31.7017024 66.89137,32.1043671 66.6859069,32.2390822 C66.89137,32.2716506 67.0025981,32.1206514 67.1848887,32.1206514 C71.1952812,32.4063657 74.9136999,33.527017 78.2459097,35.3419689 L78.2459097,35.2605477 C78.9271821,34.9348631 79.8015589,34.5203553 80.5029141,35.0903035 C81.3433045,34.7897853 81.5008777,35.7801628 82.1821501,35.8941525 C83.0101819,36.3649149 83.9401727,37.2427831 84.0421319,38.1621021 C84.1919809,38.4641007 84.6909627,38.6817172 84.7573906,39 C85.3212555,37.861584 86.4397163,37.0503331 87.4083281,36.0643967 L88,35.8275352 C82.7104838,30.9940785 76.4245488,28.3234641 69.4109964,27.4026647 C68.2971701,27.2176166 67.0659364,27.3182828 66,27 C66.2147321,28.3234641 66.1529387,30.1369356 66.0494347,31.6291636" id="Fill-83"></path>
                </g>
            </g>
        </g>
    </g>
</svg>