<?xml version="1.0" encoding="UTF-8"?>
<svg width="1075px" height="265px" viewBox="0 0 1075 265" version="1.1" xmlns="http://www.w3.org/2000/svg" xmlns:xlink="http://www.w3.org/1999/xlink">
    <!-- Generator: Sketch 46.2 (44496) - http://www.bohemiancoding.com/sketch -->
    <title>WITH UNDP LOGO</title>
    <desc>Created with Sketch.</desc>
    <defs></defs>
    <g id="Page-1" stroke="none" stroke-width="1" fill="none" fill-rule="evenodd">
        <g id="LOGO-Copy" transform="translate(-202.000000, -454.000000)">
            <g id="WITH-UNDP-LOGO" transform="translate(202.000000, 454.000000)">
                <path d="M237,1.325 L237,263.675" id="Line-2" stroke="#E6E6E6" stroke-linecap="square"></path>
                <g id="Page-1" transform="translate(306.000000, 2.000000)">
                    <path d="M122.411703,145.987889 C111.105254,135.907505 96.5665007,130.871283 78.7927952,130.871283 C62.6524493,130.871283 48.9634664,136.182737 37.7258466,146.800354 C26.3532164,157.492071 20.6695486,170.801141 20.6695486,186.732859 C20.6695486,203.209747 26.5252884,217.167202 38.2394151,228.599929 C49.884713,239.971788 64.0131411,245.65904 80.6299938,245.65904 C92.6856171,245.65904 104.704179,242.591788 116.690973,236.465222 C120.23036,234.697384 123.295888,232.754879 125.884908,230.643 L133.238997,244.738071 C123.229706,253.312616 110.321665,258.864899 94.5228158,261.384333 C89.4162507,262.202091 84.1720281,262.607 78.7927952,262.607 C68.0978637,262.607 58.0197438,260.823283 48.5557884,257.247909 C39.0891856,253.672535 30.7979664,248.668071 23.6821308,242.231869 C16.5636479,235.803606 10.9488089,228.126212 6.82702466,219.207626 C2.70524041,210.28904 0.645671918,201.301646 0.645671918,192.248091 C0.645671918,183.191889 1.58015479,175.345121 3.45441507,168.707788 C5.32867534,162.067808 7.99976096,155.941242 11.4729664,150.325444 C14.9461719,144.707 19.1023705,139.654899 23.9362678,135.161202 C28.7701651,130.667505 34.1520452,126.853949 40.0766137,123.723182 C52.4710863,117.186414 65.9879973,113.920677 80.6299938,113.920677 C100.450032,113.920677 117.540744,119.570879 131.910073,130.871283 L122.411703,145.987889 Z" id="Fill-1" fill="#E6E6E6"></path>
                    <path d="M332.063598,230.491093 C328.248896,230.491093 325.183368,229.334588 322.869663,227.018931 C320.55331,224.705921 319.396458,221.641315 319.396458,217.82776 C319.396458,214.016851 320.55331,210.973416 322.869663,208.689517 C325.183368,206.408265 328.248896,205.270285 332.063598,205.270285 C335.875653,205.270285 338.94118,206.408265 341.257533,208.689517 C343.571238,210.973416 344.730738,214.016851 344.730738,217.82776 C344.730738,221.641315 343.571238,224.705921 341.257533,227.018931 C338.94118,229.334588 335.875653,230.491093 332.063598,230.491093 M344.730738,158.597234 C344.730738,162.413436 343.571238,165.475396 341.257533,167.791053 C338.94118,170.101416 335.875653,171.263214 332.063598,171.263214 C328.248896,171.263214 325.183368,170.101416 322.869663,167.791053 C320.55331,165.475396 319.396458,162.413436 319.396458,158.597234 C319.396458,154.788972 320.55331,151.740244 322.869663,149.456345 C325.183368,147.180386 328.248896,146.037113 332.063598,146.037113 C335.875653,146.037113 338.94118,147.180386 341.257533,149.456345 C343.571238,151.740244 344.730738,154.788972 344.730738,158.597234" id="Fill-4" fill="#E6E6E6"></path>
                    <polygon id="Fill-6" fill="#E6E6E6" points="375.886874 115.961895 394.783018 115.961895 394.783018 243.410339 473.644901 243.410339 473.644901 260.56737 375.886874 260.56737"></polygon>
                    <path d="M586.720241,211.753859 L573.642776,181.420081 C572.009416,177.609172 570.410471,173.660646 568.843293,169.577152 L564.755923,158.035919 C562.166902,150.546424 560.636786,145.44404 560.157632,142.715535 L558.934598,142.715535 C558.386615,145.44404 557.16358,149.323758 555.257553,154.35998 L550.047745,167.634646 C548.480567,171.448202 546.778378,175.327919 544.938533,179.279091 L529.716786,211.753859 L586.720241,211.753859 Z M555.051067,115.962424 L565.777765,115.962424 L628.39606,260.565253 L607.763313,260.565253 L594.07433,228.908242 L521.647937,228.908242 L506.836515,260.565253 L487.42945,260.565253 L555.051067,115.962424 Z" id="Fill-8" fill="#E6E6E6"></path>
                    <path d="M748.842961,216.754883 C748.842961,198.443994 733.825053,189.28458 703.791886,189.28458 L664.260348,189.28458 L664.260348,243.410075 L704.40605,243.410075 C725.038797,243.410075 738.592769,239.016943 745.062673,230.235974 C747.580218,226.763812 748.842961,222.267469 748.842961,216.754883 L748.842961,216.754883 Z M700.421923,172.130196 C715.813095,172.130196 726.43655,168.658034 732.29229,161.713711 C734.470985,159.128115 735.561656,155.756519 735.561656,151.604216 C735.561656,147.451913 734.285677,144.133246 731.731071,141.64557 C729.176464,139.163186 725.922982,137.270964 721.975916,135.976842 C715.982519,134.071388 707.19891,133.116014 695.619793,133.116014 L664.260348,133.116014 L664.260348,172.130196 L700.421923,172.130196 Z M645.364204,115.96163 L698.584725,115.96163 C715.813095,115.96163 728.988509,118.073509 738.116262,122.29462 C749.76156,127.809853 755.582886,137.305368 755.582886,150.786459 C755.582886,156.640438 753.507434,162.325044 749.351235,167.840277 C745.608009,172.879145 741.3168,176.144883 736.480255,177.642782 C746.219526,179.482075 754.015708,183.734943 759.874095,190.406681 C765.867492,197.287489 768.86419,205.660903 768.86419,215.52957 C768.86419,236.500156 757.454499,250.219428 734.643057,256.687388 C725.311464,259.272984 714.380927,260.567105 701.851444,260.567105 L645.364204,260.567105 L645.364204,115.96163 Z" id="Fill-10" fill="#E6E6E6"></path>
                    <path d="M194.025917,132.648119 C194.025917,138.00721 189.679116,142.352705 184.318414,142.352705 C178.960359,142.352705 174.613558,138.00721 174.613558,132.648119 C174.613558,127.289028 178.960359,122.943533 184.318414,122.943533 C189.679116,122.943533 194.025917,127.289028 194.025917,132.648119" id="Fill-13" fill="#03699C"></path>
                    <path d="M218.191433,124.370242 C218.191433,129.729333 213.844631,134.074828 208.483929,134.074828 C203.125874,134.074828 198.779073,129.729333 198.779073,124.370242 C198.779073,119.011152 203.125874,114.665657 208.483929,114.665657 C213.844631,114.665657 218.191433,119.011152 218.191433,124.370242" id="Fill-15" fill="#17486A"></path>
                    <path d="M242.819424,124.287673 C242.819424,129.646764 238.472623,133.992259 233.111921,133.992259 C227.753866,133.992259 223.407065,129.646764 223.407065,124.287673 C223.407065,118.928582 227.753866,114.583087 233.111921,114.583087 C238.472623,114.583087 242.819424,118.928582 242.819424,124.287673" id="Fill-17" fill="#E7223B"></path>
                    <path d="M266.252972,133.079758 C266.252972,138.438848 261.908818,142.784343 256.548116,142.784343 C251.187414,142.784343 246.840613,138.438848 246.840613,133.079758 C246.840613,127.720667 251.187414,123.375172 256.548116,123.375172 C261.908818,123.375172 266.252972,127.720667 266.252972,133.079758" id="Fill-19" fill="#E4B633"></path>
                    <path d="M285.272478,149.006446 C285.272478,154.365537 280.928324,158.711032 275.567622,158.711032 C270.20692,158.711032 265.860119,154.365537 265.860119,149.006446 C265.860119,143.647356 270.20692,139.304507 275.567622,139.304507 C280.928324,139.304507 285.272478,143.647356 285.272478,149.006446" id="Fill-21" fill="#4B9E46"></path>
                    <path d="M296.758676,170.408141 C296.758676,175.767232 292.411875,180.112727 287.051173,180.112727 C281.693118,180.112727 277.346316,175.767232 277.346316,170.408141 C277.346316,165.049051 281.693118,160.706202 287.051173,160.706202 C292.411875,160.706202 296.758676,165.049051 296.758676,170.408141" id="Fill-23" fill="#C4202E"></path>
                    <path d="M299.347697,194.050598 C299.347697,199.409689 295.003542,203.752537 289.64284,203.752537 C284.282138,203.752537 279.935337,199.409689 279.935337,194.050598 C279.935337,188.691507 284.282138,184.346012 289.64284,184.346012 C295.003542,184.346012 299.347697,188.691507 299.347697,194.050598" id="Fill-25" fill="#EE402B"></path>
                    <path d="M292.094998,217.244743 C292.094998,222.603834 287.748196,226.946683 282.387494,226.946683 C277.029439,226.946683 272.682638,222.603834 272.682638,217.244743 C272.682638,211.885653 277.029439,207.540158 282.387494,207.540158 C287.748196,207.540158 292.094998,211.885653 292.094998,217.244743" id="Fill-27" fill="#27BCE1"></path>
                    <path d="M276.992113,235.974038 C276.992113,241.333129 272.645312,245.678624 267.28461,245.678624 C261.926555,245.678624 257.579753,241.333129 257.579753,235.974038 C257.579753,230.614947 261.926555,226.272099 267.28461,226.272099 C272.645312,226.272099 276.992113,230.614947 276.992113,235.974038" id="Fill-29" fill="#F9C213"></path>
                    <path d="M255.366644,248.467204 C255.366644,253.826295 251.019842,258.17179 245.65914,258.17179 C240.301086,258.17179 235.954284,253.826295 235.954284,248.467204 C235.954284,243.108113 240.301086,238.765265 245.65914,238.765265 C251.019842,238.765265 255.366644,243.108113 255.366644,248.467204" id="Fill-31" fill="#A11C43"></path>
                    <path d="M230.571875,253.028651 C230.571875,258.387741 226.225073,262.733236 220.864371,262.733236 C215.506316,262.733236 211.159515,258.387741 211.159515,253.028651 C211.159515,247.66956 215.506316,243.326711 220.864371,243.326711 C226.225073,243.326711 230.571875,247.66956 230.571875,253.028651" id="Fill-33" fill="#F16A2B"></path>
                    <path d="M205.17856,248.915515 C205.17856,254.274606 200.831759,258.617455 195.471057,258.617455 C190.113002,258.617455 185.7662,254.274606 185.7662,248.915515 C185.7662,243.556424 190.113002,239.210929 195.471057,239.210929 C200.831759,239.210929 205.17856,243.556424 205.17856,248.915515" id="Fill-36" fill="#DC1768"></path>
                    <path d="M183.537737,236.422349 C183.537737,241.78144 179.190935,246.124289 173.830233,246.124289 C168.472178,246.124289 164.125377,241.78144 164.125377,236.422349 C164.125377,231.063259 168.472178,226.717764 173.830233,226.717764 C179.190935,226.717764 183.537737,231.063259 183.537737,236.422349" id="Fill-38" fill="#F89D28"></path>
                    <path d="M167.603877,217.376537 C167.603877,222.735628 163.257076,227.081123 157.896374,227.081123 C152.538319,227.081123 148.191517,222.735628 148.191517,217.376537 C148.191517,212.017446 152.538319,207.671952 157.896374,207.671952 C163.257076,207.671952 167.603877,212.017446 167.603877,217.376537" id="Fill-40" fill="#C6972D"></path>
                    <path d="M160.283938,194.050598 C160.283938,199.409689 155.939784,203.752537 150.579082,203.752537 C145.218379,203.752537 140.871578,199.409689 140.871578,194.050598 C140.871578,188.691507 145.218379,184.346012 150.579082,184.346012 C155.939784,184.346012 160.283938,188.691507 160.283938,194.050598" id="Fill-42" fill="#407F44"></path>
                    <path d="M162.990497,169.794426 C162.990497,175.153517 158.643695,179.499012 153.282993,179.499012 C147.924938,179.499012 143.578137,175.153517 143.578137,169.794426 C143.578137,164.435335 147.924938,160.08984 153.282993,160.08984 C158.643695,160.08984 162.990497,164.435335 162.990497,169.794426" id="Fill-44" fill="#1995D3"></path>
                    <path d="M174.873518,148.392467 C174.873518,153.751558 170.526717,158.097053 165.166015,158.097053 C159.80796,158.097053 155.461159,153.751558 155.461159,148.392467 C155.461159,143.033376 159.80796,138.687881 165.166015,138.687881 C170.526717,138.687881 174.873518,143.033376 174.873518,148.392467" id="Fill-46" fill="#5EBA47"></path>
                    <polygon id="Fill-48" fill="#E6E6E6" points="32.8882432 52.3702606 0.647260274 2.23563434 13.1846849 2.23563434 38.6936849 42.1813717 64.0147295 2.23563434 75.8109212 2.23563434 44.3138185 52.1850081 44.3138185 89.6642404 32.8882432 89.6642404"></polygon>
                    <path d="M96.0516086,20.8815657 C92.8590127,23.885303 90.3467627,27.4474444 88.5148586,31.562697 C86.6829545,35.680596 85.7670024,40.208697 85.7670024,45.147 C85.7670024,50.0879495 86.7147216,54.7166162 88.6075127,59.0382929 C90.502951,63.3626162 93.0972661,67.1285354 96.3904579,70.338697 C103.43217,77.2142121 111.974879,80.6493232 122.021232,80.6493232 C131.78168,80.6493232 140.057016,77.4391616 146.849886,71.0188384 C153.727468,64.5138283 157.163612,56.4685758 157.163612,46.8777879 C157.163612,40.3727778 155.517016,34.3414848 152.223824,28.7865556 C149.134472,23.5174444 144.790317,19.2778081 139.191362,16.065 C133.671824,12.8548384 128.03316,11.2510808 122.267427,11.2510808 C116.504341,11.2510808 111.493078,12.1058889 107.230989,13.8128586 C102.9689,15.5198283 99.2415572,17.8778283 96.0516086,20.8815657 M87.5909647,78.5824343 C83.2865195,74.6921313 79.8900846,70.0502323 77.3990127,64.6593838 C74.9079408,59.2658889 73.6610812,53.832697 73.6610812,48.3571616 C73.6610812,42.8842727 74.2275949,38.1391616 75.3606223,34.1244747 C76.4936497,30.1124343 78.1084784,26.4073838 80.2104031,23.0119697 C82.3096805,19.6165556 84.8192832,16.5598889 87.7445058,13.8419697 C90.6670812,11.126697 93.920564,8.82162626 97.5023072,6.92940404 C104.996701,2.97558586 113.168793,0.998676768 122.021232,0.998676768 C130.503054,0.998676768 138.407773,2.89354545 145.738037,6.68063636 C152.861814,10.3856869 158.542835,15.5304141 162.783746,22.1174646 C167.106722,28.9903333 169.269533,36.6253838 169.269533,45.0226162 C169.269533,58.3184545 164.575941,69.3303939 155.188756,78.0557879 C149.298602,83.5313232 142.196002,87.2972424 133.880958,89.3561919 C129.722112,90.3830202 124.904098,90.8990808 119.426917,90.8990808 C113.952383,90.8990808 108.35078,89.8193232 102.627403,87.6571616 C96.9040264,85.4976465 91.8927627,82.4700909 87.5909647,78.5824343" id="Fill-50" fill="#E6E6E6"></path>
                    <path d="M183.324632,2.2348404 L194.750208,2.2348404 L194.750208,47.4946788 C194.750208,63.3814061 200.039434,73.6523354 210.62318,78.3021737 C214.247279,79.8688808 218.527899,80.6495879 223.470334,80.6495879 C228.410122,80.6495879 232.621913,79.9297495 236.100413,78.4874263 C239.578913,77.0477495 242.45119,74.9676283 244.714598,72.2523556 C249.119639,67.0255879 251.324807,59.3905374 251.324807,49.3445576 L251.324807,2.2348404 L262.750382,2.2348404 L262.750382,47.4946788 C262.750382,68.4440929 255.195101,81.9251838 240.081892,87.9353051 C235.06004,89.9122141 229.254598,90.896699 222.665567,90.896699 C216.079184,90.896699 210.345218,89.9413253 205.466317,88.0279313 C200.587416,86.1145374 196.521225,83.3675071 193.267742,79.7841939 C186.639002,72.5408202 183.324632,62.3942747 183.324632,49.3445576 L183.324632,2.2348404 Z" id="Fill-53" fill="#E6E6E6"></path>
                    <polygon id="Fill-55" fill="#E6E6E6" points="309.66407 12.6087172 276.806275 12.6087172 276.806275 2.23457576 353.94744 2.23457576 353.94744 12.6087172 321.089645 12.6087172 321.089645 89.6631818 309.66407 89.6631818"></polygon>
                    <polygon id="Fill-57" fill="#E6E6E6" points="368.000686 2.2348404 379.426261 2.2348404 379.426261 49.7150626 433.096816 49.7150626 433.096816 2.2348404 444.522391 2.2348404 444.522391 89.6634465 433.096816 89.6634465 433.096816 60.089204 379.426261 60.089204 379.426261 89.6634465 368.000686 89.6634465"></polygon>
                </g>
                <g id="Group-15-Copy-3" transform="translate(0.000000, 3.000000)" fill="#FEFEFE">
                    <path d="M134.59558,185.296121 L128.155999,185.296121 L112.49968,163.767802 C109.066262,159.050676 105.776402,154.207172 103.349596,149.617893 L103.122296,149.681082 C103.496571,155.027158 103.570059,160.116071 103.570059,167.175596 L103.570059,185.296121 L97.5679861,185.296121 L97.5679861,142.880191 L104.59547,142.880191 L120.326985,164.342381 C123.921051,169.307854 126.831509,173.720792 129.104504,178.120504 L129.330094,178.063194 C128.747319,172.393825 128.60547,167.246132 128.60547,160.684771 L128.60547,142.880191 L134.59558,142.880191 L134.59558,185.296121 Z M79.137931,195.838384 L153,195.838384 L153,132.323232 L79.137931,132.323232 L79.137931,195.838384 Z" id="Fill-1"></path>
                    <path d="M55.1030414,167.520116 C55.1030414,180.536733 47.1205855,185.832723 36.4465502,185.832723 C26.3381737,185.832723 18.7316845,180.929083 18.7316845,167.711148 L18.7316845,142.72859 L25.1795128,142.72859 L25.1795128,167.897771 C25.1795128,177.337684 30.0739152,181.369925 36.6635855,181.369925 C43.9043616,181.369925 48.6620489,177.226004 48.6620489,167.897771 L48.6620489,142.72859 L55.1030414,142.72859 L55.1030414,167.520116 Z M0,195.838384 L73.862069,195.838384 L73.862069,132.324702 L0,132.324702 L0,195.838384 Z" id="Fill-3"></path>
                    <path d="M129.049815,230.063144 C125.689885,233.124133 120.207354,234.717082 113.988236,234.717082 C112.08268,234.717082 110.334354,234.655362 108.86118,234.343826 L108.86118,251.331359 L102.495086,251.331359 L102.495086,209.488538 C105.567902,208.985965 109.59264,208.600954 114.712859,208.600954 C121.012301,208.600954 125.614688,209.863263 128.550782,212.132186 C131.249322,214.138067 132.932705,217.213751 132.932705,220.996269 C132.932705,224.827281 131.620179,227.848593 129.049815,230.063144 L129.049815,230.063144 Z M79.137931,262 L153,262 L153,198.484848 L79.137931,198.484848 L79.137931,262 Z" id="Fill-5"></path>
                    <path d="M108.155172,212.121701 L108.155172,227.196806 C109.611094,227.48038 111.528474,227.59596 113.674795,227.59596 C121.786101,227.59596 126.62069,224.604323 126.62069,219.370976 C126.62069,214.181979 121.786101,211.717172 114.433162,211.717172 C111.528474,211.717172 109.307031,211.951019 108.155172,212.121701 Z" id="Fill-7"></path>
                    <path d="M51.8724546,245.483415 C47.1747976,249.454215 39.5652426,251.571876 29.9887895,251.571876 C25.3765755,251.571876 21.6410069,251.458719 18.349742,251.083976 L18.349742,209.362663 C22.312589,208.854189 26.9077144,208.473569 31.9625231,208.473569 C41.1117612,208.473569 47.6173924,210.24441 51.9356824,213.703796 C56.3940989,217.167591 58.9505539,222.133294 58.9505539,228.997692 C58.9505539,235.910586 56.3940989,241.589034 51.8724546,245.483415 L51.8724546,245.483415 Z M0,262 L73.862069,262 L73.862069,198.484848 L0,198.484848 L0,262 Z" id="Fill-9"></path>
                    <path d="M31.6272034,211.717172 C28.1533199,211.717172 25.519892,211.965877 23.7413793,212.277861 L23.7413793,245.857439 C25.4367502,246.120861 27.9057017,246.120861 30.5481668,246.120861 C44.9335149,246.176782 52.7578864,239.558877 52.7578864,228.093434 C52.8410282,217.953926 45.8643422,211.717172 31.6272034,211.717172" id="Fill-11"></path>
                    <path d="M124.150533,81.9089237 C121.438923,83.4097584 118.687841,84.8058836 116.079204,86.5161371 L116.079204,86.3168983 C120.081402,80.6829512 118.118059,72.9562705 120.577386,66.7740533 L121.497274,64.7031342 C120.989277,68.5497501 122.964633,71.8190101 122.830768,75.6888948 C122.681458,78.024496 121.783881,80.0954152 120.335401,81.9583698 L120.577386,81.9583698 C122.540729,79.7856499 124.069871,77.4718631 126.355861,75.3922182 C129.901548,72.493804 133.509019,69.5241292 133.980976,65.4957261 C135.17889,72.2145789 130.737342,78.1030281 124.150533,81.9089237 L124.150533,81.9089237 Z M115.478531,92.3609573 C111.980897,93.1579121 108.230981,93.416777 104.815726,94.3969733 C110.589052,90.2027803 110.266405,83.7049807 114.117577,78.7647333 C115.337801,77.3613365 116.357229,75.8895878 117.786831,74.5676317 C115.452787,78.5553145 116.463634,83.7224322 113.770903,87.5908626 C112.736029,89.1207832 111.244644,90.6128921 109.605665,91.8272302 C110.14627,91.8068701 110.618228,91.4142098 111.079888,91.1509821 C115.464801,87.4541587 121.178059,86.4172449 125.906214,83.4097584 C127.797476,82.1285226 129.539428,80.4560809 130.371789,78.6454809 C129.474212,84.7753434 122.276433,90.5270886 115.478531,92.3609573 L115.478531,92.3609573 Z M111.67198,98.2886724 C104.793416,100.483207 97.8891082,97.7898485 91.3022995,96.8910929 L90.0391699,96.7500261 L90.0391699,96.7180315 C93.181548,96.1130439 96.2363993,95.3175434 98.7454964,93.392054 C102.433629,90.3918389 105.718452,87.3014575 109.815042,84.9309532 C106.777353,88.2307534 106.458138,92.9281332 101.44166,95.0557699 C100.188828,95.7436524 98.6287942,95.8643591 97.3399215,96.3908147 C99.1745485,96.4228092 100.84442,95.8643591 102.661884,95.7116579 C109.389422,94.8201737 117.091767,95.7334724 121.804476,90.8746656 C120.05051,94.2573608 115.674178,97.0946945 111.67198,98.2886724 L111.67198,98.2886724 Z M105.107482,103.639032 C98.9926304,105.57761 92.6066181,103.553228 87.8304094,100.484661 C85.9031071,99.4404758 84.1903309,97.9396411 81.6778015,98.0821622 C80.7819405,98.0632564 79.8998093,98.0981595 79.132664,98.2886724 C83.7750084,100.119633 88.0895569,102.639929 92.0368368,105.874286 C91.3657992,106.512723 90.5111273,107.113347 89.6993606,107.668889 C85.9031071,104.201845 81.6778015,100.858415 76.9702412,98.908203 C76.0589344,99.0114581 75.1716545,99.4782875 74.3461582,99.8534962 C70.5052832,101.912781 66.7107459,104.558147 63.8635558,107.788141 L61.4093775,106.079342 C65.3274818,102.730096 69.65576,100.119633 74.3787661,98.2508607 C69.7364218,97.0088909 66.6970163,100.305783 63.1719237,101.984041 C59.053023,104.417081 53.1424004,105.561612 48.1602468,103.884808 C45.4829613,103.02241 42.9034997,101.757171 40.9659002,99.700795 C44.8857207,101.984041 50.7105328,102.228363 55.153797,100.743526 C61.1296354,98.546083 67.32,95.7683755 74.517779,97.0946945 C75.6453281,97.112146 76.7437016,98.0632564 77.807751,97.2517586 C83.1485923,96.0752322 89.2016601,96.8896386 93.8062479,98.9605577 L98.5601458,100.564647 C102.965653,101.947684 108.677196,101.572475 112.447706,99.284866 C110.510107,101.339788 107.861997,102.814445 105.107482,103.639032 L105.107482,103.639032 Z M31.4220639,91.4462044 C36.8384184,96.6831284 45.7197981,94.9350632 52.9553337,96.3006482 C53.9661806,96.4228092 54.9100953,96.7660233 55.9964554,96.6278651 C55.1332025,96.16249 53.9352888,96.2133904 52.9930903,95.7989157 C47.3261694,94.1032053 46.492092,88.9055473 43.4080651,85.4021454 C47.3467639,87.6112228 50.6470331,90.5983491 54.2785306,93.4836747 C56.8940325,95.4164356 60.0243971,96.3151912 63.3263825,96.8910929 C62.5352103,97.1310519 61.4917555,97.058337 60.6370836,97.2517586 C54.7092989,98.4980912 48.0967471,100.515201 41.7982614,98.6987842 C37.7033875,97.6095157 33.4780819,94.8696198 31.4220639,91.4462044 L31.4220639,91.4462044 Z M22.7157375,79.3333635 C26.1018172,85.8268002 34.5798878,86.3634359 40.2725519,90.3205784 C41.3074257,91.0986274 42.4195289,91.7719669 43.5951318,92.2417049 L43.6551991,92.1864416 C42.3440157,91.1844309 40.8423331,90.0471705 39.9224453,88.7528461 C36.5998654,84.8291524 37.7668873,79.3333635 35.2766685,75.1202646 C37.5437801,77.4165998 39.5980819,79.7943757 40.9659002,82.404839 C43.0099047,86.6601125 43.7787661,91.459293 48.4949075,94.6776526 C43.3840381,93.2597129 37.4202131,93.6596446 32.9306113,90.9953723 C28.0205384,88.4387179 23.6339091,84.1020038 22.7157375,79.3333635 L22.7157375,79.3333635 Z M19.08424,66.2039689 C19.5767919,71.9251738 26.8363545,74.9486576 30.2018396,79.6809405 C30.9981604,80.6495024 31.6915087,81.7184108 32.7504094,82.527 C32.5787886,81.924921 31.916332,81.4071912 31.669198,80.784752 C30.485014,78.7996364 30.0576781,76.4349493 30.3425687,74.0295418 C30.6720808,71.1122217 32.1171284,68.3955947 31.5696579,65.3212105 C34.5215367,70.7297416 33.627392,77.4718631 35.2783847,83.3254091 C35.7074369,84.6051906 36.5861357,85.7439053 37.1524846,86.9698778 C31.077106,83.4606588 22.7963993,80.1274097 20.1002356,73.7008706 C18.9658216,71.4859761 18.8439708,68.7431717 19.08424,66.2039689 L19.08424,66.2039689 Z M19.2850365,55.6632232 C19.635143,54.3878046 19.9080202,53.0702114 20.5584633,51.9009565 C19.3107796,57.292036 23.5910039,61.1764636 24.998295,65.8607547 C25.5869546,67.6015484 25.7362647,69.4863175 26.5737745,71.128219 C26.6527201,71.1645764 26.7196523,71.0933159 26.7728547,71.0409612 C24.677364,66.0658106 27.6927426,61.4527801 30.7269994,57.5625352 C31.4581043,56.5081698 31.8957375,55.3330977 32.2561413,54.1289397 C32.5787886,56.3743745 31.9146158,58.9673863 31.521604,61.2971703 C30.7904992,64.2682994 29.686977,67.0823643 28.732765,69.9720528 C28.0960516,71.7637468 28.2625238,73.80558 28.5886035,75.6888948 L28.2848345,75.4823846 C26.0520471,72.0095231 21.6551206,69.2958046 20.3576669,65.4957261 C19.2713068,62.4693338 18.557364,58.9673863 19.2850365,55.6632232 L19.2850365,55.6632232 Z M21.6431071,49.8620319 C21.5161077,45.7812741 23.5120583,42.448025 26.3352215,39.408544 C26.4073023,39.3721866 26.4725182,39.3052889 26.5720583,39.3183776 C23.4760179,43.3118775 26.0331688,48.3393827 25.8975883,52.8811527 L25.4874145,57.5305407 C25.5406169,57.5625352 25.5406169,57.7021478 25.6916433,57.6483388 C25.8718452,57.1364262 25.9181828,56.5794304 26.0331688,56.044249 C26.7728547,52.2921624 30.608581,49.6322529 33.9706338,47.0406954 C34.6914414,46.3746273 35.3075603,45.6765647 35.68341,44.8883356 C35.4191139,46.749836 34.7206169,48.6331508 33.8093102,50.3637644 C31.1989568,54.6815726 26.3626809,58.2198775 25.4874145,63.1601249 C25.0652271,58.4322049 21.2466629,54.8895371 21.6431071,49.8620319 L21.6431071,49.8620319 Z M29.8139764,36.0869293 C31.2607403,34.5511915 33.1159619,33.4793745 35.1960067,33.0329053 C31.1663489,35.3801409 31.4220639,39.5961483 30.1383399,43.1053673 C29.7298822,44.4011461 29.0176556,45.595124 28.6692653,46.9199887 L28.7773864,46.9927036 C29.4518564,45.4845975 30.6291755,44.0739292 32.0896691,42.8435938 C34.9711834,40.5996134 39.2136511,39.2005795 40.6209422,35.8818734 C40.5591587,40.494904 36.0112058,44.1190124 31.669198,46.7178414 C29.8671789,48.0456147 28.1389568,49.5682638 27.1572855,51.2727001 C27.0577454,50.1165339 27.3683791,48.9429161 27.2671228,47.6980377 C26.7934492,43.6725432 26.4502075,39.0784185 29.8139764,36.0869293 L29.8139764,36.0869293 Z M46.2003365,28.3355255 C43.2038362,30.5606002 41.1237914,33.379028 38.9047336,36.0083973 C36.9070667,38.0953137 34.3619293,39.476896 32.0896691,41.2744072 C33.3167583,39.1307732 33.3613797,36.5726646 35.0947504,34.6050005 C37.5643746,30.956169 42.132922,29.6792961 46.2003365,28.3355255 L46.2003365,28.3355255 Z M57.9924061,28.6772854 C63.6387325,26.3140525 69.8187998,25.0517226 76.5446214,24.9484675 C91.9132698,24.9688277 106.595435,32.6140677 113.281784,44.6730996 C117.522535,51.6042798 118.72903,61.1444691 115.977947,68.9685877 C113.180527,78.2106461 104.009108,87.5588681 93.3239933,91.3618551 C81.2985193,96.3544572 64.2033651,95.1081246 53.483926,88.5928734 C38.5769377,79.9412597 32.4809647,65.0274425 36.9860123,50.3055925 C39.7216489,41.5652667 47.9388559,32.7391373 57.9924061,28.6772854 L57.9924061,28.6772854 Z M114.709669,31.4928046 C117.706169,33.755691 119.051677,36.6962798 119.935524,39.7372151 L120.419495,40.7014142 C116.079204,38.0633191 112.142221,34.4988368 109.370544,30.7511131 L105.982748,27.848336 C108.96037,28.9172444 112.164532,29.5556808 114.709669,31.4928046 L114.709669,31.4928046 Z M125.317555,39.8230187 C126.266618,43.4529443 124.888503,46.9927036 125.760337,50.6560781 L125.717431,50.685164 C123.393685,46.8021907 118.43899,44.9726849 115.034033,41.860489 C113.053528,40.0135316 112.200572,37.7637339 111.716601,35.3801409 C113.673079,39.3707323 118.92811,40.2520363 121.95207,43.602737 C122.964633,44.3793316 123.294145,45.4540572 123.946304,46.3382699 L124.04756,46.2481035 C122.310757,43.1053673 121.723814,39.5612452 120.531049,36.2134532 C119.906349,34.7577017 118.708435,33.3266733 117.091767,32.4090118 C121.054492,33.1012573 124.497207,36.6075677 125.317555,39.8230187 L125.317555,39.8230187 Z M127.854111,40.6156106 C131.475311,44.7632661 132.2682,51.3643208 129.632103,56.1140553 C128.660729,58.134074 127.963948,60.2791623 127.577801,62.5071455 C127.387302,62.1261197 127.352978,61.6083899 127.191655,61.1764636 C125.760337,56.52853 120.561941,53.2127325 118.418396,48.8236637 C117.750791,47.3868181 117.177577,45.9048893 116.853214,44.3473371 C119.130623,47.9219995 124.758071,49.7733197 126.290645,53.7115564 C126.920494,54.7164757 126.886169,55.9555369 127.265451,57.0302625 C127.352978,57.0302625 127.431924,56.9793621 127.431924,56.9081015 C126.760886,52.8477039 126.963399,48.5967933 127.61899,44.591659 C127.577801,42.4131219 127.332384,40.3072996 125.906214,38.6275864 C126.820953,39.0784185 127.23456,39.9437253 127.854111,40.6156106 L127.854111,40.6156106 Z M131.248772,67.5171992 C129.106943,70.0869422 126.515468,72.493804 124.534964,75.1188103 C124.758071,73.0435283 125.046394,70.4868739 124.085317,68.5177556 C122.437757,64.2842966 120.98756,59.9868486 120.531049,55.334552 L120.577386,53.5559466 C121.82507,58.3056811 127.332384,61.5763953 126.978845,66.8991229 C127.105844,68.1919931 126.630454,69.2798073 126.355861,70.418522 L126.450252,70.5057798 L126.699103,70.2643665 C127.514302,67.6568117 127.919327,64.9067358 129.187605,62.4693338 C130.998205,58.9688406 133.24129,55.4247184 132.328267,51.1927137 C135.072485,56.1867701 134.250421,62.8532682 131.248772,67.5171992 L131.248772,67.5171992 Z M0,129.676768 L153,129.676768 L153,0 L0,0 L0,129.676768 Z" id="Fill-13"></path>
                    <path d="M93.3835451,79.3939394 L93.679491,79.1248273 C94.9524149,78.469087 96.3269588,77.852127 97.4519097,77.0447907 L97.6034483,77.0447907 C97.3431585,76.9907333 97.0222533,77.1564311 96.7352215,77.0753449 C96.13085,76.8931948 96.0327957,76.5418214 96.0327957,76.1387409 L93.4263325,74.3642464 L93.2854907,74.1010101 C93.0911648,74.4371064 92.7060786,74.6439349 92.3299064,74.8918941 C92.3513001,75.1187003 92.2265036,75.4547966 92.6312007,75.6052174 C93.476251,75.7897178 94.5762427,76.1551931 94.7652202,76.807408 C94.4247041,77.424368 92.6436804,77.9802196 93.7401064,78.6512371 C94.1002333,78.9838079 93.2391378,79.1095502 93.3835451,79.3939394" id="Fill-16"></path>
                    <path d="M80.5470565,49.8396739 C80.997582,50.0203817 81.2458643,49.6883018 81.6273312,49.6167227 C82.1682906,49.6601395 82.5941523,49.9945663 82.9279358,50.2433329 C83.2765176,50.3548085 83.6152339,50.2034364 83.9259978,50.120123 C84.1413951,48.9631237 86.1704041,49.1297504 86.7754895,48.0443302 L86.4071767,48.1428981 C86.2493283,47.9868322 85.8629287,48.0560644 85.8826598,47.8072979 C86.2131547,47.5784795 86.6439492,47.2323185 87.0517241,47.1360975 C85.3022382,46.3545949 83.4787608,45.6845679 81.4826368,45.3254992 C80.7065491,45.1964222 79.8811337,45.1823411 79.137931,44.989899 C79.5128209,45.7843093 79.1823259,46.9542162 79.4174542,47.8765301 L80.8134256,48.2050897 C81.2343545,47.7228111 82.1271843,47.6265901 82.5185167,47.1654331 C82.7700875,47.0105407 83.0611204,47.1654331 83.2650078,47.3308864 C83.3274895,47.7075565 83.1877279,48.0818798 83.0298796,48.4444689 C82.4987856,49.1989826 81.2458643,49.2905099 80.5470565,49.8396739" id="Fill-18"></path>
                    <path d="M101.022855,62.4484058 C100.117135,64.6419504 99.067365,66.777734 97.2703307,68.690725 C96.5680829,69.3756061 95.8748382,70.3286634 94.9655172,70.6834813 L96.9102036,71.9927318 C97.0092386,71.9115912 96.9534189,71.779566 96.9786278,71.6667944 C96.9786278,71.471507 97.0992703,71.2404628 97.4215841,71.2720939 C98.3597152,71.2542155 98.3795222,72.0243628 98.9179122,72.4176881 C98.8062728,73.0406822 99.5175238,73.5289006 99.2780393,74.1010101 C104.674544,69.7538034 107.370095,64.4274094 107.867071,58.5302812 L108.155172,58.2689812 C106.233894,58.4133838 104.200977,58.3116143 102.214876,58.3336185 L101.739508,58.2222222 C101.876356,59.2165375 101.528834,60.1805969 101.449606,61.1625348 L102.14285,61.7470216 C102.349924,61.9766905 102.276097,62.3205063 102.0006,62.49654 C101.696293,62.6491942 101.314558,62.6354415 101.022855,62.4484058" id="Fill-20"></path>
                    <path d="M92.437847,44.989899 L92.3490038,45.2156807 C90.6118007,46.986121 88.7048435,48.818846 87.0517241,50.6359997 C87.1596052,50.8539959 87.3468107,51.0595352 87.5657459,51.1685332 C87.6339648,50.7263124 87.8830433,50.3339193 87.9258784,49.8745703 C88.3700947,49.2657381 89.0538706,49.6519028 89.6329383,49.7811433 C90.5388223,49.5771612 91.3860063,49.9851255 92.3093416,49.9711114 C92.9931174,50.2996628 93.0518175,51.151405 93.6705473,51.4846277 C93.8403014,51.7197521 93.7070365,52.0031471 93.4785824,52.1884439 C93.6705473,53.5758338 94.3463907,51.8178504 95.0650693,52.149516 C95.3633288,52.2616283 95.7409127,52.2227004 95.9630209,52.5372378 C96.0772479,53.1118134 96.79434,53.0059295 96.8340021,53.5540342 C96.7737156,53.8296436 96.4754561,53.902828 96.2787317,54.0569825 C96.4564183,54.6082014 95.70601,54.9585523 95.9630209,55.5533705 C97.0561103,55.7573526 97.0957725,54.5147744 97.6034483,53.9619984 C97.3242266,53.0059295 97.1148103,52.0218325 96.5547805,51.1685332 C95.9344641,51.0408498 95.5584667,50.315234 94.9318044,50.1891076 C93.7260744,49.721973 95.1174234,48.9854573 94.9619476,48.2816411 C94.3273529,47.0997905 93.3120013,46.0425091 92.437847,44.989899" id="Fill-22"></path>
                    <path d="M79.4411014,84.6868687 C80.9743771,84.1956187 82.75681,84.2750126 84.4137931,84.0169823 C84.0844873,83.8978914 83.7464697,83.8251136 83.4973124,83.5042298 C82.528561,83.4479924 82.072063,82.4869949 81.7636656,81.7559091 C81.6155651,81.2332323 81.9953993,80.7965657 82.2219059,80.3433586 C81.8107092,79.5378409 80.5248485,80.1200631 79.7756343,79.8339141 C79.5717783,79.6734722 79.4219355,79.4352904 79.137931,79.3939394 L79.4411014,79.8339141 C79.4411014,81.4449495 79.6484421,83.0973359 79.4411014,84.6868687" id="Fill-24"></path>
                    <path d="M80.552937,70.6744641 C81.1102835,70.7412419 80.7152709,71.1204041 81.1247131,71.2550915 C82.0031201,71.0773946 82.675904,71.7225362 83.3721362,71.3196057 C83.3378657,70.6869142 84.4742031,70.7412419 85.0928758,70.5805224 C86.0632719,70.2183377 87.1509092,69.7350474 87.0444903,68.924659 L86.8839601,68.8080808 C86.2219984,68.8080808 85.8847046,69.1283879 85.3995065,69.3830491 C84.7880487,69.6003599 84.4850254,68.9789867 83.9962199,69.1283879 C84.0214719,69.1962976 84.1278908,69.2245933 84.2162726,69.2506253 C84.3407286,69.3468306 84.3840176,69.5460322 84.2162726,69.6411057 C83.4857699,70.0576182 83.1466724,69.436245 82.4540476,69.4769908 L82.4540476,69.6411057 C82.482907,69.7350474 82.414366,69.882185 82.2033319,69.8267254 C81.7686377,69.3830491 80.8920345,69.5460322 80.4591441,69.1589473 C80.1885875,69.062742 79.9270495,69.1827157 79.7376599,69.2913711 C79.5843446,69.4939682 78.9007384,69.2642072 79.0684834,69.6162055 C78.5381926,69.7350474 78.4768665,70.0949685 78.0890688,70.3134112 C77.4180885,70.2409742 77.1258875,70.714078 76.5,70.7038916 C76.5613261,70.7842513 76.5,70.9189388 76.6857822,70.9291252 C77.078991,71.0366488 77.4613776,71.061549 77.9357534,71.0230669 C78.5778742,70.380189 79.6492781,70.9189388 80.552937,70.6744641" id="Fill-26"></path>
                    <path d="M84.4137931,63.8905554 C84.4612759,64.2590868 84.5298621,64.7574417 84.9255517,65.0757188 C86.1495517,64.9312378 85.6272414,66.2734459 86.7483621,66.1540919 C87.3788276,66.0033291 86.787931,65.5803556 86.9620345,65.2578906 C86.787931,64.5082643 85.8672931,64.4307889 85.2394655,63.9868761 C85.1708793,63.8382072 85.3080517,63.7146654 85.3898276,63.5911236 C84.9255517,63.3922004 84.7092414,63.6162508 84.4137931,63.8905554" id="Fill-28"></path>
                    <path d="M85.1572443,40.791168 C83.2640225,40.2080486 81.1962594,39.9661017 79.137931,39.6969697 L79.3266242,40.0503754 L79.2857407,44.4230907 L79.7779155,44.3428948 C82.8724841,44.7112522 85.7107444,45.5702998 88.1621837,47.2965505 L88.2942689,47.6363636 C89.1260915,46.6182835 90.4013431,45.7456434 91.3872651,44.7805741 L92.3275862,44.3102727 L91.8747225,44.1485217 C89.8211114,42.6642179 87.5866694,41.5373976 85.1572443,40.791168" id="Fill-30"></path>
                    <path d="M47.7843545,58.6072998 L48.3173116,62.145807 C48.5342127,63.5081403 49.3005968,64.8170805 49.2468879,66.1616162 C49.5133665,65.873617 49.3481084,65.2960006 50.0132719,65.2377535 C49.7364648,64.8170805 50.5276375,64.4514186 50.0835066,64.0857567 C50.3004077,63.166748 50.4429428,62.2202337 51.4840683,61.5503929 C52.7379634,61.5083256 52.8309211,60.218801 54.086882,60.160554 C54.7210596,60.1379024 55.1156131,60.8158331 55.3965517,61.0439673 C54.605379,60.3029356 54.6446278,59.0684221 54.8450031,58.2222222 L54.3017174,58.416379 C52.0232225,58.3791656 49.6455729,58.5231652 47.4827586,58.2804693 L47.7843545,58.6072998 Z" id="Fill-32"></path>
                    <path d="M84.6345146,68.0685727 C85.3757732,67.2878656 86.9664456,67.3143303 87.0376697,66.1922292 C85.9350146,66.0175626 85.3757732,66.6209565 84.6345146,67.2243505 C84.5316352,67.4625323 84.1939801,67.9018454 84.6345146,68.0685727" id="Fill-34"></path>
                    <path d="M97.6034483,58.2222222 L98.0494162,58.6017782 C98.4953842,58.8645478 98.1972577,59.4182407 98.6737714,59.642429 C99.2345914,59.8906002 99.4410806,60.4484642 99.6952213,60.8686869 C99.7770839,60.7591996 99.7770839,60.6226011 99.8247353,60.5110283 C100.02145,59.8290788 99.992126,59.0626677 100.241379,58.393231 C99.3689927,58.4307695 98.3646484,58.5048038 97.6034483,58.2222222" id="Fill-36"></path>
                    <path d="M84.4177541,70.1231112 C85.1585428,70.4518947 86.0564686,70.4709758 86.8352465,70.7469191 C87.5345925,70.9025041 88.0077303,71.640799 88.8814811,71.410357 C89.6274502,71.0610247 90.855191,71.6187823 91.3473233,70.9582798 C91.2661647,70.3109875 91.924068,69.8398291 92.253883,69.2850071 L92.4956322,69.2321669 C92.9083327,69.5961771 92.8876114,70.1407246 93.0706501,70.5384939 C93.6439411,70.0174308 94.0946308,69.4391243 94.6109381,68.9019157 C95.9612802,67.2257073 97.1164962,65.4320763 97.6034483,63.5151515 C97.0543321,63.5327649 96.4948553,63.613493 95.9889087,63.7544002 C95.3931695,63.7250445 94.6696486,64.0186011 94.1619752,63.6692687 C93.9806633,63.5327649 93.849428,63.7397223 93.8787832,63.8791617 C93.6663893,64.1404271 93.4609024,64.4692106 92.9894914,64.3503201 C92.6199604,64.2108807 92.6199604,63.8791617 92.4956322,63.6355097 C92.5180804,63.8263215 92.4386485,64.0039233 92.3937522,64.1756539 C91.9637839,64.5558098 91.8152808,64.9256911 91.514821,65.3425415 C91.083126,65.7461819 90.3855067,65.6038069 89.9296367,65.9340581 C89.8484781,66.7736301 88.7606065,66.5945606 88.1475995,66.8616971 C88.1061568,66.9644419 88.2494795,66.9820553 88.3081901,67.0715901 C88.6017427,67.1391081 88.9868147,67.1391081 89.1923016,66.8939883 C90.0591453,67.0906713 89.8691994,66.1659679 90.3716925,65.8474589 C90.799934,65.7960865 91.2109077,65.4834487 91.6495099,65.7315041 C92.1088334,66.1967913 92.2107135,66.8749071 92.1468226,67.4884405 C91.6495099,67.9023553 91.9068002,68.5863423 91.5562638,69.0751141 C91.6339689,69.6519528 90.8102947,69.9102827 90.9190818,70.490057 C90.6548845,70.7469191 90.1955609,70.7865492 89.786314,70.7865492 C88.1735012,70.2625506 86.4639887,69.9308316 84.6560498,69.7869889 C84.4954592,69.8398291 84.3918524,69.9616551 84.4177541,70.1231112" id="Fill-38"></path>
                    <path d="M76.183996,87.3666467 L76.3981765,87.0965381 L75.7503683,87.2420966 C67.6202881,86.7604028 60.420664,84.302414 54.4815446,79.3939394 L54.4165883,79.6100263 L50.1206897,83.3000108 C56.6233494,88.1169486 63.970442,91.220197 72.3498143,92.1985906 C73.6875645,92.3936691 75.2149171,92.2871262 76.5,92.6262626 L76.183996,92.1985906 L76.183996,87.3666467 Z" id="Fill-40"></path>
                    <path d="M75.038641,68.8080808 C75.1606978,68.4165089 74.9678179,67.9249094 75.2164521,67.5906705 C75.3942633,67.2674102 75.874956,67.2844881 76.2350989,67.3406012 C76.4475681,67.325963 76.5786662,67.1112694 76.4475681,66.9612279 C75.9322173,66.8819376 76.1672896,66.4159549 75.983451,66.1536871 C76.0090678,66.0097448 76.3089357,66.0378014 76.2350989,65.8487246 C75.874956,65.6169531 76.4114032,65.3583449 76.1100284,65.1119352 C76.1959202,65.0631412 76.2622226,64.9777517 76.3526351,64.926518 C75.2706996,65.2949127 74.1149273,64.7593985 73.1580624,64.4154008 C72.6864108,64.1933881 72.0113313,63.9811342 71.907357,63.5151515 C71.1373444,64.5300667 69.6591011,65.4571528 68.5862069,66.4000968 C70.5059643,67.6797195 72.6517527,68.4714022 75.038641,68.8080808" id="Fill-42"></path>
                    <path d="M66.0722133,61.7803067 C65.8508057,61.684994 65.8240841,61.7065162 65.6408503,61.8663956 C65.5301465,61.8663956 65.3927211,61.8863805 65.3030129,61.8310376 C65.3030129,60.7902845 63.856229,61.4144289 63.3103448,60.8686869 C63.9459372,61.81259 64.2837746,62.8902384 64.9384539,63.8387535 C65.35073,64.6781202 66.2497211,65.3391598 66.6658146,66.1616162 C67.0971776,65.5021138 67.9579949,64.9732821 68.5745005,64.3706598 C68.6164916,64.1000948 68.5458702,63.8587384 68.3569103,63.6588892 C68.1564983,63.2714892 68.3416408,62.7303591 67.9732644,62.4013765 C67.3930239,62.5658678 68.1851286,63.0378194 67.9293646,63.3176083 C67.6850529,63.4421297 67.4102021,63.2714892 67.3930239,63.0916249 C66.8681353,63.0224464 66.4596765,62.653494 66.2955295,62.2676313 C66.7288012,62.0508718 66.1886431,61.9570964 66.0722133,61.7803067" id="Fill-44"></path>
                    <path d="M70.9471552,64.0497374 L69.881431,63.5151515 C69.6862241,64.2985051 69.1612759,64.9839394 68.5862069,65.5555758 L68.6890862,65.613798 C69.4408966,65.0792121 69.9843103,64.1106061 70.9471552,64.0497374" id="Fill-46"></path>
                    <path d="M75.7384067,77.7296548 C70.5838288,77.5468357 66.0766944,76.215408 62.0689655,74.1010101 C62.1938169,74.4590835 62.8697979,74.6898138 62.6825208,75.1361447 C62.3204518,75.5459117 61.5802616,75.5534766 60.9916766,75.5459117 C59.7770511,75.4059605 58.8870392,76.052762 57.7526754,76.1397587 C56.7092747,76.3667066 56.3472057,75.4652191 55.3965517,75.5459117 C61.2841855,79.1783389 68.0154578,81.4553828 75.9060642,81.7567192 L76.5,82.040404 L76.2395957,81.5335537 L76.2395957,77.5770954 L75.7384067,77.7296548 Z" id="Fill-48"></path>
                    <path d="M52.7586207,75.7620777 C52.0235935,75.3561804 51.3720508,74.7070275 50.7549909,74.1455598 C50.0399274,73.9970608 49.3049002,73.6109633 48.9401089,73.0763669 C48.7277677,72.8854396 48.9255898,72.5573274 48.6860254,72.4201426 L48.4192377,72.6718838 C47.6624319,72.9547391 47.3956443,72.3494288 46.8747731,72.1019305 C46.2032668,71.8176609 46.5317604,70.8248389 45.6170599,71.0072806 C45.2794918,70.9917235 45.168784,70.6904826 44.9509982,70.523598 C44.1161525,70.5872405 43.8965517,69.8659595 43.4428312,69.515219 C43.3575318,69.6651323 43.4428312,69.8659595 43.185118,69.9649589 C42.323049,70.119115 42.0254083,69.2960062 41.4337568,68.9551655 C41.2849365,69.0060795 41.1778584,69.1475071 40.9582577,69.110736 C40.4500907,68.7571669 40.1034483,68.2508559 40.0725953,67.6978739 C39.3647913,67.0713494 39.6896552,66.0841845 39.8203267,65.3247181 C39.9509982,65.1253052 40.323049,65.012163 40.2486388,64.7575933 C40.4500907,64.4054385 40.9255898,64.3700816 41.3774955,64.3545245 C41.5499093,64.4238241 41.722323,64.5553518 41.8039927,64.6755653 C42.0852995,64.5383805 42.7150635,64.689708 42.4754991,64.2017827 C42.8384755,63.95287 43.3811252,63.8623564 43.8784029,63.7972996 C44.2214156,64.1381403 44.3901996,64.5242377 44.8511797,64.8382071 L44.5499093,64.4733238 C44.0290381,62.8256918 43.6243194,61.1455315 43.508167,59.3635432 C43.5299456,59.2645439 43.2377495,59.21363 43.4029038,59.1160449 L43.4428312,59.1641303 C43.4718693,58.7935899 43.4283122,58.4739634 43.508167,58.2222222 L42.9292196,58.3919354 L36.9310345,58.359407 C37.2758621,63.7308287 39.1107078,68.6199821 42.215971,73.1131381 C43.7459165,75.3250663 45.9872958,77.3234388 47.9455535,79.3939394 L52.2359347,75.9303766 L52.7586207,75.7620777 Z" id="Fill-50"></path>
                    <path d="M76.4522297,31.7575758 C70.128177,32.0584277 64.463722,33.5995564 59.3908837,36.3337696 C58.0367794,37.0873742 56.7947516,38.0680925 55.3965517,38.734686 C57.0207419,39.5561297 58.3491237,40.9261858 59.8061178,42.0071881 L59.9586153,42.3434343 C63.675512,39.4897653 68.1898053,37.8262311 73.0587011,37.0180602 C74.2125376,36.9266248 75.3755607,36.6139748 76.5,36.8071689 C76.419158,35.14216 76.235426,33.4063623 76.4522297,31.7575758" id="Fill-52"></path>
                    <path d="M61.4132795,44.989899 C58.5845194,48.0960261 56.6520515,51.5189433 55.8921892,55.4170457 C55.6659574,56.3183136 55.7902985,57.3684729 55.3965517,58.2222222 C56.1218748,57.9149358 57.1649585,58.0321482 57.961087,58.1240173 C57.4999887,57.9006803 57.8868277,57.3526333 57.6122411,57.0516827 C57.5517975,56.5860013 57.4654495,56.0015235 57.961087,55.695821 C57.9075512,54.9244371 58.8003894,54.5284494 58.8901913,53.8330951 C59.1146961,53.0442877 60.0973362,53.5749112 60.5705232,53.1583322 C60.877922,53.0062729 60.6136972,52.7433371 60.6136972,52.5390075 C61.0212597,52.0258075 61.6602348,52.0495668 62.1472374,51.7644557 C62.4995372,51.2750149 62.9520007,50.7475594 63.5236244,50.4529446 C64.7584006,50.4909594 64.7791241,48.9054248 65.9482759,48.86741 C64.3473842,47.7586446 62.8259326,46.272899 61.4132795,44.989899" id="Fill-54"></path>
                    <path d="M57.2400926,60.1792292 C57.3188369,59.9625714 56.5823469,59.9048635 56.6564591,59.6882057 C57.1845085,59.2427411 56.6842512,58.520886 58.0344828,58.3285263 C57.0756562,58.4004081 56.2210499,58.4844389 55.3965517,58.2222222 L55.7972208,58.5107618 C55.859753,59.3044987 56.5823469,60.0617885 56.1909418,60.8686869 C56.5012867,60.6388676 56.5823469,60.32603 57.2400926,60.1792292" id="Fill-56"></path>
                    <polygon id="Fill-58" points="60.7937586 74.3180202 60.6724138 74.1010101 60.7937586 74.4926869"></polygon>
                    <path d="M56.0850258,39.6969697 L56.0502728,39.9990632 L53.6980475,42.2000299 C49.8569331,46.0881346 48.0241728,50.592564 47.4827586,55.4934911 L53.4438023,55.4139218 L54.0071658,55.5757576 C53.7675534,55.4584266 53.8242556,55.2682696 53.7437751,55.1104797 C54.2248289,50.5426646 56.3978022,46.4765405 60.6724138,43.0766404 C59.0225637,42.0206619 57.4751433,40.9026463 56.0850258,39.6969697" id="Fill-60"></path>
                    <path d="M71.7653981,72.6864886 C72.2629776,72.2992011 72.8460192,72.0446978 73.4613465,71.8814838 C71.4558353,72.1774821 69.6915171,71.1276564 67.9803754,70.5494914 C67.0080063,70.023887 65.7450659,69.5951044 65.1620243,68.8080808 C63.8269159,69.9906909 62.2506144,71.2217119 60.6724138,72.1595009 C61.3656066,72.192697 61.7530349,72.7528807 62.3436732,73.0004681 C65.7298726,75.0517087 69.9441052,76.040675 73.862069,76.7474747 L72.7928428,76.3795516 C71.9743055,75.7114807 70.8196172,74.9189244 70.7797349,73.9866681 C71.5887763,73.7833421 71.5014151,73.1332524 71.7653981,72.6864886" id="Fill-62"></path>
                    <path d="M57.0050271,58.2682853 L56.8512792,59.1965412 C56.6148711,59.747878 55.8494379,59.3384402 55.500612,59.7109251 C55.2460187,60.0597601 55.5121845,60.4292888 55.7271009,60.7071743 C55.1815438,61.8349758 56.971963,62.1897233 56.9488182,63.2022317 C57.4993349,63.8348648 56.8711176,64.7468615 57.6613489,65.3100231 C57.833282,66.4526057 57.4811497,67.9987136 58.6036748,68.8929729 L58.8037124,69.9852996 C59.0302013,70.7376599 57.7952583,70.5395925 57.9556191,71.2136128 C58.1953336,71.1057104 58.2465829,71.3880303 58.2664213,71.4545455 L58.2664213,71.4220269 C59.7807556,69.8596598 61.5265384,68.2086058 63.3103448,66.8250906 L62.5664033,66.1540266 C61.1727528,64.2916022 60.0717194,62.3064943 59.5443475,60.1307096 L58.9756455,59.8705615 C58.9541539,60.4292888 58.6582305,60.8697669 58.6995606,61.4299724 L58.5011762,61.6413427 C58.0911817,61.6265616 57.833282,61.3235481 57.4811497,61.1313932 C57.4001427,60.9392383 57.1835731,60.6243999 57.524133,60.4647635 C57.719211,60.4514605 57.8531205,60.5031945 57.9986023,60.5844908 C58.1721887,60.3967703 58.0911817,60.1159285 58.1953336,59.8705615 C58.2465829,59.4463426 57.833282,59.0590766 58.125899,58.6925042 C58.5011762,58.6585075 58.7805675,59.0590766 58.9326623,59.2867062 C59.3079394,59.3916524 59.6022096,59.116723 59.9163183,58.9910833 C59.9163183,58.6925042 60.3841748,58.2860226 59.8766414,58.1130832 C60.1560328,57.4272381 59.954342,56.7073963 59.8320049,56.0422447 C59.6220481,55.4628238 58.8946386,55.5662918 58.3639603,55.6165477 C56.7752318,56.071807 58.6235132,57.1463963 58.231704,58.0229183 C58.0068684,58.5343459 57.4199812,58.0613492 57.0050271,58.2682853" id="Fill-64"></path>
                    <path d="M109.664314,58.4253759 L109.307004,58.2222222 L109.517081,58.6764964 C109.183113,64.2575795 106.81481,69.1826454 102.749733,73.5645574 C101.970474,74.2981679 101.230716,75.2010732 100.241379,75.7216545 C101.868128,76.7261366 103.661862,78.2356813 104.997735,79.3939394 L105.164719,79.1442297 C111.695057,73.2936858 115.40462,66.5162534 115.810409,58.6764964 L116.068966,58.2744214 L115.752952,58.3971601 L109.664314,58.4253759 Z" id="Fill-66"></path>
                    <path d="M54.9495346,39.6969697 L55.0537797,39.4487312 C61.1812712,34.6671127 68.3194101,32.0394173 76.5,31.7154963 L76.3162459,31.2871335 L76.2473382,26.9671781 L76.4222579,26.4646465 C67.9837056,26.7522399 60.4886597,29.2164611 53.8417096,33.3154237 C52.557198,34.0722485 51.4264037,35.2211084 50.1206897,35.870464 L50.3062106,35.870464 C51.9670647,36.9088275 53.5448761,38.4058267 54.9495346,39.6969697" id="Fill-68"></path>
                    <path d="M73.5374405,39.8560295 C68.6387967,40.1496783 64.3894099,41.8599108 60.6724138,44.4320569 C62.1413577,45.2803757 63.4463642,46.6548153 64.7805872,47.6363636 C64.8763526,47.5289643 64.9753643,47.416127 65.0695066,47.284257 C66.9036575,46.1912308 68.7978647,45.1892902 70.9550209,44.7365816 C71.9094287,44.653653 72.8638364,44.2716376 73.862069,44.4592466 C73.6559299,42.9393421 73.6559299,41.2644562 73.862069,39.6969697 L73.5374405,39.8560295 Z" id="Fill-70"></path>
                    <path d="M73.5905838,44.989899 C70.7113326,45.3568793 68.0568108,46.3026151 65.9482759,48.4566299 L66.3328799,48.4566299 C66.7702727,48.8714772 67.4625599,48.7815452 67.7883421,49.338543 C67.9512332,49.6475027 67.4836754,49.6126903 67.5017744,49.867981 C67.595286,49.9419573 67.7189626,49.9550119 67.7883421,50.0783057 C68.1276986,50.1928964 68.0568108,49.8882882 68.1880286,49.7504893 C68.6314544,49.3225873 68.7053587,50.1638861 69.133702,50.1638861 C69.4383687,49.9738686 69.8682203,49.9550119 70.0778672,50.2828283 C70.3704679,50.0405923 70.9813095,50.2639716 71.0687881,49.8215645 C71.6313657,49.2515121 71.3236825,48.3739505 72.1456793,48.0113218 C72.4307387,48.1636258 72.1275803,48.4247185 72.2346661,48.6640535 C72.786686,48.8874328 73.4156267,48.2158444 73.862069,48.7539855 C73.4563494,47.6283858 73.5528775,46.2329904 73.5905838,44.989899" id="Fill-72"></path>
                    <path d="M76.4768715,54.3337326 C75.9147371,55.1040412 74.9699066,55.2757992 74.0822423,55.4917979 C73.83611,55.7377241 73.8964521,56.2816244 73.3104984,56.2308777 C73.1247082,56.5756949 72.4800004,56.774778 72.7293086,57.2718352 C72.4196582,57.7962175 72.5673376,58.4754423 72.4069546,59.0505713 C71.2890375,59.6204955 71.6066276,58.2893711 71.050845,58.010915 L70.8523512,58.275058 C70.634802,58.3205999 70.4823587,58.2126005 70.3267396,58.0915892 C70.1584169,58.0369389 69.8741737,57.9913971 69.7233184,58.1202155 C69.4755982,58.4637315 69.1024298,58.7382841 69.192943,59.2028113 C69.0849624,59.4786651 68.519652,59.3875813 68.5926977,59.6816518 C69.2183502,59.6673386 69.8916412,59.5749537 70.4966503,59.4656531 C70.9349246,59.5554357 71.2890375,59.2951963 71.7257239,59.2821844 C71.8686394,59.3420394 72.0544296,59.4656531 71.9861478,59.6517243 L72.1417669,59.6517243 C72.4387136,59.4656531 72.5673376,59.1819922 72.4387136,58.9113432 C72.4800004,58.5847428 72.9150988,58.5847428 73.1739347,58.4910567 C73.420067,58.5847428 73.2676238,58.7825248 73.3104984,58.942572 C74.1584639,59.2028113 73.1040649,59.7115793 72.9849686,60.0811192 C72.7610676,60.3777921 72.9849686,61.0414025 72.2703909,60.9477164 C72.1417669,60.9203912 72.0544296,60.8084883 72.0877766,60.6822722 L71.9861478,60.6822722 C71.9734442,60.9347044 72.2005211,61.2717144 72.5006437,61.3784125 C73.0214914,61.024487 73.0405469,60.4220328 73.8059389,60.3413586 C74.1933988,60.0043486 73.6296765,59.4786651 74.220394,59.2028113 C75.1985715,59.1819922 76.2434428,58.8449822 77.0263024,59.4916771 C76.9659603,59.7714344 76.8405122,59.9015541 77.1231674,60.1279623 C76.9278495,60.4870927 76.8055773,60.8709457 76.4435246,61.1650162 C76.5356257,61.3654005 76.46258,61.6100256 76.2434428,61.751856 C75.9877828,62.6952238 74.6650201,62.2450096 73.8964521,62.57161 C75.085827,63.3119911 76.5149824,63.5904472 78.0616461,63.4980622 C78.8699128,63.4694359 78.5142119,62.6483807 78.9318429,62.2788408 C79.1906788,61.1988473 80.4054609,61.9379272 81.1406819,61.6438567 C81.4201612,61.183233 81.7044043,60.7317177 81.7758621,60.2060341 C81.3074167,59.9614091 81.1216265,59.4916771 81.2693059,59.0505713 C80.9517158,58.691441 80.9834748,58.0421437 80.2831887,57.9783851 C80.178384,57.8573738 80.2657212,57.6960254 80.3625862,57.6127488 C80.3482946,57.2718352 80.7579859,57.1612335 80.8707303,56.8970905 C80.4419837,56.6667786 80.5531403,56.1580107 80.5896631,55.8587354 C79.8512662,56.034397 79.7782205,55.2445705 79.2319655,55.0754149 C79.0985777,54.7175857 78.6269564,54.6551283 78.2506122,54.5965744 C77.3438925,54.9518012 77.197801,54.0370598 76.5149824,53.8249647 C76.4435246,53.6532067 76.2831416,53.4046781 76.5149824,53.2680524 C76.8595676,53.033837 77.3073696,53.2342213 77.7011813,53.2160045 L77.3835912,53.0793789 C77.0850566,52.8022239 76.4228812,52.9739819 76.0258936,53.0793789 C76.4038258,53.3890637 76.2434428,53.945976 76.4768715,54.3337326" id="Fill-74"></path>
                    <path d="M43.5720304,55.5757576 L43.4253781,54.9245781 C43.8363666,49.6257099 46.0252881,44.9165365 49.8798902,40.6992411 C50.839467,39.8510309 51.5510023,38.7932136 52.7586207,38.156008 C51.3590869,37.147099 49.9052375,35.9663122 48.4314723,34.8567918 L48.28482,34.4040404 C42.1507704,39.667974 38.3740208,45.6767117 37.2696022,52.5350569 C37.0288027,53.5327868 37.1935602,54.5598617 36.9310345,55.5757576 C39.0837455,55.4402116 41.4175088,55.4402116 43.5720304,55.5757576" id="Fill-76"></path>
                    <path d="M101.05533,76.7474747 C100.466218,77.6955534 99.1851611,78.298479 98.2108609,79.0295626 C96.8670585,80.1567713 94.6709613,80.3941551 93.9859882,82.0252581 C93.2678993,82.574299 93.0204026,83.4393661 92.0060148,83.7524797 C91.6260552,84.5811383 90.5680941,84.533079 89.9737535,85.1316355 C88.2325621,86.4306926 87.1118554,84.3058896 85.5414716,84.0481171 L82.3728171,84.5141465 C81.2712826,84.5141465 80.1784628,84.8432798 79.137931,84.5476424 C79.2913093,86.3069035 79.2913093,88.2132552 79.137931,89.979798 L79.5353201,89.7715411 C89.5153617,89.4118246 98.1272,86.2428245 105.517241,80.6373642 L101.154677,77.1581632 L101.05533,76.7474747 Z" id="Fill-78"></path>
                    <path d="M80.0519518,30.6868996 C80.2358167,30.3908745 80.7149262,30.4983783 80.9659725,30.59186 L83.9909038,29.4451521 C85.205473,29.5355177 86.5473332,29.6648339 87.2686494,30.5575834 L87.2686494,30.6868996 C86.5102066,31.2368831 85.5466838,31.6809208 84.5407306,31.3101104 C83.1511362,31.5547206 81.213483,32.2558328 80.1014539,30.998505 C80.0519518,30.9065814 79.9299645,30.7741491 80.0519518,30.6868996 M98.1007675,34.0491219 C98.5197673,34.1659739 98.9034085,34.3295667 99.0519148,34.7221895 C98.9387672,35.1381827 99.4938977,35.4934129 99.150919,35.8268307 C98.0141388,36.0870212 97.9151347,34.9605676 97.0311688,34.6816808 C96.9109494,34.5289942 96.868519,34.345147 96.8861983,34.1441615 C97.283983,33.7188201 97.6605525,34.4230483 98.1007675,34.0491219 M79.1980407,31.5671849 C79.1980407,31.403592 79.2829014,31.2571375 79.3942811,31.1324953 C79.6859899,30.9766926 79.9299645,31.2057226 80.0519518,31.3848957 C80.0802387,31.6466442 80.2075298,32.09224 79.9582514,32.2402525 C80.2075298,32.2776452 80.3401247,32.1109363 80.5611161,32.1109363 C85.3698906,32.4256577 89.8268467,33.6627312 93.8206046,35.6632378 L93.8206046,35.5728723 C94.639157,35.2160841 95.6893085,34.7564661 96.5290761,35.384351 C97.5385652,35.0524912 97.724198,36.1446682 98.5427504,36.2708683 C99.5363281,36.7896913 100.650125,37.7587841 100.772112,38.7730597 C100.952441,39.1080355 101.55177,39.3448556 101.633095,39.6969697 C102.306677,38.4411999 103.648537,37.5468924 104.810069,36.4593896 L105.517241,36.1976411 C99.177438,30.8691888 91.6389768,27.9229597 83.2289252,26.9055681 C81.8941367,26.7030246 80.4143778,26.8136445 79.137931,26.4646465 C79.3942811,27.9229597 79.3235639,29.9234664 79.1980407,31.5671849" id="Fill-80"></path>
                    <path d="M79.2325687,36.6381586 C79.9830289,36.4216422 80.7500922,36.6864265 81.5038731,36.7029756 C85.3707355,37.2297861 89.023418,38.2572047 92.1082743,40.2417084 C91.7430061,39.9107279 91.2864208,39.5383749 91.2034053,39.0612114 C91.2698177,38.9963944 91.3461919,38.9812244 91.4441502,38.9963944 C91.485658,38.4861328 90.8314958,38.2241066 90.7401787,37.7662503 C90.8314958,37.6724725 90.9759428,37.5717993 91.1735197,37.6186882 C91.8359835,38.1454988 92.4038095,38.7191982 92.9035629,39.3039304 C93.3418848,39.1618846 93.6938706,39.3894337 94.0126501,39.5825056 C94.5821365,39.8610808 94.2301508,40.4706365 94.665152,40.7988588 C94.7415263,41.7655976 96.1627518,42.306199 96.0847173,43.2715587 C96.0963394,43.5004869 96.436703,43.3212058 96.554585,43.437049 L97.7383862,44.6451277 C97.5192253,44.8781931 97.7018594,45.1581474 97.9409441,45.3153631 C98.4689227,45.5180887 98.7677785,44.9568009 99.2940969,45.0395461 C100.06116,45.4008664 99.1762148,45.8256247 99.2525891,46.2214221 C99.5497846,46.2338339 99.9283354,46.025592 100.16742,46.2710692 C100.263718,46.6323896 99.808793,46.8599386 99.6261589,47.091625 C99.6261589,47.448808 99.9831256,47.3702002 100.301905,47.448808 C100.653891,47.4350172 100.873052,47.7963375 100.778414,48.0418147 C101.762978,48.8940894 100.479558,49.809802 100.954407,50.7117238 C101.263225,51.297835 100.873052,51.8715345 100.43473,52.3142209 C100.459635,53.0382407 99.6626857,53.4781689 99.3605093,54.0849664 L98.3493804,54.2463194 C97.8114399,54.6890057 98.8109466,55.2323653 98.2680252,55.5123197 L100.479558,55.5454177 L100.238813,55.3495876 C99.9283354,54.6324632 100.001389,53.658829 100.53933,53.0203126 C100.873052,52.4328222 100.954407,51.7225933 101.585325,51.2192272 C101.71981,51.1875082 101.973838,50.9723709 102.098361,51.2192272 C102.136548,51.7763776 102.080097,52.413515 101.762978,52.9072276 C102.397217,53.658829 102.310881,54.6421168 102.368991,55.5757576 C104.321516,55.4750844 106.237514,55.4461236 108.155172,55.4626726 L107.98084,55.1482411 C107.680324,52.1197699 106.931524,49.2512725 105.41068,46.6641085 C104.997262,46.6834157 104.700067,46.9578537 104.228539,46.8599386 C104.070809,46.8130497 103.96953,46.6834157 103.991114,46.5358536 C103.202467,45.911128 102.702714,45.0933304 101.82441,44.5306636 C100.8083,44.6147878 100.358356,43.6452908 99.4518263,43.550134 C98.6465759,43.2715587 99.1994592,42.1889768 98.0322611,42.4882383 C97.4611144,42.28965 96.9032502,41.9297088 96.7903491,41.3891073 C96.7903491,40.5354535 96.5927722,39.6169828 95.6729603,39.0612114 C94.9557063,38.8474532 94.665152,39.6321527 93.9495583,39.5038978 C93.5544045,39.3384075 93.733718,38.9136493 93.6075344,38.6378322 C93.4747096,38.3882178 93.1376666,38.2089367 93.1990981,37.8807144 C94.1255512,36.8670867 92.0750681,36.8863939 92.5266725,35.8824198 C92.4038095,35.1597791 91.5238451,34.8812039 91.0672598,34.3102626 C88.0106287,33.1628637 84.9539977,32.3809223 81.5038731,32.0333928 C80.6554546,31.9327196 79.8668072,32.0830399 79.137931,31.7575758 L79.330527,32.0637327 C79.287359,33.589001 79.4168631,35.2094262 79.2325687,36.6381586" id="Fill-82"></path>
                    <path d="M100.241379,38.0606313 C100.674353,38.1428489 100.799778,38.5581172 101.090145,38.8061634 C102.572907,39.4499687 102.959491,40.7445468 104.270438,41.4705696 C105.004088,42.7177681 106.6999,43.6737214 106.760036,45.0978966 C108.529729,48.2779044 109.737587,51.637676 109.857858,55.3792716 L109.701506,55.5757576 C109.880194,55.5757576 110.043418,55.5102622 110.182588,55.4294382 L116.068966,55.3430401 C115.682382,54.8817857 115.843888,54.2031425 115.742517,53.6401612 C114.96076,46.2740257 111.086334,39.9641768 105.004088,34.4040404 C103.876982,35.6275491 102.352984,36.7702338 100.940666,37.9449693 L100.241379,38.0606313 Z" id="Fill-84"></path>
                </g>
            </g>
        </g>
    </g>
</svg>